<svg width="140" height="141" viewBox="0 0 140 141" fill="none" xmlns="http://www.w3.org/2000/svg">
<rect width="140" height="140" transform="translate(0 0.666748)" fill="white"/>
<path d="M88.7498 56.1867C87.6098 61.8867 87.6898 68.5967 85.4798 72.8867C82.3298 79.0067 75.4398 82.7767 69.8498 82.7767C63.8998 82.7767 57.3098 78.7167 54.2198 71.9267C52.3598 67.8567 50.2698 57.4367 49.7498 52.1767C48.2698 37.1167 55.0898 28.5867 70.0798 28.2667C86.6998 27.9167 91.6198 41.8267 88.7498 56.1867Z" fill="#D3D3D3"/>
<path d="M50.6601 51.1667C48.3201 49.8867 46.1901 50.1067 46.6201 52.8667C47.0501 55.6267 47.6801 63.0767 49.1701 64.3467C50.6601 65.6267 52.1501 66.0467 53.0001 64.5567C53.8501 63.0767 50.6601 51.1667 50.6601 51.1667Z" fill="#D3D3D3"/>
<path d="M87.8805 49.9968C90.2205 48.7168 92.3505 48.9368 91.9205 51.6968C91.4905 54.4568 90.8605 61.9068 89.3705 63.1768C87.8805 64.4568 86.3905 64.8768 85.5405 63.3868C84.6905 61.9068 87.8805 49.9968 87.8805 49.9968Z" fill="#D3D3D3"/>
<path d="M56.5893 70.9067C57.2293 76.8667 57.0193 85.7967 55.7393 90.2667C55.9493 90.4767 61.2093 101.297 71.2693 100.687C80.7093 100.117 84.2393 89.6267 84.2393 89.6267C84.2393 89.6267 82.0793 78.4467 83.5993 71.5467C84.9393 65.4667 56.5893 70.9067 56.5893 70.9067Z" fill="#D3D3D3"/>
<path d="M120.25 103.937C118.92 100.107 112.75 97.9367 112.75 97.9367L87.4997 87.4367L83.0397 80.7167L70.1597 88.5767L57.1997 80.6267L53.1597 87.3467L28.1597 96.8467C28.1597 96.8467 24.2397 98.3467 21.7397 101.177C20.6997 102.387 16.5697 116.577 15.4697 140.667H124.53C123.43 116.577 120.78 105.447 120.25 103.937Z" fill="#D3D3D3"/>
<path d="M57.2496 32.0667C56.5796 26.5667 59.7896 24.2367 70.4996 26.0267C76.9596 27.1067 84.3296 30.0267 84.9996 26.3567C85.2496 24.9667 88.4996 32.5267 84.3296 34.8567C81.9896 36.1667 59.6696 33.5167 59.6696 33.5167L57.2496 32.0667Z" fill="#D3D3D3"/>
<path d="M57.9995 31.5167C57.1695 30.5167 54.4995 29.8467 52.9995 31.3467C51.4995 32.8467 46.7095 38.8067 49.0395 50.8067C51.3695 62.8067 54.4995 52.3467 54.4995 52.3467L57.8295 32.1767L57.9995 31.5167Z" fill="#D3D3D3"/>
<path d="M83.8299 32.1067C84.8299 31.7267 86.6599 31.1067 87.8299 33.1867C89.2399 35.7067 91.4999 42.6067 89.3699 51.2667C86.8699 61.4567 85.9899 50.6367 85.9899 50.6367L81.1299 34.2667L83.8299 32.1067Z" fill="#D3D3D3"/>
</svg>
