<svg width="33" height="33" viewBox="0 0 33 33" fill="none" xmlns="http://www.w3.org/2000/svg">
<path fill-rule="evenodd" clip-rule="evenodd" d="M30.7761 4.89052C31.2968 5.41122 31.2968 6.25544 30.7761 6.77614L17.4428 20.1095C16.9221 20.6302 16.0779 20.6302 15.5572 20.1095L11.5572 16.1095C11.0365 15.5888 11.0365 14.7446 11.5572 14.2239C12.0779 13.7032 12.9221 13.7032 13.4428 14.2239L16.5 17.281L28.8905 4.89052C29.4112 4.36983 30.2554 4.36983 30.7761 4.89052Z" fill="#129767"/>
<path fill-rule="evenodd" clip-rule="evenodd" d="M7.16666 5.83341C6.81303 5.83341 6.4739 5.97389 6.22385 6.22394C5.9738 6.47399 5.83332 6.81313 5.83332 7.16675V25.8334C5.83332 26.187 5.9738 26.5262 6.22385 26.7762C6.4739 27.0263 6.81304 27.1667 7.16666 27.1667H25.8333C26.1869 27.1667 26.5261 27.0263 26.7761 26.7762C27.0262 26.5262 27.1667 26.187 27.1667 25.8334V16.5001C27.1667 15.7637 27.7636 15.1667 28.5 15.1667C29.2364 15.1667 29.8333 15.7637 29.8333 16.5001V25.8334C29.8333 26.8943 29.4119 27.9117 28.6618 28.6618C27.9116 29.412 26.8942 29.8334 25.8333 29.8334H7.16666C6.10579 29.8334 5.08837 29.412 4.33823 28.6618C3.58808 27.9117 3.16666 26.8943 3.16666 25.8334V7.16675C3.16666 6.10588 3.58808 5.08847 4.33823 4.33832C5.08837 3.58818 6.10579 3.16675 7.16666 3.16675H21.8333C22.5697 3.16675 23.1667 3.7637 23.1667 4.50008C23.1667 5.23646 22.5697 5.83341 21.8333 5.83341H7.16666Z" fill="#129767"/>
</svg>
