<svg width="16" height="16" viewBox="0 0 16 16" fill="none" xmlns="http://www.w3.org/2000/svg">
<g clip-path="url(#clip0_25_10216)">
<path fill-rule="evenodd" clip-rule="evenodd" d="M8.00008 2.00008C4.68637 2.00008 2.00008 4.68637 2.00008 8.00008C2.00008 11.3138 4.68637 14.0001 8.00008 14.0001C11.3138 14.0001 14.0001 11.3138 14.0001 8.00008C14.0001 4.68637 11.3138 2.00008 8.00008 2.00008ZM0.666748 8.00008C0.666748 3.94999 3.94999 0.666748 8.00008 0.666748C12.0502 0.666748 15.3334 3.94999 15.3334 8.00008C15.3334 12.0502 12.0502 15.3334 8.00008 15.3334C3.94999 15.3334 0.666748 12.0502 0.666748 8.00008Z" fill="#303063"/>
<path fill-rule="evenodd" clip-rule="evenodd" d="M7.99992 4.66675C8.36811 4.66675 8.66659 4.96522 8.66659 5.33341V8.00008C8.66659 8.36827 8.36811 8.66675 7.99992 8.66675C7.63173 8.66675 7.33325 8.36827 7.33325 8.00008V5.33341C7.33325 4.96522 7.63173 4.66675 7.99992 4.66675Z" fill="#303063"/>
<path fill-rule="evenodd" clip-rule="evenodd" d="M7.33325 10.6667C7.33325 10.2985 7.63173 10 7.99992 10H8.00659C8.37477 10 8.67325 10.2985 8.67325 10.6667C8.67325 11.0349 8.37477 11.3333 8.00659 11.3333H7.99992C7.63173 11.3333 7.33325 11.0349 7.33325 10.6667Z" fill="#303063"/>
</g>
<defs>
<clipPath id="clip0_25_10216">
<rect width="16" height="16" fill="white"/>
</clipPath>
</defs>
</svg>
