<svg width="235" height="209" viewBox="0 0 235 209" fill="none" xmlns="http://www.w3.org/2000/svg">
<path d="M202.385 45.0978L90.4128 1.19959L17.0769 93.2381L67.6238 102.267M202.385 45.0978L233.886 159.077M202.385 45.0978L162.335 77.9129M233.886 159.077L48.0792 207.347L98.5136 107.785M233.886 159.077L138.58 97.3764M98.5136 107.785L120.979 111.798L138.58 97.3764M98.5136 107.785L67.6238 102.267M138.58 97.3764L162.335 77.9129M67.6238 102.267L62.9647 85.4093L58.3057 68.5513L152.952 43.9635L162.335 77.9129M89.9747 76.8886L130.041 66.4798M93.0446 87.9967L133.111 77.588M96.2481 99.5878L136.315 89.1791M1.41551 135.094L69.6608 117.365M6.48761 153.447L62.7775 138.824M11.2928 170.834L43.6719 162.422" stroke="#EE4461" stroke-linecap="round"/>
</svg>
