<svg width="621" height="272" viewBox="0 0 621 272" fill="none" xmlns="http://www.w3.org/2000/svg">
<path d="M0.999995 122.532L-5.08507e-06 122.532L-5.59735e-06 121.532L0.999995 121.532L0.999995 122.532ZM169.759 266C169.759 263.054 172.147 260.667 175.093 260.667C178.038 260.667 180.426 263.054 180.426 266C180.426 268.946 178.038 271.333 175.093 271.333C172.147 271.333 169.759 268.946 169.759 266ZM1.00006 266L1.00006 267L6.50641e-05 267L6.45518e-05 266L1.00006 266ZM615 122.532L616 122.532L616 123.532L615 123.532L615 122.532ZM609.667 5.8284C609.667 2.88287 612.054 0.495054 615 0.495054C617.945 0.495053 620.333 2.88287 620.333 5.8284C620.333 8.77392 617.945 11.1617 615 11.1617C612.054 11.1617 609.667 8.77392 609.667 5.8284ZM6.45518e-05 266L-5.08507e-06 122.532L1.99999 122.532L2.00006 266L6.45518e-05 266ZM175.093 267L1.00006 267L1.00006 265L175.093 265L175.093 267ZM0.999995 121.532L615 121.532L615 123.532L0.999995 123.532L0.999995 121.532ZM614 122.532L614 5.8284L616 5.8284L616 122.532L614 122.532Z" fill="#303063"/>
</svg>
