<svg width="482" height="236" viewBox="0 0 482 236" fill="none" xmlns="http://www.w3.org/2000/svg">
<path d="M0.666667 230C0.666667 232.946 3.05448 235.333 6 235.333C8.94552 235.333 11.3333 232.946 11.3333 230C11.3333 227.054 8.94552 224.667 6 224.667C3.05448 224.667 0.666667 227.054 0.666667 230ZM470.667 6.00003C470.667 8.94555 473.054 11.3334 476 11.3334C478.945 11.3334 481.333 8.94555 481.333 6.00003C481.333 3.05451 478.945 0.666693 476 0.666693C473.054 0.666693 470.667 3.05451 470.667 6.00003ZM6.00014 6L6.00014 5H5.00014L5.00014 6L6.00014 6ZM386.36 6L386.36 5L386.36 6ZM5.00014 6L5 230H7L7.00014 6L5.00014 6ZM386.36 5L6.00014 5L6.00014 7L386.36 7L386.36 5ZM476 5.00003L386.36 5L386.36 7L476 7.00003L476 5.00003Z" fill="#303063"/>
</svg>
