<svg width="754" height="298" viewBox="0 0 754 298" fill="none" xmlns="http://www.w3.org/2000/svg">
<path d="M517.842 6.14368C517.842 3.19816 520.23 0.810345 523.176 0.810345C526.121 0.810345 528.509 3.19816 528.509 6.14368C528.509 9.0892 526.121 11.477 523.176 11.477C520.23 11.477 517.842 9.0892 517.842 6.14368ZM523.176 31.1605L522.409 31.8019L522.176 31.5234V31.1605H523.176ZM547.298 60.0142V61.0142H546.831L546.531 60.6556L547.298 60.0142ZM721.641 60.0142L722.38 60.688L722.082 61.0142H721.641V60.0142ZM747.953 31.1605H748.953V31.548L748.692 31.8343L747.953 31.1605ZM742.619 6.14368C742.619 3.19816 745.007 0.810345 747.953 0.810345C750.898 0.810345 753.286 3.19816 753.286 6.14368C753.286 9.0892 750.898 11.477 747.953 11.477C745.007 11.477 742.619 9.0892 742.619 6.14368ZM524.176 6.14368V31.1605H522.176V6.14368H524.176ZM523.943 30.5191L548.065 59.3728L546.531 60.6556L522.409 31.8019L523.943 30.5191ZM547.298 59.0142L721.641 59.0142V61.0142L547.298 61.0142V59.0142ZM720.902 59.3404L747.214 30.4867L748.692 31.8343L722.38 60.688L720.902 59.3404ZM746.953 31.1605V6.14368H748.953V31.1605H746.953Z" fill="#303063"/>
<path d="M6.5 298L12.2735 288L0.726502 288L6.5 298ZM639.833 60.0142C639.833 57.0686 637.446 54.6808 634.5 54.6808C631.554 54.6808 629.167 57.0686 629.167 60.0142C629.167 62.9597 631.554 65.3475 634.5 65.3475C637.446 65.3475 639.833 62.9597 639.833 60.0142ZM634.5 159.913L634.5 160.913L635.5 160.913L635.5 159.913L634.5 159.913ZM6.50007 159.913L6.50007 158.913L5.50007 158.913L5.50007 159.913L6.50007 159.913ZM635.5 159.913L635.5 60.0142L633.5 60.0142L633.5 159.913L635.5 159.913ZM6.50007 160.913L634.5 160.913L634.5 158.913L6.50007 158.913L6.50007 160.913ZM7.5 289L7.50007 159.913L5.50007 159.913L5.5 289L7.5 289Z" fill="#303063"/>
</svg>
