<svg width="147" height="186" viewBox="0 0 147 186" fill="none" xmlns="http://www.w3.org/2000/svg">
<path d="M135.667 180C135.667 177.054 138.054 174.667 141 174.667C143.946 174.667 146.333 177.054 146.333 180C146.333 182.946 143.946 185.333 141 185.333C138.054 185.333 135.667 182.946 135.667 180ZM0.666674 6C0.666674 3.05447 3.05449 0.666672 6.00001 0.666672C8.94553 0.666672 11.3333 3.05447 11.3333 6C11.3333 8.94551 8.94553 11.3333 6.00001 11.3333C3.05449 11.3333 0.666674 8.94551 0.666674 6ZM6.00001 91.8811L6.00001 92.8811L5.00001 92.8811L5.00001 91.8811L6.00001 91.8811ZM141 91.8811L141 90.8811L142 90.8811L142 91.8811L141 91.8811ZM5.00001 91.8811L5.00001 6L7.00001 6L7.00001 91.8811L5.00001 91.8811ZM141 92.8811L6.00001 92.8811L6.00001 90.8811L141 90.8811L141 92.8811ZM140 180L140 91.8811L142 91.8811L142 180L140 180Z" fill="#303063"/>
</svg>
