<svg width="176" height="86" viewBox="0 0 176 86" fill="none" xmlns="http://www.w3.org/2000/svg">
<path d="M175.333 79.7109C175.333 82.6565 172.946 85.0443 170 85.0443C167.054 85.0443 164.667 82.6565 164.667 79.7109C164.667 76.7654 167.054 74.3776 170 74.3776C172.946 74.3776 175.333 76.7654 175.333 79.7109ZM11.3333 6.00002C11.3333 8.94554 8.94551 11.3333 5.99998 11.3333C3.05446 11.3334 0.666657 8.94554 0.666656 6.00002C0.666656 3.0545 3.05446 0.666684 5.99998 0.666683C8.94551 0.666683 11.3333 3.0545 11.3333 6.00002ZM170 6L170 5L171 5L171 6L170 6ZM55.167 6.00001L55.167 5.00001L55.167 6.00001ZM171 6L171 79.7109L169 79.7109L169 6L171 6ZM55.167 5.00001L170 5L170 7L55.167 7.00001L55.167 5.00001ZM5.99998 5.00002L55.167 5.00001L55.167 7.00001L5.99998 7.00002L5.99998 5.00002Z" fill="#303063"/>
</svg>
