<svg width="505" height="81" viewBox="0 0 505 81" fill="none" xmlns="http://www.w3.org/2000/svg">
<path d="M504.998 75C504.998 77.9455 502.611 80.3333 499.665 80.3333C496.72 80.3333 494.332 77.9455 494.332 75C494.332 72.0545 496.72 69.6667 499.665 69.6667C502.611 69.6667 504.998 72.0545 504.998 75ZM499.665 40.6353L500.264 39.8348L500.665 40.1348V40.6353H499.665ZM446.722 1V0H447.055L447.322 0.19948L446.722 1ZM64.0826 1L63.5168 0.175517L63.7725 0H64.0826V1ZM6.33496 40.6353H5.33496V40.1088L5.76907 39.8108L6.33496 40.6353ZM6.33496 75L0.561462 65H12.1085L6.33496 75ZM498.665 75V40.6353H500.665V75H498.665ZM499.066 41.4358L446.123 1.80052L447.322 0.19948L500.264 39.8348L499.066 41.4358ZM446.722 2H64.0826V0H446.722V2ZM64.6485 1.82448L6.90085 41.4598L5.76907 39.8108L63.5168 0.175517L64.6485 1.82448ZM7.33496 40.6353V66H5.33496V40.6353H7.33496Z" fill="#303063"/>
</svg>
