<svg width="13" height="244" viewBox="0 0 13 244" fill="none" xmlns="http://www.w3.org/2000/svg">
<path d="M1.16667 64C1.16667 66.9455 3.55448 69.3333 6.5 69.3333C9.44552 69.3333 11.8333 66.9455 11.8333 64C11.8333 61.0545 9.44552 58.6667 6.5 58.6667C3.55448 58.6667 1.16667 61.0545 1.16667 64ZM6.5 0L0.726497 10H12.2735L6.5 0ZM7.5 64V9H5.5V64H7.5Z" fill="#303063"/>
<path d="M1.16667 238C1.16667 240.946 3.55448 243.333 6.5 243.333C9.44552 243.333 11.8333 240.946 11.8333 238C11.8333 235.054 9.44552 232.667 6.5 232.667C3.55448 232.667 1.16667 235.054 1.16667 238ZM1.16667 174C1.16667 176.946 3.55448 179.333 6.5 179.333C9.44552 179.333 11.8333 176.946 11.8333 174C11.8333 171.054 9.44552 168.667 6.5 168.667C3.55448 168.667 1.16667 171.054 1.16667 174ZM7.5 238V174H5.5V238H7.5Z" fill="#303063"/>
</svg>
