<svg width="176" height="192" viewBox="0 0 176 192" fill="none" xmlns="http://www.w3.org/2000/svg">
<path d="M170 192L164.226 182L175.773 182L170 192ZM0.666679 6C0.66668 3.05449 3.05449 0.666672 6.00001 0.666672C8.94553 0.666672 11.3333 3.05449 11.3333 6C11.3333 8.94553 8.94553 11.3333 6.00001 11.3333C3.05449 11.3333 0.666679 8.94553 0.666679 6ZM6 91.7096L6 92.7096L5 92.7096L5 91.7096L6 91.7096ZM170 91.7096L170 90.7096L171 90.7096L171 91.7096L170 91.7096ZM5 91.7096L5.00001 6L7.00001 6L7 91.7096L5 91.7096ZM170 92.7096L6 92.7096L6 90.7096L170 90.7096L170 92.7096ZM169 183L169 91.7096L171 91.7096L171 183L169 183Z" fill="#303063"/>
</svg>
