<svg width="12" height="55" viewBox="0 0 12 55" fill="none" xmlns="http://www.w3.org/2000/svg">
<path d="M0.666668 49C0.666669 51.9455 3.05448 54.3333 6 54.3333C8.94552 54.3333 11.3333 51.9455 11.3333 49C11.3333 46.0545 8.94552 43.6667 6 43.6667C3.05448 43.6667 0.666668 46.0545 0.666668 49ZM0.666667 6C0.666667 8.94552 3.05448 11.3333 6 11.3333C8.94552 11.3333 11.3333 8.94552 11.3333 6C11.3333 3.05448 8.94552 0.666666 6 0.666667C3.05448 0.666667 0.666666 3.05448 0.666667 6ZM7 49L7 6L5 6L5 49L7 49Z" fill="#303063"/>
</svg>
