<svg width="26" height="603" viewBox="0 0 26 603" fill="none" xmlns="http://www.w3.org/2000/svg">
<path d="M5.00003 603L6.0245 591.499L15.4728 598.136L5.00003 603ZM25 574.532L26 574.532L26 574.849L25.8182 575.107L25 574.532ZM25 32.895L25.8182 32.3202L26 32.5789L26 32.895L25 32.895ZM6.10645 11.3333C3.16093 11.3333 0.773118 8.9455 0.773118 6C0.773118 3.05444 3.16093 0.666688 6.10645 0.666688C9.05197 0.666688 11.4398 3.05444 11.4398 6C11.4398 8.9455 9.05197 11.3333 6.10645 11.3333ZM9.35555 595.061L24.1817 573.958L25.8182 575.107L10.9921 596.211L9.35555 595.061ZM24 574.532L24 32.895L26 32.895L26 574.532L24 574.532ZM24.1817 33.4698L5.28818 6.57483L6.92472 5.42517L25.8182 32.3202L24.1817 33.4698Z" fill="#303063"/>
</svg>
