<svg width="311" height="259" viewBox="0 0 311 259" fill="none" xmlns="http://www.w3.org/2000/svg">
<path d="M310.333 5.99999C310.333 3.05447 307.946 0.666657 305 0.666656C302.054 0.666656 299.667 3.05447 299.667 5.99998C299.667 8.94551 302.054 11.3333 305 11.3333C307.946 11.3333 310.333 8.94551 310.333 5.99999ZM11.3334 253.215C11.3334 250.269 8.94559 247.881 6.00006 247.881C3.05454 247.881 0.666718 250.269 0.666718 253.215C0.666717 256.16 3.05453 258.548 6.00006 258.548C8.94559 258.548 11.3334 256.16 11.3334 253.215ZM305 253.215L305 254.215L306 254.215L306 253.215L305 253.215ZM95.6398 253.215L95.6398 254.215L95.6398 253.215ZM306 253.215L306 5.99998L304 5.99998L304 253.215L306 253.215ZM95.6398 254.215L305 254.215L305 252.215L95.6398 252.215L95.6398 254.215ZM6.00006 254.215L95.6398 254.215L95.6398 252.215L6.00006 252.215L6.00006 254.215Z" fill="#303063"/>
</svg>
