<svg width="124" height="105" viewBox="0 0 124 105" fill="none" xmlns="http://www.w3.org/2000/svg">
<path d="M123.333 6.00001C123.333 3.05449 120.946 0.66668 118 0.666679C115.054 0.666679 112.667 3.05449 112.667 6.00001C112.667 8.94553 115.054 11.3333 118 11.3333C120.946 11.3333 123.333 8.94553 123.333 6.00001ZM11.3333 99C11.3333 96.0545 8.94552 93.6667 6 93.6667C3.05448 93.6667 0.666664 96.0545 0.666664 99C0.666664 101.946 3.05448 104.333 6 104.333C8.94552 104.333 11.3333 101.946 11.3333 99ZM118 99L118 100L119 100L119 99L118 99ZM39.5775 99L39.5775 100L39.5775 99ZM119 99L119 6.00001L117 6.00001L117 99L119 99ZM39.5775 100L118 100L118 98L39.5775 98L39.5775 100ZM6 100L39.5775 100L39.5775 98L6 98L6 100Z" fill="#303063"/>
</svg>
