<svg width="221" height="239" viewBox="0 0 221 239" fill="none" xmlns="http://www.w3.org/2000/svg">
<path d="M209.667 232.76C209.667 229.814 212.054 227.426 215 227.426C217.946 227.426 220.333 229.814 220.333 232.76C220.333 235.705 217.946 238.093 215 238.093C212.054 238.093 209.667 235.705 209.667 232.76ZM0.666676 5.99998C0.666677 3.05446 3.05449 0.666656 6.00001 0.666656C8.94553 0.666657 11.3333 3.05446 11.3333 5.99998C11.3333 8.9455 8.94553 11.3333 6.00001 11.3333C3.05449 11.3333 0.666676 8.9455 0.666676 5.99998ZM6.00001 117.922L6.00001 118.922L5.00001 118.922L5.00001 117.922L6.00001 117.922ZM215 117.922L215 116.922L216 116.922L216 117.922L215 117.922ZM5.00001 117.922L5.00001 5.99998L7.00001 5.99998L7.00001 117.922L5.00001 117.922ZM215 118.922L6.00001 118.922L6.00001 116.922L215 116.922L215 118.922ZM214 232.76L214 117.922L216 117.922L216 232.76L214 232.76Z" fill="#303063"/>
</svg>
