<svg width="27" height="745" viewBox="0 0 27 745" fill="none" xmlns="http://www.w3.org/2000/svg">
<path d="M21.1869 0.666667C24.1325 0.666668 26.5203 3.05448 26.5203 6C26.5203 8.94552 24.1325 11.3333 21.1869 11.3333C18.2414 11.3333 15.8536 8.94552 15.8536 6C15.8536 3.05448 18.2414 0.666667 21.1869 0.666667ZM0.999998 41.4369L-1.549e-06 41.4369L-1.53742e-06 41.172L0.131094 40.9419L0.999998 41.4369ZM0.999969 715.677L0.161768 716.222L-3.10339e-05 715.974L-3.1021e-05 715.677L0.999969 715.677ZM16.5 734.167C19.4455 734.167 21.8333 736.555 21.8333 739.5C21.8333 742.445 19.4455 744.833 16.5 744.833C13.5545 744.833 11.1667 742.445 11.1667 739.5C11.1667 736.555 13.5545 734.167 16.5 734.167ZM22.0559 6.49498L1.8689 41.9319L0.131094 40.9419L20.318 5.50502L22.0559 6.49498ZM2 41.4369L1.99997 715.677L-3.1021e-05 715.677L-1.549e-06 41.4369L2 41.4369ZM1.83817 715.132L17.3382 738.955L15.6618 740.045L0.161768 716.222L1.83817 715.132Z" fill="#303063"/>
</svg>
