<svg width="335" height="322" viewBox="0 0 335 322" fill="none" xmlns="http://www.w3.org/2000/svg">
<path d="M329 322L323.227 312L334.773 312L329 322ZM0.66668 6C0.66668 3.0545 3.0545 0.666687 6.00001 0.666687C8.94553 0.666687 11.3333 3.0545 11.3333 6C11.3333 8.94553 8.94553 11.3333 6.00001 11.3333C3.05449 11.3333 0.66668 8.94553 0.66668 6ZM6.00002 145.705L6.00002 146.705L5.00002 146.705L5.00002 145.705L6.00002 145.705ZM329 145.705L329 144.705L330 144.705L330 145.705L329 145.705ZM5.00002 145.705L5.00001 6L7.00001 6L7.00002 145.705L5.00002 145.705ZM329 146.705L6.00002 146.705L6.00002 144.705L329 144.705L329 146.705ZM328 313L328 145.705L330 145.705L330 313L328 313Z" fill="#303063"/>
</svg>
