<svg width="87" height="545" viewBox="0 0 87 545" fill="none" xmlns="http://www.w3.org/2000/svg">
<path d="M6.00001 236.333C3.05449 236.333 0.66668 233.946 0.666679 231C0.666679 228.054 3.05449 225.667 6.00001 225.667C8.94553 225.667 11.3333 228.054 11.3333 231C11.3333 233.946 8.94553 236.333 6.00001 236.333ZM21.3248 231L22.1317 231.591L21.8321 232L21.3248 232L21.3248 231ZM39 206.854L40 206.854L40 207.181L39.8069 207.444L39 206.854ZM39 32.3378L39.8303 31.7805L40 32.0333L40 32.3378L39 32.3378ZM21.3248 6L21.3248 5L21.858 5L22.1551 5.44275L21.3248 6ZM6 11.3333C3.05448 11.3333 0.66667 8.94551 0.66667 6C0.666669 3.05448 3.05448 0.666658 6 0.666658C8.94552 0.666658 11.3333 3.05448 11.3333 6C11.3333 8.94551 8.94552 11.3333 6 11.3333ZM6.00001 230L21.3248 230L21.3248 232L6.00001 232L6.00001 230ZM20.5179 230.409L38.1931 206.263L39.8069 207.444L22.1317 231.591L20.5179 230.409ZM38 206.854L38 32.3378L40 32.3378L40 206.854L38 206.854ZM38.1696 32.895L20.4944 6.55724L22.1551 5.44275L39.8303 31.7805L38.1696 32.895ZM21.3248 7L6 7L6 5L21.3248 5L21.3248 7Z" fill="#303063"/>
<path d="M81 545L86.7735 535H75.2265L81 545ZM81 122H82V121H81V122ZM34.1667 122C34.1667 124.946 36.5545 127.333 39.5 127.333C42.4455 127.333 44.8333 124.946 44.8333 122C44.8333 119.054 42.4455 116.667 39.5 116.667C36.5545 116.667 34.1667 119.054 34.1667 122ZM82 536V122H80V536H82ZM81 121H39.5V123H81V121Z" fill="#303063"/>
</svg>
