<svg width="505" height="85" viewBox="0 0 505 85" fill="none" xmlns="http://www.w3.org/2000/svg">
<path d="M0.00162745 6C0.00162745 3.05448 2.38944 0.666664 5.33496 0.666664C8.28048 0.666664 10.6683 3.05448 10.6683 6C10.6683 8.94552 8.28048 11.3333 5.33496 11.3333C2.38944 11.3333 0.00162745 8.94552 0.00162745 6ZM5.33496 42.2222L4.71549 43.0073L4.33496 42.707V42.2222H5.33496ZM58.2777 84V85H57.9307L57.6582 84.785L58.2777 84ZM440.917 84L441.504 84.8102L441.241 85H440.917V84ZM498.665 42.2222H499.665V42.733L499.251 43.0324L498.665 42.2222ZM498.665 6L504.439 16H492.892L498.665 6ZM6.33496 6V42.2222H4.33496V6H6.33496ZM5.95443 41.4372L58.8972 83.215L57.6582 84.785L4.71549 43.0073L5.95443 41.4372ZM58.2777 83H440.917V85H58.2777V83ZM440.331 83.1898L498.079 41.412L499.251 43.0324L441.504 84.8102L440.331 83.1898ZM497.665 42.2222V15H499.665V42.2222H497.665Z" fill="#303063"/>
</svg>
