<svg width="118" height="59" viewBox="0 0 118 59" fill="none" xmlns="http://www.w3.org/2000/svg">
    <g clip-path="url(#clip0_747_47370)">
        <mask id="mask0_747_47370" style="mask-type:luminance" maskUnits="userSpaceOnUse" x="-10" y="-2" width="128" height="64">
            <path d="M118 -2H-10V62H118V-2Z" fill="white" />
        </mask>
        <g mask="url(#mask0_747_47370)">
            <path d="M22.661 49.9726C24.3967 50.1177 26.1904 50.1055 27.9473 50.0936C28.6288 50.0889 29.3047 50.0843 29.9695 50.089C30.0463 50.0874 30.1233 50.0859 30.2005 50.0844C30.8981 50.071 31.6169 50.0571 32.4378 49.9761C32.001 49.4021 31.4439 48.9654 30.8345 48.6314L30.7451 48.5824L30.7563 48.4811C31.2135 44.3249 33.89 40.7974 37.713 39.6925M22.661 49.9726L49.2613 24.8157C49.6283 24.9209 49.5187 25.3552 49.4163 25.7607C49.3813 25.8995 49.3471 26.0349 49.3331 26.1526L49.1819 26.1346C49.1819 26.1346 49.1819 26.1346 49.1819 26.1346C48.7693 29.6015 47.5625 32.5089 45.6328 34.789C43.703 37.069 41.0436 38.7297 37.713 39.6925M22.661 49.9726C23.215 49.2776 23.9236 48.7524 24.7113 48.3953L24.7832 48.3627L24.798 48.2852C25.2518 45.9138 25.8547 43.5821 26.81 41.3318C28.1174 38.2552 29.8552 35.5499 32.7977 33.8092C34.1128 33.0356 35.5497 32.7429 37.0309 32.4413C37.0579 32.4358 37.0848 32.4303 37.1118 32.4248L37.112 32.4248C38.8663 32.0657 40.4722 31.3788 41.9561 30.3613L41.9561 30.3613C42.0259 30.3134 42.0976 30.2613 42.169 30.2094L42.171 30.2079C42.2437 30.1551 42.3165 30.1022 42.3904 30.0513C42.5389 29.9489 42.6853 29.859 42.8294 29.7999C42.9729 29.7411 43.1059 29.7164 43.2307 29.7347C43.3527 29.7526 43.4822 29.8139 43.6171 29.955C43.7692 30.1144 43.8317 30.2608 43.8458 30.394C43.8601 30.5292 43.8262 30.6682 43.7549 30.8141C43.6833 30.9607 43.5777 31.1067 43.4586 31.2527C43.3993 31.3254 43.338 31.3966 43.2769 31.4674L43.2678 31.4779C43.2102 31.5446 43.1527 31.6112 43.0997 31.676L43.0995 31.6762C42.1159 32.8822 40.8291 33.7114 39.5157 34.5579C39.2969 34.6988 39.0775 34.8403 38.8585 34.984L38.9588 35.2627C41.3847 34.9955 43.2632 33.7148 44.8552 31.9789C46.4586 30.2348 47.5756 28.1976 48.4285 26.001L48.4287 26.0004C48.4588 25.9222 48.4889 25.8308 48.519 25.7396C48.5354 25.6902 48.5517 25.6408 48.5679 25.5935C48.6164 25.4528 48.668 25.3198 48.7307 25.209C48.7939 25.0976 48.8613 25.0214 48.9348 24.9802C49.0028 24.9421 49.091 24.9253 49.2194 24.9621L22.661 49.9726ZM37.713 39.6925L37.7552 39.8388L37.7129 39.6925C37.7129 39.6925 37.7129 39.6925 37.713 39.6925Z" fill="#303063" stroke="#303063" stroke-width="0.304625" />
        </g>
        <mask id="mask1_747_47370" style="mask-type:luminance" maskUnits="userSpaceOnUse" x="-10" y="-2" width="128" height="64">
            <path d="M118 -2H-10V62H118V-2Z" fill="white" />
        </mask>
        <g mask="url(#mask1_747_47370)">
            <path d="M7.03518 24.7287C7.06435 24.6931 7.09984 24.6559 7.14306 24.617C7.49952 25.1279 7.72099 25.669 7.94122 26.2071C7.97912 26.2997 8.01699 26.3923 8.05551 26.4845C9.30736 29.4685 11.1304 31.9976 13.877 33.7583C14.7068 34.2892 15.5978 34.7145 16.6251 34.7528C16.6827 34.7941 16.74 34.8356 16.7971 34.8772L16.8869 34.7541L16.8827 34.6019C16.8133 34.6038 16.7445 34.6038 16.6762 34.6021C16.3642 34.3788 16.0492 34.162 15.7349 33.9456C15.0918 33.5029 14.4516 33.0622 13.8462 32.573C13.1484 32.0114 12.6046 31.3429 12.2147 30.5401C12.0573 30.2162 11.9376 29.8613 12.2591 29.5684C12.5601 29.2927 12.9329 29.3479 13.2373 29.5305M7.03518 24.7287C7.00576 24.6859 6.97538 24.6434 6.94396 24.601C6.72136 24.8514 6.73826 25.0694 6.75343 25.2651C6.75423 25.2754 6.75502 25.2856 6.75577 25.2958M7.03518 24.7287C7.3709 25.2167 7.5823 25.7328 7.79934 26.2627C7.83746 26.3558 7.87577 26.4493 7.91495 26.5432L7.91505 26.5434C9.17565 29.5483 11.016 32.1052 13.7947 33.8866L13.7949 33.8867C14.7045 34.4685 15.7071 34.9386 16.891 34.9064L17.3375 34.8942L16.9766 34.6311C16.5886 34.3482 16.1994 34.0803 15.8132 33.8145C15.1743 33.3748 14.5439 32.941 13.9419 32.4546L13.9417 32.4544C13.2606 31.9061 12.7313 31.2552 12.3517 30.4735L12.3517 30.4735C12.274 30.3136 12.217 30.1674 12.2094 30.034C12.2025 29.9117 12.2365 29.795 12.3617 29.681L12.362 29.6807C12.5937 29.4685 12.8858 29.4973 13.1587 29.661M7.03518 24.7287C6.96416 24.8153 6.93059 24.8922 6.914 24.9602C6.89039 25.0569 6.8972 25.1465 6.90555 25.2565C6.90621 25.265 6.90687 25.2737 6.90752 25.2826M6.75577 25.2958C7.19016 29.6649 8.84561 33.4413 12.177 36.3598M6.75577 25.2958L6.90734 25.2807C6.9074 25.2813 6.90746 25.282 6.90752 25.2826M6.75577 25.2958L6.90767 25.2845C6.90762 25.2839 6.90757 25.2832 6.90752 25.2826M12.177 36.3598C13.9693 37.9276 16.1002 38.8717 18.3166 39.6884M12.177 36.3598L12.2773 36.2452C12.2773 36.2452 12.2774 36.2452 12.2774 36.2453M12.177 36.3598L12.2774 36.2453M18.3166 39.6884C20.4543 40.474 22.5339 41.4319 23.7207 43.5958C23.7525 43.654 23.7759 43.7234 23.7994 43.7932C23.8594 43.9714 23.9204 44.1524 24.1243 44.1574C24.404 44.1654 24.4659 43.9396 24.5251 43.7237C24.5427 43.6597 24.56 43.5966 24.5827 43.5406C24.7399 43.1526 24.8929 42.7627 25.0459 42.373C25.6252 40.8973 26.2041 39.4227 27.0077 38.0517C27.295 37.5624 27.2882 37.142 26.9393 36.6975C25.1983 34.4819 23.1017 32.8039 20.2593 32.3112C18.3542 31.9838 16.4867 31.56 14.7936 30.5883C14.5077 30.4235 14.2407 30.2291 13.9737 30.0348C13.7329 29.8594 13.492 29.6841 13.2373 29.5305M18.3166 39.6884L18.3691 39.5454C18.3691 39.5454 18.3692 39.5454 18.3692 39.5454M18.3166 39.6884L18.3692 39.5454C18.3692 39.5454 18.3692 39.5454 18.3692 39.5454M13.2373 29.5305L13.159 29.6611C13.1589 29.6611 13.1588 29.661 13.1587 29.661M13.2373 29.5305L13.1587 29.6609C13.1587 29.6609 13.1587 29.6609 13.1587 29.661M13.1587 29.661L18.3692 39.5454M13.1587 29.661C13.4076 29.8111 13.6435 29.9828 13.8857 30.1591C13.8982 30.1682 13.9107 30.1773 13.9233 30.1865C14.1768 30.3709 14.4377 30.5589 14.7175 30.7203L14.7178 30.7204C16.4353 31.7061 18.3252 32.1334 20.2334 32.4612C23.0256 32.9453 25.0921 34.5933 26.8195 36.7916C26.9795 36.9954 27.0522 37.1818 27.0599 37.3642C27.0677 37.5479 27.0104 37.7463 26.8764 37.9745L26.8763 37.9746C26.0661 39.357 25.4816 40.8459 24.9018 42.3231C24.7494 42.7114 24.5973 43.0989 24.4415 43.4834L13.1587 29.661ZM6.90752 25.2826C7.33905 29.6193 8.98031 33.3569 12.2774 36.2453M12.2774 36.2453C14.0479 37.794 16.1571 38.7304 18.3692 39.5454" fill="#303063" stroke="#303063" stroke-width="0.304625" />
        </g>
        <mask id="mask2_747_47370" style="mask-type:luminance" maskUnits="userSpaceOnUse" x="-10" y="-2" width="128" height="64">
            <path d="M118 -2H-10V62H118V-2Z" fill="white" />
        </mask>
        <g mask="url(#mask2_747_47370)">
            <path d="M19.2207 22.5806C19.5012 22.6978 19.7645 22.8287 20.0108 22.9665C20.5102 23.2456 20.9514 23.5557 21.3516 23.8934C22.1554 24.5653 22.795 25.3406 23.308 26.1917C23.8245 27.0428 24.2144 27.9662 24.447 28.993C24.5599 29.5064 24.6317 30.044 24.6488 30.6194C24.6557 30.9054 24.6522 31.2017 24.6283 31.5084C24.6009 31.8185 24.5633 32.132 24.4744 32.4766C23.4791 30.6848 22.4016 28.9379 21.2524 27.2426C22.2511 29.0378 23.3251 30.7813 24.4744 32.4766C24.1323 32.3939 23.8348 32.2871 23.5509 32.1699C23.2704 32.0528 23.007 31.9218 22.7574 31.784C22.258 31.5049 21.8168 31.1914 21.4132 30.8571C20.6128 30.1818 19.9732 29.4065 19.4601 28.5554C18.9471 27.7043 18.5572 26.7775 18.3314 25.7506C18.2185 25.2407 18.1467 24.6963 18.1296 24.1277C18.1194 23.8383 18.1262 23.5454 18.1501 23.2387C18.1741 22.9321 18.2151 22.6185 18.2972 22.2705C18.6427 22.3532 18.9368 22.4635 19.2207 22.5806Z" fill="#0071BC" />
        </g>
        <mask id="mask3_747_47370" style="mask-type:luminance" maskUnits="userSpaceOnUse" x="-10" y="-2" width="128" height="64">
            <path d="M118 -2H-10V62H118V-2Z" fill="white" />
        </mask>
        <g mask="url(#mask3_747_47370)">
            <path d="M21.2894 27.2852C21.5631 27.709 21.8504 28.1293 22.1377 28.5532C22.425 28.977 22.7157 29.4008 22.9928 29.8315C23.2732 30.2622 23.54 30.6964 23.7897 31.1374C24.0394 31.5785 24.2686 32.0264 24.4635 32.4812C24.1454 32.085 23.8479 31.6715 23.5708 31.2442C23.2938 30.8204 23.0304 30.3828 22.7773 29.9418C22.531 29.5042 22.2608 29.0597 22.0009 28.6152C21.7478 28.1707 21.4981 27.7228 21.2894 27.2852Z" fill="white" />
        </g>
        <mask id="mask4_747_47370" style="mask-type:luminance" maskUnits="userSpaceOnUse" x="-10" y="-2" width="128" height="64">
            <path d="M118 -2H-10V62H118V-2Z" fill="white" />
        </mask>
        <g mask="url(#mask4_747_47370)">
            <path d="M21.0571 26.2441C21.1973 26.3027 21.3273 26.3682 21.4538 26.4371C21.7035 26.5784 21.9224 26.7334 22.1242 26.9023C22.5244 27.2399 22.8459 27.6259 23.1025 28.0497C23.359 28.4735 23.5574 28.9352 23.6702 29.4521C23.7284 29.707 23.7626 29.9793 23.7694 30.2652C23.7728 30.4065 23.7728 30.5547 23.7592 30.7097C23.7455 30.8648 23.725 31.0198 23.6839 31.1956C23.1845 30.2997 22.6475 29.4279 22.0729 28.5803C22.5723 29.4762 23.1093 30.3479 23.6839 31.1956C23.5129 31.1542 23.3624 31.1025 23.2222 31.0405C23.0819 30.9819 22.9485 30.9165 22.8254 30.8476C22.5757 30.7097 22.3534 30.5512 22.155 30.3858C21.7548 30.0482 21.4367 29.6588 21.1802 29.235C20.9237 28.8112 20.7287 28.346 20.6159 27.8326C20.5577 27.5776 20.5235 27.3054 20.5132 27.0194C20.5098 26.8747 20.5132 26.73 20.5235 26.5749C20.5372 26.4233 20.5543 26.2648 20.5988 26.0925C20.7664 26.1304 20.9134 26.1856 21.0571 26.2441Z" fill="#0071BC" />
        </g>
        <mask id="mask5_747_47370" style="mask-type:luminance" maskUnits="userSpaceOnUse" x="-10" y="-2" width="128" height="64">
            <path d="M118 -2H-10V62H118V-2Z" fill="white" />
        </mask>
        <g mask="url(#mask5_747_47370)">
            <path d="M21.3236 27.3298C21.587 27.7502 21.8777 28.1671 22.1753 28.5841C22.4728 29.001 22.7773 29.4179 23.068 29.8417C23.3587 30.2656 23.6323 30.6928 23.8718 31.1339C24.1112 31.5749 24.3164 32.0228 24.4601 32.488C24.1078 32.1159 23.8034 31.7162 23.5229 31.2993C23.2458 30.8789 22.9962 30.4413 22.7602 29.9933C22.5344 29.5557 22.2574 29.1078 21.9974 28.6564C21.7375 28.2085 21.4912 27.7605 21.3236 27.3298Z" fill="white" />
        </g>
        <mask id="mask6_747_47370" style="mask-type:luminance" maskUnits="userSpaceOnUse" x="-10" y="-2" width="128" height="64">
            <path d="M118 -2H-10V62H118V-2Z" fill="white" />
        </mask>
        <g mask="url(#mask6_747_47370)">
            <path d="M19.9763 13.6336C20.2431 13.7887 20.4894 13.9575 20.7185 14.1298C21.1803 14.4778 21.5839 14.8465 21.943 15.2427C22.6613 16.0284 23.1983 16.8898 23.6053 17.8132C24.0123 18.7367 24.2825 19.7187 24.3783 20.78C24.4228 21.3106 24.4228 21.8619 24.3646 22.4408C24.3338 22.7302 24.2894 23.0231 24.2244 23.3298C24.156 23.6364 24.0773 23.9465 23.9405 24.2808C23.1778 22.3443 22.3295 20.4457 21.3992 18.5885C22.1653 20.525 23.0102 22.4201 23.9405 24.2773C23.6087 24.1498 23.3248 24.0017 23.0546 23.8432C22.7878 23.6881 22.5416 23.5193 22.309 23.3504C21.8472 23.0024 21.4402 22.6303 21.0845 22.2409C20.3697 21.4553 19.8327 20.5904 19.4291 19.667C19.0289 18.747 18.7587 17.7615 18.6663 16.6968C18.6184 16.1696 18.6184 15.6149 18.6766 15.0395C18.7039 14.75 18.7518 14.4571 18.8168 14.1505C18.8818 13.8473 18.9639 13.5337 19.0939 13.1995C19.4256 13.327 19.7061 13.4786 19.9763 13.6336Z" fill="#0071BC" />
        </g>
        <mask id="mask7_747_47370" style="mask-type:luminance" maskUnits="userSpaceOnUse" x="-10" y="-2" width="128" height="64">
            <path d="M118 -2H-10V62H118V-2Z" fill="white" />
        </mask>
        <g mask="url(#mask7_747_47370)">
            <path d="M21.4298 18.6384C21.6487 19.1001 21.8813 19.5619 22.1139 20.027C22.3465 20.4922 22.5791 20.9574 22.8048 21.426C23.0271 21.8946 23.2426 22.3666 23.4341 22.8422C23.6257 23.3177 23.7967 23.7966 23.9369 24.2824C23.6701 23.8414 23.4273 23.3866 23.205 22.9214C22.9827 22.4562 22.7774 21.9842 22.5825 21.5087C22.3909 21.0366 22.1789 20.5542 21.9771 20.0718C21.7718 19.586 21.5803 19.107 21.4298 18.6384Z" fill="white" />
        </g>
        <mask id="mask8_747_47370" style="mask-type:luminance" maskUnits="userSpaceOnUse" x="-10" y="-2" width="128" height="64">
            <path d="M118 -2H-10V62H118V-2Z" fill="white" />
        </mask>
        <g mask="url(#mask8_747_47370)">
            <path d="M21.3339 17.5599C21.4673 17.6391 21.5904 17.7218 21.7067 17.808C21.9393 17.9803 22.1377 18.1663 22.319 18.3627C22.6781 18.7555 22.9483 19.1862 23.1501 19.648C23.3519 20.1097 23.4887 20.599 23.5366 21.1296C23.5606 21.3949 23.5606 21.6706 23.5298 21.96C23.5161 22.1047 23.4922 22.2529 23.4614 22.4045C23.4272 22.5561 23.3861 22.7112 23.3211 22.88C22.9415 21.9118 22.5139 20.9642 22.0488 20.0373C22.4319 21.0056 22.856 21.9531 23.3211 22.88C23.1536 22.818 23.0133 22.7422 22.8765 22.6629C22.7431 22.5871 22.62 22.501 22.5037 22.4148C22.2711 22.2426 22.0693 22.0565 21.8914 21.8601C21.5323 21.4673 21.2655 21.0331 21.0637 20.5714C20.8619 20.1097 20.7285 19.6204 20.6806 19.0863C20.6567 18.821 20.6567 18.5453 20.6875 18.2594C20.7012 18.1146 20.7251 17.9665 20.7559 17.8149C20.7867 17.6632 20.8277 17.5082 20.8927 17.3394C21.0569 17.4083 21.1971 17.4806 21.3339 17.5599Z" fill="#0071BC" />
        </g>
        <mask id="mask9_747_47370" style="mask-type:luminance" maskUnits="userSpaceOnUse" x="-10" y="-2" width="128" height="64">
            <path d="M118 -2H-10V62H118V-2Z" fill="white" />
        </mask>
        <g mask="url(#mask9_747_47370)">
            <path d="M21.4572 18.6873C21.6658 19.1455 21.9018 19.6004 22.1446 20.0621C22.3875 20.5204 22.6372 20.9821 22.8732 21.4438C23.1092 21.909 23.3281 22.3741 23.5094 22.8496C23.6906 23.3217 23.8377 23.8006 23.9232 24.2899C23.6222 23.8696 23.3657 23.4285 23.1434 22.9702C22.9211 22.512 22.7261 22.0365 22.5482 21.5575C22.3772 21.0889 22.1617 20.5996 21.9599 20.1138C21.7581 19.621 21.57 19.1386 21.4572 18.6873Z" fill="white" />
        </g>
        <mask id="mask10_747_47370" style="mask-type:luminance" maskUnits="userSpaceOnUse" x="-10" y="-2" width="128" height="64">
            <path d="M118 -2H-10V62H118V-2Z" fill="white" />
        </mask>
        <g mask="url(#mask10_747_47370)">
            <path d="M10.8125 19.8709C11.1306 19.9639 11.4316 20.0708 11.7155 20.1914C12.2867 20.4326 12.8031 20.7117 13.2786 21.0287C14.2294 21.6558 15.0161 22.4138 15.6762 23.2683C16.3398 24.1229 16.8768 25.0739 17.2496 26.1558C17.4343 26.6968 17.578 27.2688 17.6669 27.889C17.7113 28.1957 17.7421 28.5161 17.7524 28.8503C17.7627 29.188 17.7592 29.5326 17.7045 29.9151C16.4082 28.1026 15.0298 26.3488 13.5761 24.657C14.8759 26.4728 16.2509 28.2232 17.7045 29.9151C17.3248 29.8703 16.9897 29.791 16.6681 29.698C16.35 29.6049 16.0491 29.4981 15.7617 29.381C15.1871 29.1398 14.6706 28.8607 14.1952 28.5471C13.2444 27.9166 12.4611 27.1551 11.801 26.3005C11.1443 25.446 10.6073 24.4916 10.2344 23.4062C10.0497 22.8687 9.90609 22.2898 9.81716 21.6764C9.7727 21.3663 9.74192 21.0493 9.73166 20.7151C9.72139 20.3809 9.72482 20.0363 9.7727 19.6504C10.1592 19.6986 10.491 19.7779 10.8125 19.8709Z" fill="#0071BC" />
        </g>
        <mask id="mask11_747_47370" style="mask-type:luminance" maskUnits="userSpaceOnUse" x="-10" y="-2" width="128" height="64">
            <path d="M118 -2H-10V62H118V-2Z" fill="white" />
        </mask>
        <g mask="url(#mask11_747_47370)">
            <path d="M13.625 24.7051C13.9739 25.1289 14.3364 25.5493 14.6956 25.9731C15.0581 26.3969 15.4207 26.8207 15.773 27.2514C16.1253 27.6821 16.4707 28.1163 16.7957 28.5608C17.1206 29.0053 17.425 29.4601 17.6986 29.9287C17.3087 29.5359 16.9393 29.1224 16.587 28.6986C16.2347 28.2748 15.8995 27.8372 15.5712 27.3893C15.2497 26.9482 14.9042 26.5037 14.5656 26.0523C14.2372 25.6044 13.9089 25.153 13.625 24.7051Z" fill="white" />
        </g>
        <mask id="mask12_747_47370" style="mask-type:luminance" maskUnits="userSpaceOnUse" x="-10" y="-2" width="128" height="64">
            <path d="M118 -2H-10V62H118V-2Z" fill="white" />
        </mask>
        <g mask="url(#mask12_747_47370)">
            <path d="M13.2482 23.6049C13.4056 23.6497 13.5561 23.7048 13.6997 23.7668C13.987 23.8874 14.2436 24.0253 14.483 24.1838C14.9584 24.4973 15.3518 24.8763 15.6835 25.3036C16.0153 25.7309 16.2855 26.2064 16.4702 26.7473C16.5626 27.0161 16.6344 27.3055 16.6789 27.6122C16.6994 27.7673 16.7165 27.9258 16.7233 28.0946C16.7302 28.2634 16.7267 28.4357 16.6994 28.6287C16.0495 27.7225 15.362 26.8438 14.6369 25.9996C15.2868 26.9058 15.9743 27.7845 16.6994 28.6287C16.5078 28.6046 16.3437 28.5667 16.1829 28.5184C16.0256 28.4736 15.8751 28.4185 15.7314 28.3599C15.4441 28.2428 15.1842 28.1015 14.9482 27.943C14.4727 27.6294 14.0828 27.247 13.751 26.8197C13.4227 26.3924 13.1559 25.9169 12.9678 25.3725C12.8754 25.1038 12.8036 24.8143 12.7591 24.5077C12.7352 24.3526 12.7215 24.1941 12.7147 24.0253C12.7078 23.8564 12.7112 23.6841 12.7352 23.4946C12.9199 23.5187 13.0875 23.5601 13.2482 23.6049Z" fill="#0071BC" />
        </g>
        <mask id="mask13_747_47370" style="mask-type:luminance" maskUnits="userSpaceOnUse" x="-10" y="-2" width="128" height="64">
            <path d="M118 -2H-10V62H118V-2Z" fill="white" />
        </mask>
        <g mask="url(#mask13_747_47370)">
            <path d="M13.6687 24.749C14.0039 25.1728 14.3665 25.5863 14.7359 26.0032C15.1053 26.4167 15.4815 26.8337 15.8475 27.254C16.21 27.6744 16.5589 28.1051 16.8736 28.5496C17.1882 28.9941 17.4687 29.4524 17.6945 29.9348C17.2772 29.573 16.8975 29.1733 16.5486 28.7529C16.1998 28.3325 15.8748 27.8915 15.5602 27.4367C15.2592 26.9956 14.9069 26.5442 14.5683 26.0928C14.2331 25.6415 13.9115 25.1901 13.6687 24.749Z" fill="white" />
        </g>
        <mask id="mask14_747_47370" style="mask-type:luminance" maskUnits="userSpaceOnUse" x="-10" y="-2" width="128" height="64">
            <path d="M118 -2H-10V62H118V-2Z" fill="white" />
        </mask>
        <g mask="url(#mask14_747_47370)">
            <path d="M13.8946 14.5918C14.0725 14.6642 14.2401 14.7469 14.4008 14.833C14.7189 15.0053 15.0028 15.1983 15.2593 15.4119C15.7758 15.8323 16.1863 16.3181 16.5215 16.8556C16.8566 17.3897 17.1132 17.9755 17.2671 18.6267C17.3423 18.9506 17.3936 19.2917 17.4073 19.657C17.4142 19.8396 17.4142 20.0257 17.4005 20.2221C17.3868 20.4185 17.3629 20.6183 17.3116 20.8388C16.6651 19.7087 15.9674 18.6095 15.2217 17.5413C15.8716 18.6715 16.5659 19.7707 17.3116 20.8388C17.0926 20.7906 16.9045 20.7251 16.7233 20.6528C16.5454 20.5804 16.3778 20.5012 16.217 20.415C15.8989 20.2427 15.6151 20.0463 15.3585 19.8361C14.8455 19.4158 14.4316 18.9265 14.0998 18.389C13.7681 17.8549 13.5115 17.2691 13.3576 16.6179C13.2824 16.294 13.2311 15.9494 13.214 15.5876C13.2071 15.405 13.2071 15.2189 13.2208 15.0225C13.2345 14.8261 13.255 14.6263 13.3063 14.4058C13.5252 14.454 13.7133 14.5195 13.8946 14.5918Z" fill="#0071BC" />
        </g>
        <mask id="mask15_747_47370" style="mask-type:luminance" maskUnits="userSpaceOnUse" x="-10" y="-2" width="128" height="64">
            <path d="M118 -2H-10V62H118V-2Z" fill="white" />
        </mask>
        <g mask="url(#mask15_747_47370)">
            <path d="M15.2487 17.5603C15.4368 17.8256 15.6283 18.0875 15.813 18.3528C15.9054 18.4803 15.9943 18.6112 16.0866 18.7387C16.1824 18.8766 16.2748 19.0109 16.3671 19.1488C16.5416 19.4106 16.7228 19.6691 16.8802 19.9413C16.8836 19.9482 16.887 19.955 16.8904 19.9619C17.0204 20.2031 17.2598 20.6235 17.3009 20.8371C17.0785 20.5994 16.8802 20.3444 16.6989 20.0791C16.5176 19.8138 16.35 19.5381 16.1893 19.2521C16.0456 18.9971 15.8677 18.7077 15.6967 18.4183C15.6899 18.4045 15.683 18.3942 15.6762 18.3804C15.5086 18.0909 15.3478 17.8049 15.2487 17.5603Z" fill="white" />
        </g>
        <mask id="mask16_747_47370" style="mask-type:luminance" maskUnits="userSpaceOnUse" x="-10" y="-2" width="128" height="64">
            <path d="M118 -2H-10V62H118V-2Z" fill="white" />
        </mask>
        <g mask="url(#mask16_747_47370)">
            <path d="M15.092 16.9033C15.1809 16.9378 15.2664 16.9791 15.3451 17.0239C15.5058 17.11 15.6461 17.2065 15.776 17.3133C16.0326 17.5235 16.2412 17.7682 16.4088 18.0335C16.5764 18.3023 16.7029 18.5917 16.7816 18.919C16.8192 19.081 16.8432 19.2533 16.8534 19.4359C16.8569 19.5255 16.8569 19.6219 16.85 19.7184C16.8432 19.8184 16.8329 19.9183 16.8056 20.0285C16.4806 19.4634 16.1352 18.9121 15.7623 18.3781C16.0873 18.9431 16.4362 19.4945 16.8056 20.0285C16.6961 20.0044 16.6003 19.97 16.5114 19.9355C16.4225 19.8976 16.337 19.8597 16.2583 19.8149C16.0975 19.7288 15.9573 19.6323 15.8273 19.5255C15.5708 19.3153 15.3656 19.0706 15.198 18.8019C15.0304 18.5331 14.9038 18.2402 14.8286 17.9163C14.791 17.7544 14.767 17.5821 14.7568 17.4029C14.7533 17.3133 14.7533 17.2169 14.7602 17.1204C14.767 17.0239 14.7773 16.924 14.8046 16.8137C14.9073 16.8344 15.003 16.8689 15.092 16.9033Z" fill="#0071BC" />
        </g>
        <mask id="mask17_747_47370" style="mask-type:luminance" maskUnits="userSpaceOnUse" x="-10" y="-2" width="128" height="64">
            <path d="M118 -2H-10V62H118V-2Z" fill="white" />
        </mask>
        <g mask="url(#mask17_747_47370)">
            <path d="M15.2731 17.5913C15.557 17.9772 15.8511 18.3597 16.1384 18.7456C16.4257 19.1315 16.7062 19.5209 16.9593 19.924C17.0448 20.1135 17.3766 20.6993 17.2945 20.8475C17.038 20.6373 16.8259 20.3961 16.6412 20.1342C16.4565 19.8723 16.2992 19.5932 16.1555 19.3004C16.0392 19.0557 15.8443 18.7387 15.663 18.4252C15.4851 18.1116 15.321 17.8084 15.2731 17.5913Z" fill="white" />
        </g>
        <mask id="mask18_747_47370" style="mask-type:luminance" maskUnits="userSpaceOnUse" x="-10" y="-2" width="128" height="64">
            <path d="M118 -2H-10V62H118V-2Z" fill="white" />
        </mask>
        <g mask="url(#mask18_747_47370)">
            <path d="M38.2514 22.5806C37.9709 22.6978 37.7076 22.8287 37.4613 22.9665C36.9619 23.2456 36.5207 23.5557 36.1205 23.8934C35.3167 24.5653 34.6771 25.3406 34.1641 26.1917C33.6476 27.0428 33.2577 27.9662 33.0251 28.993C32.9122 29.5064 32.8404 30.044 32.8233 30.6194C32.8165 30.9054 32.8199 31.2017 32.8438 31.5084C32.8712 31.8185 32.9088 32.132 32.9977 32.4766C33.9931 30.6848 35.0705 28.9379 36.2197 27.2426C35.221 29.0378 34.147 30.7813 32.9977 32.4766C33.3398 32.3939 33.6373 32.2871 33.9212 32.1699C34.2017 32.0528 34.4651 31.9218 34.7148 31.784C35.2141 31.5049 35.6554 31.1914 36.059 30.8571C36.8593 30.1818 37.4989 29.4065 38.012 28.5554C38.525 27.7043 38.915 26.7775 39.1407 25.7506C39.257 25.2407 39.3254 24.6963 39.3425 24.1277C39.3528 23.8383 39.3459 23.5454 39.322 23.2387C39.298 22.9321 39.257 22.6185 39.1749 22.2705C38.8329 22.3532 38.5353 22.4635 38.2514 22.5806Z" fill="#0071BC" />
        </g>
        <mask id="mask19_747_47370" style="mask-type:luminance" maskUnits="userSpaceOnUse" x="-10" y="-2" width="128" height="64">
            <path d="M118 -2H-10V62H118V-2Z" fill="white" />
        </mask>
        <g mask="url(#mask19_747_47370)">
            <path d="M36.2022 27.2986C35.9491 27.7362 35.6994 28.1807 35.4497 28.6286C35.2 29.0766 34.9503 29.5245 34.6904 29.969C34.4339 30.41 34.1671 30.8476 33.8832 31.268C33.6027 31.6884 33.3052 32.095 32.9871 32.474C33.1991 32.0088 33.4351 31.5609 33.6917 31.1198C33.9448 30.6788 34.2184 30.2515 34.4989 29.8277C34.7759 29.4108 35.053 28.9697 35.3334 28.539C35.6173 28.1049 35.9046 27.6811 36.2022 27.2986Z" fill="white" />
        </g>
        <mask id="mask20_747_47370" style="mask-type:luminance" maskUnits="userSpaceOnUse" x="-10" y="-2" width="128" height="64">
            <path d="M118 -2H-10V62H118V-2Z" fill="white" />
        </mask>
        <g mask="url(#mask20_747_47370)">
            <path d="M36.4181 26.2441C36.2779 26.3027 36.1479 26.3682 36.0213 26.4371C35.7717 26.5784 35.5527 26.7334 35.3509 26.9023C34.9508 27.2399 34.6293 27.6259 34.3727 28.0497C34.1162 28.4735 33.9178 28.9352 33.805 29.4521C33.7468 29.707 33.7126 29.9793 33.7058 30.2652C33.7023 30.4065 33.7023 30.5547 33.716 30.7097C33.7297 30.8648 33.7502 31.0198 33.7913 31.1956C34.2906 30.2997 34.8276 29.4279 35.4023 28.5803C34.9029 29.4762 34.3659 30.3479 33.7913 31.1956C33.9623 31.1542 34.1128 31.1025 34.253 31.0405C34.3933 30.9819 34.5266 30.9165 34.6498 30.8476C34.8995 30.7097 35.1218 30.5512 35.3202 30.3858C35.7203 30.0482 36.0384 29.6588 36.295 29.235C36.5515 28.8112 36.7465 28.346 36.8593 27.8326C36.9175 27.5776 36.9517 27.3054 36.9619 27.0194C36.9654 26.8747 36.9619 26.73 36.9517 26.5749C36.938 26.4233 36.9209 26.2648 36.8764 26.0925C36.7088 26.1304 36.5583 26.1856 36.4181 26.2441Z" fill="#0071BC" />
        </g>
        <mask id="mask21_747_47370" style="mask-type:luminance" maskUnits="userSpaceOnUse" x="-10" y="-2" width="128" height="64">
            <path d="M118 -2H-10V62H118V-2Z" fill="white" />
        </mask>
        <g mask="url(#mask21_747_47370)">
            <path d="M36.1817 27.3472C35.9217 27.771 35.6823 28.2155 35.4429 28.6703C35.2035 29.1251 34.9675 29.5834 34.7178 30.0314C34.4681 30.4793 34.2116 30.9203 33.9242 31.3304C33.6404 31.7404 33.3291 32.1263 32.9802 32.464C33.1547 31.9816 33.3736 31.5302 33.6267 31.0926C33.8764 30.655 34.1568 30.2381 34.451 29.8246C34.7383 29.4284 35.0188 28.977 35.3026 28.5428C35.5865 28.1087 35.8773 27.6883 36.1817 27.3472Z" fill="white" />
        </g>
        <mask id="mask22_747_47370" style="mask-type:luminance" maskUnits="userSpaceOnUse" x="-10" y="-2" width="128" height="64">
            <path d="M118 -2H-10V62H118V-2Z" fill="white" />
        </mask>
        <g mask="url(#mask22_747_47370)">
            <path d="M37.4985 13.6343C37.2317 13.7894 36.9855 13.9582 36.7563 14.1305C36.2945 14.4785 35.8909 14.8472 35.5318 15.2435C34.8135 16.0291 34.2765 16.8905 33.8695 17.8139C33.4625 18.7374 33.1923 19.7194 33.0965 20.7807C33.052 21.3113 33.052 21.8626 33.1102 22.4415C33.141 22.7309 33.1854 23.0238 33.2504 23.3305C33.3188 23.6371 33.3975 23.9472 33.5343 24.2815C34.2971 22.3484 35.1453 20.4499 36.0756 18.5927C35.3095 20.5291 34.4646 22.4242 33.5343 24.2815C33.8661 24.154 34.1534 24.0058 34.4202 23.8473C34.687 23.6923 34.9332 23.5234 35.1658 23.3546C35.6276 23.0066 36.0346 22.6344 36.3903 22.2451C37.1052 21.4595 37.6422 20.5946 38.0458 19.6711C38.4494 18.7512 38.7162 17.7657 38.8085 16.701C38.8564 16.1738 38.8564 15.619 38.7982 15.0436C38.7709 14.7542 38.723 14.4613 38.658 14.1546C38.593 13.8514 38.5109 13.5378 38.381 13.2036C38.0492 13.3277 37.7687 13.4793 37.4985 13.6343Z" fill="#0071BC" />
        </g>
        <mask id="mask23_747_47370" style="mask-type:luminance" maskUnits="userSpaceOnUse" x="-10" y="-2" width="128" height="64">
            <path d="M118 -2H-10V62H118V-2Z" fill="white" />
        </mask>
        <g mask="url(#mask23_747_47370)">
            <path d="M36.062 18.6472C35.8636 19.1193 35.6755 19.6017 35.4839 20.0841C35.2924 20.5665 35.1008 21.0523 34.899 21.5312C34.6972 22.0102 34.4886 22.4823 34.2628 22.944C34.0371 23.4023 33.7908 23.8502 33.524 24.2775C33.6745 23.7813 33.8558 23.2989 34.0508 22.8234C34.2457 22.3479 34.4646 21.8793 34.6904 21.4175C34.9127 20.9593 35.1316 20.4803 35.3574 20.0117C35.5865 19.5362 35.8157 19.071 36.062 18.6472Z" fill="white" />
        </g>
        <mask id="mask24_747_47370" style="mask-type:luminance" maskUnits="userSpaceOnUse" x="-10" y="-2" width="128" height="64">
            <path d="M118 -2H-10V62H118V-2Z" fill="white" />
        </mask>
        <g mask="url(#mask24_747_47370)">
            <path d="M36.141 17.5599C36.0076 17.6391 35.8845 17.7218 35.7682 17.808C35.5356 17.9803 35.3373 18.1663 35.156 18.3627C34.7968 18.7555 34.5266 19.1862 34.3248 19.648C34.123 20.1097 33.9862 20.599 33.9383 21.1296C33.9144 21.3949 33.9144 21.6706 33.9452 21.96C33.9588 22.1047 33.9828 22.2529 34.0136 22.4045C34.0478 22.5561 34.0888 22.7112 34.1538 22.88C34.5335 21.9118 34.961 20.9642 35.4262 20.0373C35.0431 21.0056 34.619 21.9531 34.1538 22.88C34.3214 22.818 34.4616 22.7422 34.5985 22.6629C34.7318 22.5871 34.855 22.501 34.9713 22.4148C35.2039 22.2426 35.4057 22.0565 35.5835 21.8601C35.9427 21.4673 36.2094 21.0331 36.4112 20.5714C36.613 20.1097 36.7464 19.6204 36.7943 19.0863C36.8183 18.821 36.8183 18.5453 36.7875 18.2594C36.7738 18.1146 36.7499 17.9665 36.7191 17.8149C36.6883 17.6632 36.6472 17.5082 36.5823 17.3394C36.4181 17.4083 36.2744 17.4806 36.141 17.5599Z" fill="#0071BC" />
        </g>
        <mask id="mask25_747_47370" style="mask-type:luminance" maskUnits="userSpaceOnUse" x="-10" y="-2" width="128" height="64">
            <path d="M118 -2H-10V62H118V-2Z" fill="white" />
        </mask>
        <g mask="url(#mask25_747_47370)">
            <path d="M36.051 18.7048C35.8492 19.1631 35.6645 19.6455 35.4832 20.1313C35.3019 20.6172 35.1241 21.1099 34.9359 21.5958C34.7444 22.0782 34.5426 22.5537 34.31 23.005C34.0774 23.4564 33.8175 23.8837 33.5131 24.273C33.6259 23.7665 33.7867 23.2807 33.9816 22.8086C34.1766 22.3366 34.4024 21.8783 34.6418 21.4235C34.8778 20.9859 35.1001 20.4966 35.3259 20.0245C35.5516 19.5525 35.7876 19.0907 36.051 18.7048Z" fill="white" />
        </g>
        <mask id="mask26_747_47370" style="mask-type:luminance" maskUnits="userSpaceOnUse" x="-10" y="-2" width="128" height="64">
            <path d="M118 -2H-10V62H118V-2Z" fill="white" />
        </mask>
        <g mask="url(#mask26_747_47370)">
            <path d="M46.6582 19.8751C46.3401 19.9681 46.0391 20.0749 45.7553 20.1955C45.1841 20.4367 44.6676 20.7158 44.1922 21.0328C43.2413 21.6599 42.4546 22.418 41.7945 23.2725C41.1309 24.127 40.5974 25.078 40.2211 26.16C40.0364 26.701 39.8928 27.2729 39.8038 27.8932C39.7594 28.1998 39.7286 28.5203 39.7183 28.8545C39.7081 29.1922 39.7115 29.5367 39.7662 29.9192C41.0625 28.1068 42.4409 26.3529 43.8946 24.6611C42.5948 26.477 41.2199 28.2274 39.7662 29.9192C40.1459 29.8744 40.4811 29.7952 40.8026 29.7021C41.1207 29.6091 41.4217 29.5023 41.709 29.3851C42.2836 29.1439 42.8001 28.8648 43.2755 28.5513C44.2264 27.9207 45.0096 27.1592 45.6697 26.3047C46.3265 25.4502 46.8634 24.4957 47.2363 23.4103C47.421 22.8728 47.5646 22.2939 47.6535 21.6806C47.698 21.3705 47.7288 21.0535 47.7391 20.7193C47.7493 20.385 47.7459 20.0405 47.698 19.6545C47.3149 19.7028 46.9797 19.782 46.6582 19.8751Z" fill="#0071BC" />
        </g>
        <mask id="mask27_747_47370" style="mask-type:luminance" maskUnits="userSpaceOnUse" x="-10" y="-2" width="128" height="64">
            <path d="M118 -2H-10V62H118V-2Z" fill="white" />
        </mask>
        <g mask="url(#mask27_747_47370)">
            <path d="M43.8632 24.7183C43.5349 25.1593 43.2099 25.6072 42.885 26.0621C42.5601 26.5135 42.2351 26.9683 41.8999 27.4128C41.5647 27.8573 41.2227 28.2949 40.8704 28.7152C40.5147 29.1356 40.1453 29.5388 39.7588 29.9178C40.0495 29.4457 40.3608 28.9909 40.6926 28.5464C41.0209 28.1019 41.3698 27.6712 41.7221 27.2474C42.0744 26.8305 42.4267 26.3894 42.7824 25.9553C43.1347 25.5211 43.4972 25.0973 43.8632 24.7183Z" fill="white" />
        </g>
        <mask id="mask28_747_47370" style="mask-type:luminance" maskUnits="userSpaceOnUse" x="-10" y="-2" width="128" height="64">
            <path d="M118 -2H-10V62H118V-2Z" fill="white" />
        </mask>
        <g mask="url(#mask28_747_47370)">
            <path d="M44.2259 23.6046C44.0686 23.6494 43.9181 23.7046 43.7744 23.7666C43.4871 23.8872 43.2306 24.025 42.9912 24.1835C42.5157 24.4971 42.1224 24.8761 41.7906 25.3034C41.4588 25.7306 41.1886 26.2061 41.0039 26.7471C40.9116 27.0159 40.8398 27.3053 40.7953 27.612C40.7748 27.767 40.7577 27.9255 40.7508 28.0944C40.744 28.2632 40.7474 28.4355 40.7748 28.6284C41.4246 27.7222 42.1121 26.8436 42.8372 25.9994C42.1874 26.9056 41.4999 27.7843 40.7748 28.6284C40.9663 28.6043 41.1305 28.5664 41.2913 28.5182C41.4486 28.4734 41.5991 28.4183 41.7427 28.3597C42.03 28.2425 42.29 28.0978 42.526 27.9428C43.0014 27.6292 43.3914 27.2467 43.7231 26.8195C44.0515 26.3922 44.3183 25.9167 44.5064 25.3723C44.5987 25.1035 44.6706 24.8141 44.715 24.5074C44.739 24.3524 44.7527 24.1939 44.7595 24.025C44.7663 23.8562 44.7629 23.6839 44.739 23.4944C44.5543 23.5185 44.3867 23.5599 44.2259 23.6046Z" fill="#0071BC" />
        </g>
        <mask id="mask29_747_47370" style="mask-type:luminance" maskUnits="userSpaceOnUse" x="-10" y="-2" width="128" height="64">
            <path d="M118 -2H-10V62H118V-2Z" fill="white" />
        </mask>
        <g mask="url(#mask29_747_47370)">
            <path d="M43.8361 24.7756C43.5043 25.2029 43.1862 25.6508 42.8716 26.1091C42.5569 26.5674 42.2422 27.0326 41.9173 27.4839C41.5923 27.9353 41.2572 28.3764 40.9014 28.7864C40.5457 29.1964 40.1661 29.5755 39.7522 29.9097C40.0087 29.417 40.3063 28.9552 40.6312 28.5142C40.9562 28.0731 41.3085 27.6562 41.6744 27.2427C42.0336 26.8465 42.3893 26.3985 42.745 25.9644C43.1007 25.5337 43.4633 25.1133 43.8361 24.7756Z" fill="white" />
        </g>
        <mask id="mask30_747_47370" style="mask-type:luminance" maskUnits="userSpaceOnUse" x="-10" y="-2" width="128" height="64">
            <path d="M118 -2H-10V62H118V-2Z" fill="white" />
        </mask>
        <g mask="url(#mask30_747_47370)">
            <path d="M43.5797 14.5918C43.4018 14.6642 43.2308 14.7469 43.0735 14.833C42.7554 15.0053 42.4715 15.1983 42.215 15.4119C41.6985 15.8323 41.2881 16.3181 40.9529 16.8556C40.6177 17.3897 40.3611 17.9755 40.2072 18.6267C40.132 18.9506 40.0807 19.2917 40.067 19.657C40.0602 19.8396 40.0602 20.0257 40.0738 20.2221C40.0875 20.4185 40.1115 20.6183 40.1628 20.8388C40.8092 19.7087 41.507 18.6095 42.2526 17.5413C41.6027 18.6715 40.9084 19.7707 40.1628 20.8388C40.3817 20.7906 40.5698 20.7251 40.7511 20.6528C40.9289 20.5804 41.0965 20.5012 41.2573 20.415C41.5754 20.2427 41.8593 20.0463 42.1158 19.8361C42.6288 19.4158 43.0427 18.9265 43.3745 18.389C43.7063 17.8549 43.9628 17.2691 44.1167 16.6179C44.1919 16.294 44.2432 15.9494 44.2603 15.5876C44.2672 15.405 44.2672 15.2189 44.2535 15.0225C44.2398 14.8261 44.2193 14.6263 44.168 14.4058C43.9491 14.454 43.761 14.5195 43.5797 14.5918Z" fill="#0071BC" />
        </g>
        <mask id="mask31_747_47370" style="mask-type:luminance" maskUnits="userSpaceOnUse" x="-10" y="-2" width="128" height="64">
            <path d="M118 -2H-10V62H118V-2Z" fill="white" />
        </mask>
        <g mask="url(#mask31_747_47370)">
            <path d="M42.2421 17.5737C42.0847 17.8563 41.9274 18.1423 41.7666 18.4248C41.688 18.5626 41.6093 18.7005 41.534 18.8348C41.452 18.9796 41.3664 19.1243 41.2809 19.2656C41.1202 19.5378 40.9628 19.81 40.785 20.0684C40.7816 20.0753 40.7747 20.0822 40.7713 20.0891C40.6071 20.3096 40.3301 20.7059 40.1556 20.8333C40.2788 20.5301 40.4224 20.2441 40.5866 19.965C40.7508 19.6859 40.9286 19.4172 41.1168 19.1519C41.2844 18.9141 41.4725 18.6281 41.6606 18.3525C41.6674 18.3421 41.6777 18.3283 41.6845 18.318C41.8727 18.0355 42.0642 17.7701 42.2421 17.5737Z" fill="white" />
        </g>
        <mask id="mask32_747_47370" style="mask-type:luminance" maskUnits="userSpaceOnUse" x="-10" y="-2" width="128" height="64">
            <path d="M118 -2H-10V62H118V-2Z" fill="white" />
        </mask>
        <g mask="url(#mask32_747_47370)">
            <path d="M42.3865 16.9033C42.2976 16.9378 42.2121 16.9791 42.1334 17.0239C41.9727 17.11 41.8324 17.2065 41.7025 17.3133C41.4459 17.5235 41.2373 17.7682 41.0697 18.0335C40.9021 18.3023 40.7721 18.5917 40.6969 18.919C40.6593 19.081 40.6353 19.2533 40.625 19.4359C40.6216 19.5255 40.6216 19.6219 40.6285 19.7184C40.6353 19.8184 40.6456 19.9183 40.6729 20.0285C40.9979 19.4634 41.3433 18.9121 41.7161 18.3781C41.3912 18.9431 41.0423 19.4945 40.6729 20.0285C40.7824 20.0044 40.8782 19.97 40.9671 19.9355C41.056 19.8976 41.1415 19.8597 41.2202 19.8149C41.3809 19.7288 41.5212 19.6323 41.6512 19.5255C41.9077 19.3153 42.1129 19.0706 42.2805 18.8019C42.4481 18.5331 42.5747 18.2402 42.6499 17.9163C42.6875 17.7544 42.7115 17.5821 42.7217 17.4029C42.7251 17.3133 42.7252 17.2169 42.7183 17.1204C42.7115 17.0239 42.7012 16.924 42.6738 16.8137C42.5712 16.8344 42.4755 16.8689 42.3865 16.9033Z" fill="#0071BC" />
        </g>
        <mask id="mask33_747_47370" style="mask-type:luminance" maskUnits="userSpaceOnUse" x="-10" y="-2" width="128" height="64">
            <path d="M118 -2H-10V62H118V-2Z" fill="white" />
        </mask>
        <g mask="url(#mask33_747_47370)">
            <path d="M42.2323 17.6091C42.0031 18.0329 41.7842 18.4602 41.5551 18.884C41.3293 19.3078 41.0933 19.7282 40.8368 20.1314C40.7 20.2899 40.3135 20.8377 40.1425 20.8239C40.2245 20.5001 40.3511 20.2072 40.5084 19.9281C40.6658 19.649 40.8539 19.3871 41.0557 19.1321C41.2267 18.9219 41.4319 18.6118 41.6406 18.3155C41.8492 18.0192 42.0579 17.7435 42.2323 17.6091Z" fill="white" />
        </g>
        <mask id="mask34_747_47370" style="mask-type:luminance" maskUnits="userSpaceOnUse" x="-10" y="-2" width="128" height="64">
            <path d="M118 -2H-10V62H118V-2Z" fill="white" />
        </mask>
        <g mask="url(#mask34_747_47370)">
            <path d="M27.6752 16.8827C27.3947 17.2755 27.1519 17.6752 26.933 18.068C26.4952 18.8639 26.16 19.6495 25.9 20.442C25.3801 22.0236 25.1612 23.6017 25.1715 25.1764C25.1817 26.7511 25.4246 28.3258 25.965 29.897C26.2386 30.6791 26.5909 31.4648 27.0424 32.2504C27.2682 32.6397 27.5213 33.0325 27.8086 33.4254C28.0993 33.8182 28.414 34.2075 28.8176 34.5969C28.6705 31.3511 28.6705 28.0983 28.8107 24.8525C28.9578 28.1018 28.9578 31.3476 28.8176 34.5969C29.2109 34.2006 29.5188 33.8044 29.8061 33.4081C30.0831 33.0153 30.3294 32.6156 30.5517 32.2228C30.9895 31.4269 31.3247 30.6378 31.5881 29.8487C32.1045 28.2672 32.3166 26.6891 32.3029 25.1109C32.2892 23.5397 32.043 21.965 31.4957 20.3904C31.2255 19.6082 30.8698 18.8191 30.4217 18.037C30.196 17.6407 29.9429 17.2548 29.6556 16.862C29.3683 16.4692 29.0536 16.0798 28.6568 15.687C28.2635 16.0902 27.9591 16.4864 27.6752 16.8827Z" fill="#0071BC" />
        </g>
        <mask id="mask35_747_47370" style="mask-type:luminance" maskUnits="userSpaceOnUse" x="-10" y="-2" width="128" height="64">
            <path d="M118 -2H-10V62H118V-2Z" fill="white" />
        </mask>
        <g mask="url(#mask35_747_47370)">
            <path d="M28.8212 24.9438C28.8417 25.7467 28.869 26.553 28.893 27.3593C28.9203 28.169 28.9443 28.9787 28.958 29.7885C28.9819 31.4079 28.9614 33.0205 28.8041 34.5986C28.7459 33.8234 28.7083 33.0309 28.6843 32.2315C28.6638 31.4148 28.657 30.5913 28.6638 29.7644C28.6707 28.9581 28.6912 28.1518 28.7185 27.3524C28.7493 26.5392 28.7835 25.7295 28.8212 24.9438Z" fill="white" />
        </g>
        <mask id="mask36_747_47370" style="mask-type:luminance" maskUnits="userSpaceOnUse" x="-10" y="-2" width="128" height="64">
            <path d="M118 -2H-10V62H118V-2Z" fill="white" />
        </mask>
        <g mask="url(#mask36_747_47370)">
            <path d="M28.2497 23.3497C28.1095 23.5461 27.9863 23.746 27.8769 23.9424C27.658 24.3386 27.4904 24.7349 27.3604 25.1311C27.1005 25.9202 26.991 26.7092 26.9979 27.4983C27.0047 28.2874 27.121 29.073 27.3946 29.8586C27.5314 30.2514 27.7059 30.6442 27.9316 31.037C28.0445 31.2334 28.171 31.4298 28.3147 31.6262C28.4584 31.8226 28.6157 32.019 28.8209 32.212C28.7491 30.5891 28.7457 28.9627 28.8175 27.3398C28.8893 28.9662 28.8927 30.5891 28.8209 32.212C29.0159 32.0121 29.1732 31.8157 29.3134 31.6159C29.4537 31.4195 29.5768 31.2196 29.6863 31.0232C29.9086 30.627 30.0762 30.2307 30.2027 29.8379C30.4627 29.0489 30.5687 28.2564 30.5585 27.4707C30.5516 26.6851 30.4285 25.8961 30.1548 25.1104C30.0215 24.7211 29.8436 24.3248 29.6179 23.9355C29.505 23.7391 29.3784 23.5427 29.2348 23.3463C29.0911 23.1499 28.9338 22.9569 28.7354 22.7605C28.5439 22.9535 28.3899 23.1499 28.2497 23.3497Z" fill="#0071BC" />
        </g>
        <mask id="mask37_747_47370" style="mask-type:luminance" maskUnits="userSpaceOnUse" x="-10" y="-2" width="128" height="64">
            <path d="M118 -2H-10V62H118V-2Z" fill="white" />
        </mask>
        <g mask="url(#mask37_747_47370)">
            <path d="M28.8355 25.0317C28.8389 25.8208 28.8662 26.6236 28.9004 27.4299C28.9347 28.2362 28.9757 29.0425 28.9996 29.8488C29.0509 31.4614 29.0373 33.0636 28.7978 34.6004C28.7157 33.8458 28.6679 33.0567 28.6439 32.2539C28.62 31.4476 28.62 30.6275 28.6371 29.8074C28.6679 28.1639 28.7602 26.5272 28.8355 25.0317Z" fill="white" />
        </g>
        <mask id="mask38_747_47370" style="mask-type:luminance" maskUnits="userSpaceOnUse" x="-10" y="-2" width="128" height="64">
            <path d="M118 -2H-10V62H118V-2Z" fill="white" />
        </mask>
        <g mask="url(#mask38_747_47370)">
            <path d="M32.4808 10.1501C32.3406 10.2845 32.2175 10.4258 32.1012 10.5636C31.872 10.8462 31.6805 11.1321 31.5197 11.425C31.1982 12.0108 30.9998 12.6172 30.8904 13.2409C30.7809 13.8646 30.7604 14.502 30.863 15.1636C30.9143 15.4944 30.9964 15.8286 31.1161 16.1732C31.1777 16.3455 31.2495 16.5177 31.3316 16.6935C31.4171 16.8692 31.5129 17.0484 31.6463 17.231C31.8241 15.9389 32.0601 14.6571 32.3508 13.3856C32.173 14.6778 31.937 15.9595 31.6463 17.231C31.831 17.1035 31.9814 16.9691 32.1217 16.8347C32.2585 16.7004 32.3851 16.5625 32.5013 16.4213C32.7305 16.1387 32.922 15.8527 33.0828 15.5598C33.4009 14.9741 33.5993 14.3676 33.7087 13.744C33.8182 13.1238 33.8353 12.4829 33.7327 11.8213C33.6848 11.4939 33.5993 11.1563 33.4796 10.8151C33.418 10.6429 33.3462 10.4706 33.2641 10.2949C33.1786 10.1191 33.0828 9.94339 32.9562 9.75732C32.7715 9.88137 32.6211 10.0157 32.4808 10.1501Z" fill="#0071BC" />
        </g>
        <mask id="mask39_747_47370" style="mask-type:luminance" maskUnits="userSpaceOnUse" x="-10" y="-2" width="128" height="64">
            <path d="M118 -2H-10V62H118V-2Z" fill="white" />
        </mask>
        <g mask="url(#mask39_747_47370)">
            <path d="M32.3543 13.416C32.3132 13.7399 32.2722 14.0604 32.2311 14.3842C32.2106 14.5393 32.1901 14.6978 32.1661 14.8529C32.1422 15.0183 32.1183 15.1836 32.0943 15.349C32.0464 15.6591 32.002 15.9727 31.9336 16.2794C31.9336 16.2863 31.9301 16.2932 31.9267 16.3035C31.8583 16.5723 31.7489 17.0409 31.636 17.2235C31.636 16.8961 31.6633 16.5757 31.7112 16.2553C31.7591 15.9348 31.8241 15.6178 31.8994 15.3008C31.9712 15.0045 32.0362 14.6737 32.1046 14.3532C32.108 14.3429 32.108 14.3326 32.1114 14.3222C32.1832 14.0018 32.2585 13.6882 32.3543 13.416Z" fill="white" />
        </g>
        <mask id="mask40_747_47370" style="mask-type:luminance" maskUnits="userSpaceOnUse" x="-10" y="-2" width="128" height="64">
            <path d="M118 -2H-10V62H118V-2Z" fill="white" />
        </mask>
        <g mask="url(#mask40_747_47370)">
            <path d="M32.231 12.7443C32.1626 12.8132 32.0976 12.8821 32.0429 12.9511C31.9266 13.0923 31.8342 13.2336 31.7522 13.3818C31.5914 13.6746 31.4922 13.9779 31.4375 14.288C31.3828 14.5981 31.3725 14.9185 31.4238 15.2493C31.4477 15.4147 31.4888 15.5835 31.5504 15.7524C31.5811 15.8385 31.6153 15.9247 31.6598 16.0108C31.7043 16.1004 31.7522 16.1865 31.8171 16.2796C31.9061 15.6318 32.0224 14.9909 32.1694 14.3569C32.0805 15.0047 31.9642 15.6456 31.8171 16.2796C31.9095 16.2176 31.9847 16.1486 32.0531 16.0797C32.1216 16.0108 32.1865 15.9419 32.2447 15.873C32.361 15.7317 32.4568 15.587 32.5354 15.4423C32.6962 15.1494 32.7954 14.8462 32.8467 14.5326C32.9014 14.2225 32.9082 13.9021 32.8569 13.5713C32.833 13.4059 32.7919 13.237 32.7304 13.0682C32.6996 12.9821 32.6654 12.8959 32.6209 12.8098C32.5799 12.7202 32.532 12.634 32.467 12.541C32.3747 12.6099 32.2994 12.6754 32.231 12.7443Z" fill="#0071BC" />
        </g>
        <mask id="mask41_747_47370" style="mask-type:luminance" maskUnits="userSpaceOnUse" x="-10" y="-2" width="128" height="64">
            <path d="M118 -2H-10V62H118V-2Z" fill="white" />
        </mask>
        <g mask="url(#mask41_747_47370)">
            <path d="M32.3612 13.4556C32.3065 13.9345 32.262 14.4135 32.2107 14.8924C32.1594 15.3714 32.0978 15.8503 32.0123 16.3189C31.9439 16.5153 31.79 17.1735 31.6292 17.2251C31.5848 16.8944 31.5916 16.5739 31.6326 16.2569C31.6737 15.9399 31.7489 15.6263 31.8413 15.3128C31.9268 15.0302 31.9952 14.6822 32.0739 14.3446C32.1525 14.0103 32.238 13.6864 32.3612 13.4556Z" fill="white" />
        </g>
        <mask id="mask42_747_47370" style="mask-type:luminance" maskUnits="userSpaceOnUse" x="-10" y="-2" width="128" height="64">
            <path d="M118 -2H-10V62H118V-2Z" fill="white" />
        </mask>
        <g mask="url(#mask42_747_47370)">
            <path d="M24.7435 10.1501C24.8803 10.2845 25.0069 10.4258 25.1231 10.5636C25.3523 10.8462 25.5438 11.1321 25.7046 11.425C26.0261 12.0108 26.2245 12.6172 26.334 13.2409C26.4434 13.8646 26.4639 14.502 26.3613 15.1636C26.31 15.4944 26.2279 15.8286 26.1082 16.1732C26.0466 16.3455 25.9748 16.5177 25.8927 16.6935C25.8072 16.8692 25.7114 17.0484 25.5781 17.231C25.4002 15.9389 25.1642 14.6571 24.8735 13.3856C25.0513 14.6778 25.2873 15.9595 25.5781 17.231C25.3934 17.1035 25.2429 16.9691 25.1026 16.8347C24.9658 16.7004 24.8393 16.5625 24.723 16.4213C24.4938 16.1387 24.3023 15.8527 24.1415 15.5598C23.8234 14.9741 23.625 14.3676 23.5156 13.744C23.4061 13.1238 23.389 12.4829 23.4916 11.8213C23.5395 11.4939 23.625 11.1563 23.7447 10.8151C23.8063 10.6429 23.8781 10.4706 23.9602 10.2949C24.0457 10.1191 24.1415 9.94339 24.2681 9.75732C24.4562 9.88137 24.6033 10.0157 24.7435 10.1501Z" fill="#0071BC" />
        </g>
        <mask id="mask43_747_47370" style="mask-type:luminance" maskUnits="userSpaceOnUse" x="-10" y="-2" width="128" height="64">
            <path d="M118 -2H-10V62H118V-2Z" fill="white" />
        </mask>
        <g mask="url(#mask43_747_47370)">
            <path d="M24.8904 13.4116C24.9656 13.7286 25.0443 14.0422 25.1195 14.3592C25.1572 14.5142 25.1914 14.6658 25.2256 14.8209C25.2632 14.9828 25.2974 15.1448 25.335 15.3102C25.4 15.6169 25.4718 15.927 25.5163 16.2371C25.5163 16.244 25.5163 16.2509 25.5197 16.2612C25.5505 16.5368 25.6155 17.0124 25.5745 17.226C25.4582 16.9193 25.3692 16.6092 25.3008 16.2957C25.2324 15.9786 25.1811 15.6616 25.1366 15.3378C25.099 15.0345 25.0409 14.7037 24.993 14.3764C24.993 14.3661 24.9896 14.3557 24.9896 14.3454C24.9348 14.0215 24.8972 13.6976 24.8904 13.4116Z" fill="white" />
        </g>
        <mask id="mask44_747_47370" style="mask-type:luminance" maskUnits="userSpaceOnUse" x="-10" y="-2" width="128" height="64">
            <path d="M118 -2H-10V62H118V-2Z" fill="white" />
        </mask>
        <g mask="url(#mask44_747_47370)">
            <path d="M25.004 12.7443C25.0724 12.8132 25.1373 12.8821 25.1921 12.9511C25.3084 13.0923 25.4007 13.2336 25.4828 13.3818C25.6436 13.6746 25.7428 13.9779 25.7975 14.288C25.8522 14.5981 25.8625 14.9185 25.8112 15.2493C25.7872 15.4147 25.7462 15.5835 25.6846 15.7524C25.6538 15.8385 25.6196 15.9247 25.5752 16.0108C25.5307 16.1004 25.4828 16.1865 25.4178 16.2796C25.3289 15.6318 25.2126 14.9909 25.0655 14.3569C25.1544 15.0047 25.2707 15.6456 25.4178 16.2796C25.3255 16.2176 25.2502 16.1486 25.1818 16.0797C25.1134 16.0108 25.0484 15.9419 24.9903 15.873C24.874 15.7317 24.7782 15.587 24.6995 15.4423C24.5388 15.1494 24.4396 14.8462 24.3883 14.5326C24.3336 14.2225 24.3267 13.9021 24.378 13.5713C24.402 13.4059 24.443 13.237 24.5046 13.0682C24.5354 12.9821 24.5696 12.8959 24.614 12.8098C24.6551 12.7202 24.703 12.634 24.7679 12.541C24.8603 12.6099 24.9321 12.6754 25.004 12.7443Z" fill="#0071BC" />
        </g>
        <mask id="mask45_747_47370" style="mask-type:luminance" maskUnits="userSpaceOnUse" x="-10" y="-2" width="128" height="64">
            <path d="M118 -2H-10V62H118V-2Z" fill="white" />
        </mask>
        <g mask="url(#mask45_747_47370)">
            <path d="M24.9042 13.4468C25.0239 13.9119 25.1539 14.3771 25.2736 14.8423C25.3967 15.3074 25.5096 15.7761 25.5951 16.2481C25.6019 16.4549 25.6909 17.1233 25.5609 17.2301C25.4036 16.9372 25.2941 16.634 25.2223 16.3239C25.147 16.0138 25.1094 15.6934 25.0821 15.366C25.0615 15.0697 25.0034 14.7217 24.9555 14.3806C24.9076 14.0394 24.8734 13.7052 24.9042 13.4468Z" fill="white" />
        </g>
        <mask id="mask46_747_47370" style="mask-type:luminance" maskUnits="userSpaceOnUse" x="-10" y="-2" width="128" height="64">
            <path d="M118 -2H-10V62H118V-2Z" fill="white" />
        </mask>
        <g mask="url(#mask46_747_47370)">
            <path d="M59.2537 11.1539C59.2552 11.1471 59.2571 11.1414 59.2592 11.1365C59.2611 11.1362 59.2633 11.1358 59.2659 11.1355C59.2744 11.1343 59.2855 11.1335 59.2998 11.1335H60.3498C60.3677 11.1335 60.3796 11.1351 60.3868 11.1366C60.3957 11.1571 60.3993 11.1757 60.3993 11.1914V11.3396V11.4791L60.5383 11.4913C61.0353 11.535 61.4305 11.6383 61.7348 11.801C62.0445 11.9686 62.2793 12.1621 62.4483 12.3826C62.6171 12.6074 62.7346 12.8538 62.8014 13.1161C62.8676 13.3928 62.903 13.6526 62.903 13.9031C62.903 14.159 62.8705 14.433 62.8013 14.7183C62.7342 14.9953 62.616 15.2528 62.4429 15.4918C62.2737 15.7254 62.0352 15.9291 61.7278 16.1071C61.4306 16.2758 61.036 16.3888 60.5407 16.4357L60.4028 16.4487V16.5873V16.8905C60.4028 16.9059 60.3993 16.9224 60.3927 16.938C60.3851 16.9397 60.3724 16.9415 60.3533 16.9415H59.3032C59.2825 16.9415 59.2686 16.9398 59.2601 16.9381C59.2568 16.9291 59.2537 16.9144 59.2537 16.8905V16.5977V16.4551L59.1114 16.4457C58.7553 16.4222 58.4511 16.3655 58.1967 16.2779C57.9367 16.1884 57.719 16.081 57.5432 15.9513C57.3634 15.8187 57.2192 15.6725 57.1109 15.5103L57.1109 15.5103L57.109 15.5076C56.9936 15.3429 56.9042 15.1691 56.8405 14.9893C56.7747 14.8037 56.7263 14.6208 56.7006 14.44C56.6742 14.2534 56.6611 14.0745 56.6611 13.9066C56.6611 13.7821 56.6738 13.6351 56.7003 13.4648C56.7256 13.3025 56.7734 13.1378 56.8421 12.9631C56.9085 12.7941 57.0011 12.6295 57.1215 12.4623L57.1215 12.4623L57.1226 12.4607C57.2348 12.3006 57.3834 12.1532 57.5652 12.0158C57.7427 11.8817 57.9585 11.7673 58.2159 11.6676C58.4646 11.5713 58.7633 11.5115 59.1116 11.4881L59.2537 11.4785V11.3361V11.1914V11.1539ZM59.0797 15.5286L59.2537 15.5537V15.3779V12.5283V12.3552L59.082 12.3772C58.6745 12.4295 58.3531 12.5975 58.1517 12.8933C57.9513 13.181 57.8614 13.5414 57.8614 13.9652C57.8614 14.4063 57.95 14.7701 58.1472 15.037C58.3503 15.3151 58.6713 15.4699 59.0797 15.5286ZM60.5674 12.4013L60.3959 12.3795V12.5524V15.3641V15.5387L60.5689 15.515C60.9528 15.4624 61.2545 15.3047 61.4551 15.0258C61.6506 14.754 61.7403 14.3988 61.7403 13.9755C61.7403 13.5691 61.6574 13.2194 61.4821 12.9315C61.2944 12.6231 60.9795 12.4537 60.5674 12.4013Z" fill="#303063" stroke="#303063" stroke-width="0.304625" />
        </g>
        <mask id="mask47_747_47370" style="mask-type:luminance" maskUnits="userSpaceOnUse" x="-10" y="-2" width="128" height="64">
            <path d="M118 -2H-10V62H118V-2Z" fill="white" />
        </mask>
        <g mask="url(#mask47_747_47370)">
            <path d="M68.7587 16.0034L68.7587 16.0034L68.7577 16.0051C68.5914 16.2959 68.3451 16.5365 68.0154 16.7318C67.6991 16.9193 67.2577 17.0172 66.6736 17.0172C66.2921 17.0172 65.9672 16.9704 65.7062 16.8839C65.4369 16.7923 65.2182 16.6731 65.0434 16.5285C64.8664 16.382 64.7264 16.2121 64.6274 16.0156L64.6274 16.0156L64.626 16.013C64.5192 15.8108 64.4378 15.5946 64.3789 15.3672C64.32 15.1397 64.2836 14.9041 64.2636 14.6634C64.2467 14.4181 64.2367 14.1809 64.2367 13.9547C64.2367 13.7812 64.2466 13.5861 64.2668 13.3656C64.2863 13.1527 64.3287 12.938 64.3883 12.7212C64.4503 12.5077 64.535 12.2978 64.6457 12.0945C64.7528 11.8976 64.8949 11.7223 65.0732 11.5684C65.2486 11.417 65.4676 11.2914 65.7328 11.1969C65.9931 11.1042 66.3103 11.0542 66.6838 11.0542C67.2415 11.0542 67.672 11.142 67.9836 11.3084L67.9836 11.3084L67.9847 11.309C68.3059 11.4772 68.5519 11.6979 68.7244 11.9631C68.901 12.2381 69.0199 12.5455 69.0748 12.8866L69.0747 12.8866L69.0752 12.8891C69.1386 13.2453 69.1686 13.6016 69.1686 13.9547C69.1686 14.2949 69.1418 14.6532 69.0913 15.0229C69.0425 15.3801 68.9323 15.7086 68.7587 16.0034ZM65.7134 12.5592L65.7134 12.5592L65.7128 12.5604C65.543 12.9025 65.4644 13.4066 65.4644 14.0581C65.4644 14.6861 65.5398 15.1748 65.7014 15.5154L65.7014 15.5154L65.702 15.5166C65.7901 15.6982 65.9201 15.839 66.0918 15.9327C66.2617 16.0255 66.4637 16.0676 66.6907 16.0676C67.1607 16.0676 67.519 15.8986 67.7169 15.5338C67.9069 15.1925 67.9888 14.692 67.9888 14.0546C67.9888 13.3933 67.9069 12.8835 67.7282 12.5465C67.5333 12.1789 67.1697 12.0107 66.6941 12.0107C66.4716 12.0107 66.2729 12.0531 66.1045 12.1459C65.9348 12.2394 65.8047 12.3794 65.7134 12.5592Z" fill="#303063" stroke="#303063" stroke-width="0.304625" />
        </g>
        <mask id="mask48_747_47370" style="mask-type:luminance" maskUnits="userSpaceOnUse" x="-10" y="-2" width="128" height="64">
            <path d="M118 -2H-10V62H118V-2Z" fill="white" />
        </mask>
        <g mask="url(#mask48_747_47370)">
            <path d="M73.8382 11.343H73.845V11.1907C73.845 11.149 73.8544 11.1363 73.8554 11.1351L73.8555 11.1352L73.8568 11.1334C73.8609 11.132 73.8714 11.1294 73.8911 11.1294H74.948C74.9615 11.1294 74.9716 11.1303 74.9787 11.1314C74.9843 11.1495 74.9872 11.1684 74.9872 11.1872V16.8829C74.9872 16.9008 74.9847 16.9174 74.9805 16.9317C74.9726 16.933 74.9619 16.9339 74.948 16.9339H73.8911C73.8644 16.9339 73.8522 16.93 73.8478 16.928C73.8458 16.9235 73.8416 16.9108 73.8416 16.8829V14.5295V14.3772H73.6893H71.9107H71.7584V14.5295V16.8829C71.7584 16.9008 71.7559 16.9174 71.7517 16.9317C71.7438 16.933 71.733 16.9339 71.7191 16.9339H70.6622C70.6356 16.9339 70.6234 16.93 70.619 16.928C70.617 16.9235 70.6128 16.9108 70.6128 16.8829V11.1907C70.6128 11.1604 70.6177 11.1454 70.6231 11.136C70.6288 11.1346 70.64 11.1328 70.6588 11.1328H71.7157C71.7293 11.1328 71.7393 11.1337 71.7464 11.1349C71.7521 11.153 71.7549 11.1718 71.7549 11.1907V13.3132V13.4655H71.9073H73.6858H73.8382V13.3132V11.343ZM73.849 16.93C73.849 16.93 73.8488 16.9298 73.8485 16.9294L73.849 16.93ZM70.6202 16.93C70.6201 16.93 70.62 16.9298 70.6197 16.9294L70.6202 16.93Z" fill="#303063" stroke="#303063" stroke-width="0.304625" />
        </g>
        <mask id="mask49_747_47370" style="mask-type:luminance" maskUnits="userSpaceOnUse" x="-10" y="-2" width="128" height="64">
            <path d="M118 -2H-10V62H118V-2Z" fill="white" />
        </mask>
        <g mask="url(#mask49_747_47370)">
            <path d="M80.7399 17.08L80.7324 16.9356H80.5878H77.3145H77.1724L77.1625 17.0774L77.0807 18.2595C77.0743 18.3162 77.067 18.3561 77.0596 18.3826C77.0588 18.3856 77.058 18.3882 77.0572 18.3906C77.0402 18.394 77.0139 18.3965 76.9759 18.3965H76.1653C76.1319 18.3965 76.1113 18.3931 76.0999 18.3898C76.0986 18.3856 76.097 18.38 76.0953 18.3727C76.0886 18.3427 76.0831 18.2968 76.0815 18.2316L76.0815 18.2316L76.0815 18.23L76.0097 16.1551C76.01 16.1097 76.0176 16.0828 76.0249 16.0677C76.0267 16.0665 76.0295 16.0647 76.0339 16.0624C76.0475 16.0553 76.0704 16.0464 76.1065 16.0381L76.4141 15.9836L76.459 15.9757L76.4922 15.9444C76.6097 15.8333 76.7142 15.7098 76.8006 15.5699C76.8873 15.433 76.9572 15.2761 77.0116 15.1044C77.0652 14.9354 77.1114 14.7453 77.1434 14.5307C77.1784 14.3195 77.2061 14.0852 77.2301 13.8287L77.2301 13.8287L77.2303 13.8268L77.4319 11.331C77.4443 11.2214 77.4716 11.1851 77.4836 11.1752C77.506 11.1566 77.5459 11.1379 77.6292 11.1379H81.2411C81.2674 11.1379 81.2788 11.1421 81.2826 11.144C81.2847 11.1478 81.2906 11.1617 81.2906 11.1958V15.8647V16.0023L81.4275 16.0162L81.7979 16.0539C81.8315 16.0585 81.8412 16.069 81.8454 16.0745C81.852 16.0832 81.8647 16.1077 81.8652 16.1645L81.7663 18.2139C81.7598 18.2806 81.7528 18.3312 81.7455 18.3675C81.7437 18.3764 81.742 18.3838 81.7404 18.39C81.7385 18.3903 81.7364 18.3906 81.7342 18.3909C81.7225 18.3922 81.7077 18.3931 81.6891 18.3931H80.8956C80.8568 18.3931 80.8313 18.3902 80.8156 18.3866C80.8152 18.3853 80.8148 18.3838 80.8144 18.3822C80.8084 18.3589 80.8031 18.3213 80.8016 18.2656L80.8016 18.2656L80.8014 18.2618L80.7399 17.08ZM81.2841 11.1449C81.284 11.1449 81.2838 11.1448 81.2833 11.1444L81.2841 11.1449ZM79.9482 15.9894H80.1005V15.8371V12.2088V12.0565H79.9482H78.6176H78.4776L78.4659 12.1961L78.3017 14.1528C78.3017 14.1529 78.3017 14.153 78.3017 14.153C78.2713 14.5034 78.2276 14.8134 78.1679 15.0842C78.1092 15.3505 78.0226 15.5734 77.9051 15.7541L77.752 15.9894H78.0328H79.9482Z" fill="#303063" stroke="#303063" stroke-width="0.304625" />
        </g>
        <mask id="mask50_747_47370" style="mask-type:luminance" maskUnits="userSpaceOnUse" x="-10" y="-2" width="128" height="64">
            <path d="M118 -2H-10V62H118V-2Z" fill="white" />
        </mask>
        <g mask="url(#mask50_747_47370)">
            <path d="M57.9431 26.8569V27.0092H58.0954H59.8295H59.9818V26.8569V22.2156C59.9818 22.1999 59.9855 22.1813 59.9944 22.1608C60.0016 22.1593 60.0135 22.1577 60.0313 22.1577H61.1156C61.1363 22.1577 61.1496 22.1598 61.1573 22.1618C61.1609 22.1711 61.1651 22.1878 61.1651 22.2156V26.8293V26.9666L61.3016 26.9808L61.8271 27.0355C61.8556 27.0404 61.8713 27.0468 61.8789 27.0511C61.8812 27.0523 61.8826 27.0533 61.8833 27.0539C61.889 27.0652 61.8997 27.1017 61.894 27.1761L61.894 27.1761L61.8938 27.1796L61.7845 29.2437C61.778 29.3106 61.771 29.3613 61.7637 29.3976C61.7619 29.4065 61.7601 29.414 61.7586 29.4202C61.7567 29.4204 61.7546 29.4207 61.7524 29.421C61.7407 29.4223 61.7258 29.4232 61.7073 29.4232H60.9138C60.889 29.4232 60.871 29.4218 60.8584 29.4199C60.8583 29.4194 60.8581 29.4189 60.858 29.4184C60.8513 29.3928 60.8447 29.3538 60.84 29.2996L60.7751 28.1063L60.7673 27.9622H60.623H56.8093C56.7914 27.9622 56.7794 27.9606 56.7722 27.9591C56.7626 27.9377 56.7599 27.9221 56.7599 27.9113V22.2156C56.7599 22.1999 56.7635 22.1813 56.7724 22.1608C56.7796 22.1593 56.7915 22.1577 56.8093 22.1577H57.8936C57.9143 22.1577 57.9277 22.1598 57.9353 22.1618C57.9389 22.1711 57.9431 22.1878 57.9431 22.2156V26.8569Z" fill="#303063" stroke="#303063" stroke-width="0.304625" />
        </g>
        <mask id="mask51_747_47370" style="mask-type:luminance" maskUnits="userSpaceOnUse" x="-10" y="-2" width="128" height="64">
            <path d="M118 -2H-10V62H118V-2Z" fill="white" />
        </mask>
        <g mask="url(#mask51_747_47370)">
            <path d="M64.2868 23.0763H64.1345V23.2286V24.3484V24.5007H64.2868H66.3493C66.3822 24.5007 66.3967 24.506 66.4014 24.5083C66.403 24.5123 66.4056 24.522 66.4056 24.5414V25.3787C66.4056 25.396 66.4032 25.4073 66.4 25.4154C66.3905 25.4174 66.3744 25.4193 66.3493 25.4193H64.2868H64.1345V25.5716V26.8948V27.0471H64.2868H66.6947C66.722 27.0471 66.7338 27.0516 66.7374 27.0535C66.7394 27.0572 66.7442 27.0694 66.7442 27.0981V27.9354C66.7442 27.9498 66.7426 27.9592 66.7407 27.9653C66.7316 27.9672 66.7168 27.9691 66.6947 27.9691H63.0383C63.0171 27.9691 63.0031 27.9674 62.9946 27.9656C62.9913 27.9575 62.9889 27.946 62.9889 27.9285V22.2156C62.9889 22.1891 62.9927 22.1725 62.9977 22.1607C62.9996 22.1604 63.0018 22.16 63.0044 22.1596C63.0129 22.1585 63.0241 22.1577 63.0383 22.1577H66.6605C66.6796 22.1577 66.6896 22.1601 66.6941 22.1617C66.6961 22.1667 66.6997 22.1794 66.6997 22.2052V23.0356C66.6997 23.0532 66.6973 23.0646 66.694 23.0728C66.6855 23.0745 66.6715 23.0763 66.6502 23.0763H64.2868ZM66.4002 24.5059C66.4002 24.5059 66.4005 24.5062 66.4008 24.507L66.4002 24.5059ZM66.7388 27.0544C66.7388 27.0544 66.7386 27.0543 66.7382 27.054L66.7388 27.0544ZM66.6971 22.1631C66.697 22.1631 66.6967 22.1629 66.6962 22.1625L66.6971 22.1631Z" fill="#303063" stroke="#303063" stroke-width="0.304625" />
        </g>
        <mask id="mask52_747_47370" style="mask-type:luminance" maskUnits="userSpaceOnUse" x="-10" y="-2" width="128" height="64">
            <path d="M118 -2H-10V62H118V-2Z" fill="white" />
        </mask>
        <g mask="url(#mask52_747_47370)">
            <path d="M69.2235 27.5636L69.2234 27.5635L69.2214 27.566C69.091 27.7242 68.9133 27.8446 68.6838 27.9301C68.4561 28.015 68.164 28.0619 67.7951 28.0687C67.7214 28.0687 67.6679 28.0645 67.6313 28.0578C67.6159 28.055 67.6063 28.0522 67.6008 28.0504C67.6005 28.0495 67.6001 28.0485 67.5998 28.0473C67.5965 28.0369 67.593 28.0174 67.593 27.9833C67.593 27.8766 67.5895 27.7712 67.5785 27.6645L67.5785 27.6639C67.569 27.5748 67.5656 27.4773 67.5656 27.3768C67.5656 27.3524 67.567 27.3346 67.5687 27.3222C67.569 27.3221 67.5693 27.322 67.5695 27.3219C67.5889 27.3137 67.6169 27.3038 67.6545 27.2931C67.8101 27.2538 67.9527 27.2055 68.0703 27.1423C68.1968 27.0743 68.3016 26.9765 68.3836 26.8447C68.4658 26.7159 68.5186 26.5579 68.5546 26.3762C68.5907 26.1944 68.6152 25.9628 68.6358 25.686L68.6358 25.686L68.6359 25.6845C68.6524 25.429 68.6682 25.1755 68.6839 24.9236C68.7041 24.5998 68.7242 24.2785 68.7453 23.9584C68.783 23.3888 68.8139 22.8124 68.8446 22.2371L68.8449 22.2371V22.229C68.8449 22.1958 68.85 22.1813 68.8522 22.1767C68.8567 22.1748 68.8686 22.1711 68.8943 22.1711H72.2873C72.3056 22.1711 72.3151 22.1736 72.3187 22.175C72.3199 22.1754 72.3203 22.1756 72.3203 22.1756C72.3203 22.1756 72.3195 22.1751 72.3184 22.174C72.3179 22.1734 72.3177 22.1731 72.3177 22.1731C72.3177 22.1731 72.3266 22.1856 72.3266 22.229V27.9178C72.3266 27.9356 72.3241 27.9522 72.3199 27.9666C72.312 27.9678 72.3012 27.9688 72.2873 27.9688H71.2031C71.1704 27.9688 71.157 27.9632 71.1532 27.9611C71.1512 27.9574 71.1468 27.9455 71.1468 27.9178V23.2558V23.1035H70.9944H69.9991H69.8566L69.8471 23.2457C69.8095 23.8116 69.782 24.3268 69.7682 24.7909C69.7512 25.2509 69.7274 25.6605 69.6903 26.0209C69.6532 26.3805 69.5997 26.6892 69.5305 26.9481C69.4633 27.1994 69.3597 27.405 69.2235 27.5636ZM67.7964 28.221C67.6391 28.221 67.5399 28.2038 67.4988 28.1659C67.4578 28.128 67.4407 28.0694 67.4407 27.9833C67.4407 27.8799 67.4373 27.78 67.427 27.68C67.4167 27.5836 67.4133 27.4802 67.4133 27.3768C67.4133 27.2907 67.427 27.239 67.451 27.2149C67.4749 27.1942 67.5296 27.1701 67.6151 27.146L67.7964 28.221ZM68.8501 22.1779C68.8501 22.1779 68.8503 22.1777 68.851 22.1774L68.8501 22.1779ZM71.1541 27.9625C71.154 27.9626 71.1539 27.9624 71.1536 27.9619L71.1541 27.9625Z" fill="#303063" stroke="#303063" stroke-width="0.304625" />
        </g>
        <mask id="mask53_747_47370" style="mask-type:luminance" maskUnits="userSpaceOnUse" x="-10" y="-2" width="128" height="64">
            <path d="M118 -2H-10V62H118V-2Z" fill="white" />
        </mask>
        <g mask="url(#mask53_747_47370)">
            <path d="M75.1607 23.0763H75.0084V23.2286V24.3484V24.5007H75.1607H77.2232C77.2561 24.5007 77.2706 24.506 77.2753 24.5083C77.2769 24.5123 77.2795 24.522 77.2795 24.5414V25.3787C77.2795 25.396 77.2771 25.4073 77.2739 25.4154C77.2644 25.4174 77.2483 25.4193 77.2232 25.4193H75.1607H75.0084V25.5716V26.8948V27.0471H75.1607H77.5686C77.5959 27.0471 77.6076 27.0516 77.6113 27.0535C77.6133 27.0572 77.6181 27.0694 77.6181 27.0981V27.9354C77.6181 27.9498 77.6164 27.9592 77.6146 27.9653C77.6055 27.9672 77.5907 27.9691 77.5686 27.9691H73.9122C73.891 27.9691 73.877 27.9674 73.8685 27.9656C73.8652 27.9575 73.8628 27.946 73.8628 27.9285V22.2156C73.8628 22.1891 73.8666 22.1725 73.8716 22.1607C73.8735 22.1604 73.8757 22.16 73.8783 22.1596C73.8868 22.1585 73.898 22.1577 73.9122 22.1577H77.5344C77.5535 22.1577 77.5635 22.1601 77.568 22.1617C77.57 22.1667 77.5736 22.1794 77.5736 22.2052V23.0356C77.5736 23.0532 77.5712 23.0646 77.5678 23.0728C77.5594 23.0745 77.5454 23.0763 77.5241 23.0763H75.1607ZM77.2741 24.5059C77.2741 24.5059 77.2744 24.5062 77.2747 24.507L77.2741 24.5059ZM77.6127 27.0544C77.6127 27.0544 77.6125 27.0543 77.6121 27.054L77.6127 27.0544ZM77.571 22.1631C77.5709 22.1631 77.5706 22.1629 77.5701 22.1625L77.571 22.1631Z" fill="#303063" stroke="#303063" stroke-width="0.304625" />
        </g>
        <mask id="mask54_747_47370" style="mask-type:luminance" maskUnits="userSpaceOnUse" x="-10" y="-2" width="128" height="64">
            <path d="M118 -2H-10V62H118V-2Z" fill="white" />
        </mask>
        <g mask="url(#mask54_747_47370)">
            <path d="M82.6935 27.5267C82.5295 27.6697 82.3444 27.7801 82.138 27.8526C81.9245 27.9264 81.7055 27.9647 81.4733 27.9647H79.0004C78.9758 27.9647 78.9599 27.9629 78.9503 27.961C78.9471 27.9519 78.9441 27.9373 78.9441 27.9138V22.2146C78.9441 22.1904 78.9472 22.1757 78.9506 22.1667C78.9588 22.1652 78.9725 22.1636 78.9935 22.1636L78.9942 22.1636L81.3091 22.1533C81.3092 22.1533 81.3093 22.1533 81.3095 22.1533C81.9122 22.1533 82.3404 22.2993 82.6238 22.5663C82.906 22.8355 83.0551 23.206 83.0551 23.6997C83.0551 23.7596 83.0464 23.8396 83.0298 23.9402C83.0152 24.0286 82.9851 24.1241 82.943 24.2285C82.906 24.3202 82.8475 24.413 82.767 24.5066C82.6916 24.5943 82.5979 24.6685 82.4808 24.729L82.3716 24.7854L82.4037 24.9041L82.414 24.942L82.4341 25.0164L82.5059 25.0443C82.6674 25.1068 82.7858 25.1846 82.8722 25.2801C82.9684 25.3864 83.0408 25.4966 83.0916 25.614C83.1442 25.7356 83.1777 25.8555 83.1929 25.9706C83.2066 26.1083 83.2159 26.2139 83.2159 26.3046C83.2159 26.5758 83.1679 26.8086 83.0758 27.0096C82.9818 27.2148 82.8543 27.3865 82.6935 27.5267ZM80.2386 23.0822H80.0862V23.2345V24.3647V24.517H80.2386H81.1142C81.3303 24.517 81.5193 24.457 81.6608 24.3196C81.8047 24.1833 81.8685 24.0068 81.8685 23.81C81.8685 23.6094 81.8049 23.4381 81.6789 23.2981C81.5378 23.1413 81.3178 23.0822 81.0697 23.0822H80.2386ZM80.2386 25.3874H80.0862V25.5397V26.8904V27.0427H80.2386H81.1792C81.4629 27.0427 81.7069 26.9741 81.8493 26.792C81.9771 26.6326 82.0326 26.4423 82.0326 26.2288C82.0326 26.0078 81.9679 25.8109 81.8342 25.6468C81.6853 25.4639 81.4514 25.3874 81.1792 25.3874H80.2386Z" fill="#303063" stroke="#303063" stroke-width="0.304625" />
        </g>
        <mask id="mask55_747_47370" style="mask-type:luminance" maskUnits="userSpaceOnUse" x="-10" y="-2" width="128" height="64">
            <path d="M118 -2H-10V62H118V-2Z" fill="white" />
        </mask>
        <g mask="url(#mask55_747_47370)">
            <path d="M89.0284 27.032L89.0284 27.032L89.0274 27.0337C88.8611 27.3245 88.6147 27.565 88.285 27.7604C87.9687 27.9478 87.5274 28.0458 86.9432 28.0458C86.5617 28.0458 86.2368 27.9989 85.9758 27.9124C85.7065 27.8209 85.4878 27.7016 85.313 27.557C85.136 27.4105 84.9961 27.2406 84.897 27.0441L84.8971 27.0441L84.8957 27.0416C84.7889 26.8394 84.7074 26.6232 84.6485 26.3957C84.5896 26.1682 84.5532 25.9327 84.5333 25.6919C84.5164 25.4467 84.5063 25.2094 84.5063 24.9833C84.5063 24.8098 84.5163 24.6147 84.5365 24.3942C84.556 24.1812 84.5984 23.9666 84.6579 23.7498C84.7197 23.537 84.8044 23.3303 84.9156 23.1226C85.0227 22.9259 85.1647 22.7508 85.3428 22.597C85.5182 22.4456 85.7372 22.32 86.0024 22.2255C86.2628 22.1328 86.58 22.0827 86.9535 22.0827C87.5112 22.0827 87.9417 22.1706 88.2533 22.337L88.2533 22.337L88.2544 22.3375C88.5755 22.5058 88.8216 22.7264 88.994 22.9917C89.1706 23.2667 89.2896 23.5741 89.3444 23.9152L89.3444 23.9152L89.3449 23.9177C89.4082 24.2738 89.4383 24.6301 89.4383 24.9833C89.4383 25.3234 89.4115 25.6817 89.361 26.0515C89.3122 26.4087 89.202 26.7372 89.0284 27.032ZM85.9797 23.5878L85.9797 23.5878L85.9791 23.589C85.8093 23.9311 85.7306 24.4352 85.7306 25.0867C85.7306 25.7147 85.8061 26.2034 85.9676 26.544L85.9676 26.544L85.9682 26.5452C86.0563 26.7268 86.1864 26.8675 86.358 26.9613C86.5279 27.0541 86.7299 27.0962 86.9569 27.0962C87.4269 27.0962 87.7852 26.9272 87.9831 26.5624C88.1732 26.221 88.255 25.7206 88.255 25.0832C88.255 24.4219 88.1731 23.9121 87.9944 23.575C87.7996 23.2075 87.4359 23.0392 86.9603 23.0392C86.7378 23.0392 86.5392 23.0816 86.3708 23.1744C86.201 23.268 86.0709 23.4079 85.9797 23.5878Z" fill="#303063" stroke="#303063" stroke-width="0.304625" />
        </g>
        <mask id="mask56_747_47370" style="mask-type:luminance" maskUnits="userSpaceOnUse" x="-10" y="-2" width="128" height="64">
            <path d="M118 -2H-10V62H118V-2Z" fill="white" />
        </mask>
        <g mask="url(#mask56_747_47370)">
            <path d="M92.0418 27.7589H92.0384V27.9113C92.0384 27.9293 92.0358 27.946 92.0316 27.9605C92.0235 27.9615 92.0128 27.9622 91.9992 27.9622H90.9423C90.9215 27.9622 90.9077 27.9606 90.8992 27.9589C90.8959 27.9498 90.8928 27.9351 90.8928 27.9113L90.8928 27.911L90.8825 22.2052C90.8825 22.2052 90.8825 22.2051 90.8825 22.2051C90.8826 22.1843 90.8861 22.1706 90.8899 22.1619C90.8974 22.1599 90.9109 22.1577 90.932 22.1577H94.4892C94.5163 22.1577 94.5287 22.1618 94.533 22.1638C94.535 22.1681 94.5387 22.1799 94.5387 22.2052V23.0356C94.5387 23.0529 94.5363 23.0642 94.5331 23.0724C94.5236 23.0743 94.5075 23.0763 94.4824 23.0763H92.1941H92.0418V23.2286V27.7589ZM94.5349 22.1648C94.5349 22.1649 94.5347 22.1648 94.5344 22.1645L94.5349 22.1648ZM94.5323 22.1624C94.532 22.162 94.5318 22.1617 94.5319 22.1617L94.5323 22.1624Z" fill="#303063" stroke="#303063" stroke-width="0.304625" />
        </g>
        <mask id="mask57_747_47370" style="mask-type:luminance" maskUnits="userSpaceOnUse" x="-10" y="-2" width="128" height="64">
            <path d="M118 -2H-10V62H118V-2Z" fill="white" />
        </mask>
        <g mask="url(#mask57_747_47370)">
            <path d="M100.029 27.032L100.029 27.032L100.028 27.0337C99.8613 27.3245 99.615 27.565 99.2853 27.7604C98.969 27.9478 98.5276 28.0458 97.9435 28.0458C97.5586 28.0458 97.2371 27.999 96.9761 27.9124C96.7068 27.8209 96.4881 27.7016 96.3133 27.557C96.1363 27.4105 95.9963 27.2406 95.8973 27.0441L95.8973 27.0441L95.8959 27.0416C95.7891 26.8394 95.7077 26.6232 95.6488 26.3957C95.5899 26.1682 95.5535 25.9327 95.5335 25.6919C95.5166 25.4467 95.5066 25.2094 95.5066 24.9833C95.5066 24.8098 95.5165 24.6147 95.5367 24.3942C95.5562 24.1812 95.5986 23.9666 95.6582 23.7498C95.72 23.537 95.8046 23.3303 95.9158 23.1226C96.023 22.9259 96.165 22.7508 96.3431 22.597C96.5185 22.4456 96.7375 22.32 97.0027 22.2255C97.263 22.1328 97.5802 22.0827 97.9537 22.0827C98.5114 22.0827 98.9419 22.1706 99.2535 22.337L99.2535 22.337L99.2546 22.3375C99.5758 22.5058 99.8218 22.7264 99.9943 22.9917C100.17 23.2659 100.287 23.5735 100.345 23.9166L100.345 23.9166L100.345 23.9177C100.408 24.2738 100.439 24.6301 100.439 24.9833C100.439 25.3234 100.412 25.6817 100.361 26.0515C100.312 26.4087 100.202 26.7372 100.029 27.032ZM96.9799 23.5878L96.9799 23.5878L96.9793 23.589C96.8095 23.9311 96.7308 24.4352 96.7308 25.0867C96.7308 25.7147 96.8063 26.2034 96.9679 26.544C97.1465 26.9207 97.4975 27.0962 97.9571 27.0962C98.4272 27.0962 98.7854 26.9272 98.9833 26.5624C99.1734 26.221 99.2553 25.7206 99.2553 25.0832C99.2553 24.4219 99.1734 23.9121 98.9947 23.575C98.7998 23.2075 98.4362 23.0392 97.9606 23.0392C97.738 23.0392 97.5394 23.0816 97.371 23.1744C97.2013 23.268 97.0712 23.4079 96.9799 23.5878Z" fill="#303063" stroke="#303063" stroke-width="0.304625" />
        </g>
        <mask id="mask58_747_47370" style="mask-type:luminance" maskUnits="userSpaceOnUse" x="-10" y="-2" width="128" height="64">
            <path d="M118 -2H-10V62H118V-2Z" fill="white" />
        </mask>
        <g mask="url(#mask58_747_47370)">
            <path d="M59.5008 37.1943L59.5007 37.1943L59.968 38.8163C59.9986 38.902 60.0264 38.944 60.0449 38.9635C60.0485 38.9652 60.059 38.9698 60.0806 38.9745C60.1129 38.9814 60.1595 38.9862 60.2231 38.9862H61.2629C61.274 38.9862 61.2828 38.9856 61.2898 38.9848C61.2884 38.9768 61.2859 38.9664 61.2818 38.9535L61.2817 38.9531L60.7246 37.1731C60.6313 36.8945 60.5322 36.6622 60.4346 36.4785C60.3462 36.3181 60.2166 36.2037 60.0358 36.1302L59.6967 35.9925L60.0334 35.849C60.1767 35.788 60.3014 35.678 60.4115 35.4992C60.5265 35.3126 60.6313 35.0766 60.7244 34.792L61.2063 33.2393L59.5008 37.1943ZM59.5008 37.1943L59.4995 37.1903C59.4101 36.9095 59.2815 36.6914 59.0907 36.5836L59.0907 36.5835L59.0882 36.5822C58.9252 36.4941 58.7498 36.4502 58.5608 36.4502H58.0854H57.9331V36.6025V38.9352C57.9331 38.9489 57.9311 38.9636 57.9243 38.9842C57.9168 38.9853 57.9068 38.9862 57.8938 38.9862H56.8096C56.7769 38.9862 56.7635 38.9806 56.7597 38.9785C56.7577 38.9748 56.7533 38.9629 56.7533 38.9352V33.2395C56.7533 33.2104 56.7578 33.1954 56.763 33.1859C56.7704 33.184 56.7849 33.1816 56.8096 33.1816H57.8938C57.9074 33.1816 57.9174 33.1825 57.9246 33.1837C57.9302 33.2018 57.9331 33.2206 57.9331 33.2395V35.362V35.5143H58.0854H58.5882C58.6682 35.5143 58.7545 35.5068 58.8393 35.4868M59.5008 37.1943L58.8393 35.4868M58.8393 35.4868C58.9322 35.4684 59.0191 35.4295 59.0986 35.3838L59.0986 35.3838L59.1014 35.3821C59.1904 35.3283 59.2732 35.2475 59.3409 35.1515C59.4155 35.0508 59.4729 34.9239 59.5168 34.7803L59.9637 33.3784C59.9965 33.2887 60.0257 33.2444 60.0436 33.2262C60.0463 33.2249 60.0559 33.2207 60.0769 33.2165C60.1095 33.2098 60.1564 33.2057 60.2197 33.2057H61.1877C61.1986 33.2057 61.2074 33.2063 61.2144 33.207C61.2129 33.2153 61.2104 33.2259 61.2064 33.2391L58.8393 35.4868ZM56.7606 38.9799C56.7606 38.98 56.7604 38.9798 56.7601 38.9793L56.7606 38.9799Z" fill="#303063" stroke="#303063" stroke-width="0.304625" />
        </g>
        <mask id="mask59_747_47370" style="mask-type:luminance" maskUnits="userSpaceOnUse" x="-10" y="-2" width="128" height="64">
            <path d="M118 -2H-10V62H118V-2Z" fill="white" />
        </mask>
        <g mask="url(#mask59_747_47370)">
            <path d="M65.2243 33.1938C65.2339 33.1965 65.2393 33.199 65.2418 33.2003L65.2419 33.2004C65.2652 33.2277 65.2917 33.276 65.3198 33.3543L67.1504 38.9589C67.1526 38.9688 67.1545 38.9779 67.1559 38.9862H66.0557C66.0152 38.9862 65.9888 38.9813 65.9736 38.9763C65.969 38.9747 65.9661 38.9734 65.9645 38.9726L65.9636 38.9716C65.9462 38.9508 65.9194 38.9024 65.8947 38.8123L65.8947 38.812L65.5937 37.7197L65.5628 37.6079H65.4468H63.6306H63.5166L63.4845 37.7174L63.1564 38.8362C63.1306 38.9195 63.1025 38.9524 63.088 38.9639C63.0781 38.9718 63.0493 38.9862 62.9807 38.9862H61.9764C61.9792 38.9744 61.9828 38.9608 61.9874 38.9453L63.7476 33.3432C63.7731 33.2727 63.8009 33.228 63.8237 33.2026C63.8254 33.2014 63.8319 33.1977 63.8466 33.1935C63.8699 33.1869 63.9063 33.1816 63.959 33.1816H65.1082C65.1632 33.1816 65.2008 33.187 65.2243 33.1938ZM64.7119 34.4694L64.6824 34.3552H64.5644H64.5199H64.4032L64.3728 34.4678L64.0719 35.5842L64.0718 35.5845L63.7981 36.6079L63.7469 36.7996H63.9453H65.1322H65.3317L65.2791 36.6071L65.0023 35.5951L64.7119 34.4694Z" fill="#303063" stroke="#303063" stroke-width="0.304625" />
        </g>
        <mask id="mask60_747_47370" style="mask-type:luminance" maskUnits="userSpaceOnUse" x="-10" y="-2" width="128" height="64">
            <path d="M118 -2H-10V62H118V-2Z" fill="white" />
        </mask>
        <g mask="url(#mask60_747_47370)">
            <path d="M71.3899 34.2491V34.0968H71.2376H69.4488H69.2964V34.2491V38.9352C69.2964 38.9532 69.2939 38.9699 69.2896 38.9844C69.2815 38.9854 69.2708 38.9862 69.2572 38.9862H68.2003C68.1849 38.9862 68.1744 38.985 68.1678 38.9838C68.1644 38.9748 68.1611 38.9599 68.1611 38.9352V33.2395C68.1611 33.2128 68.165 33.1962 68.1701 33.1844C68.1759 33.1831 68.1857 33.1816 68.2003 33.1816H72.4963C72.5046 33.1816 72.5112 33.1821 72.5164 33.1827C72.5223 33.2011 72.5253 33.2203 72.5253 33.2395V38.9352C72.5253 38.9534 72.5226 38.9703 72.5183 38.9849C72.5127 38.9856 72.5054 38.9862 72.4963 38.9862H71.4394C71.4186 38.9862 71.4048 38.9845 71.3963 38.9828C71.393 38.9737 71.3899 38.9591 71.3899 38.9352V34.2491Z" fill="#303063" stroke="#303063" stroke-width="0.304625" />
        </g>
        <mask id="mask61_747_47370" style="mask-type:luminance" maskUnits="userSpaceOnUse" x="-10" y="-2" width="128" height="64">
            <path d="M118 -2H-10V62H118V-2Z" fill="white" />
        </mask>
        <g mask="url(#mask61_747_47370)">
            <path d="M74.0571 33.2106C74.0577 33.2074 74.0583 33.2045 74.059 33.2019C74.0593 33.2009 74.0595 33.2 74.0598 33.1991C74.0682 33.197 74.0822 33.1948 74.1032 33.1948H75.1532C75.1711 33.1948 75.183 33.1964 75.1902 33.1979C75.1991 33.2184 75.2027 33.237 75.2027 33.2527V36.5433V37.0319L75.4804 36.6298C75.5362 36.549 75.5923 36.4641 75.6452 36.3789C75.6959 36.2972 75.7499 36.2123 75.8036 36.1312L75.8036 36.1312L75.8055 36.1282L77.5356 33.3781C77.5769 33.3252 77.6219 33.2768 77.6692 33.229C77.679 33.2192 77.7154 33.1948 77.8211 33.1948H78.7138C78.7257 33.1948 78.7343 33.1957 78.7401 33.1968C78.7502 33.2188 78.753 33.2347 78.753 33.2458V38.9518C78.753 38.9638 78.7509 38.9761 78.7459 38.9893C78.737 38.9909 78.7233 38.9925 78.7035 38.9925H77.6535C77.6256 38.9925 77.6129 38.9881 77.6085 38.986C77.6068 38.982 77.604 38.9721 77.604 38.9518V35.5578V35.4055H77.4517H77.4414H77.3575L77.3127 35.4765L75.2086 38.8073C75.1711 38.8577 75.1247 38.9051 75.073 38.9489C75.0434 38.9695 74.9883 38.989 74.8899 38.989H74.1066C74.0848 38.989 74.07 38.9872 74.0609 38.9853C74.0591 38.9788 74.0571 38.9673 74.0571 38.9484V33.2527V33.2106ZM77.6097 38.9883C77.6097 38.9883 77.6094 38.988 77.6091 38.9874L77.6097 38.9883Z" fill="#303063" stroke="#303063" stroke-width="0.304625" />
        </g>
        <mask id="mask62_747_47370" style="mask-type:luminance" maskUnits="userSpaceOnUse" x="-10" y="-2" width="128" height="64">
            <path d="M118 -2H-10V62H118V-2Z" fill="white" />
        </mask>
        <g mask="url(#mask62_747_47370)">
            <path d="M84.0042 34.0965C83.9959 34.0983 83.9817 34.1002 83.9598 34.1002H82.6088H82.4565V34.2525V38.9386C82.4565 38.9566 82.4539 38.9734 82.4496 38.9878C82.4415 38.9889 82.4308 38.9896 82.4172 38.9896H81.3672C81.3464 38.9896 81.3326 38.9879 81.3241 38.9862C81.3208 38.9772 81.3177 38.9625 81.3177 38.9386V34.2525V34.1002H81.1654H79.8246C79.8082 34.1002 79.7952 34.0994 79.7853 34.0981C79.7833 34.0979 79.7816 34.0976 79.7799 34.0974C79.7774 34.089 79.7751 34.0765 79.7751 34.0596V33.2291C79.7751 33.2114 79.7772 33.1969 79.78 33.1862C79.7802 33.1856 79.7803 33.185 79.7805 33.1844C79.782 33.1841 79.7836 33.1839 79.7853 33.1837C79.7952 33.1824 79.8082 33.1816 79.8246 33.1816H83.9564C83.9835 33.1816 83.9959 33.1857 84.0002 33.1877C84.0022 33.192 84.0059 33.2038 84.0059 33.2291V34.0596H84.0056L84.0061 34.0684C84.007 34.0837 84.0054 34.0923 84.0043 34.0963C84.0043 34.0964 84.0042 34.0965 84.0042 34.0965ZM84.0021 33.1888C84.0021 33.1888 84.002 33.1887 84.0016 33.1884L84.0021 33.1888ZM83.9991 33.1856C83.9991 33.1856 83.9993 33.1858 83.9995 33.1864L83.9991 33.1856Z" fill="#303063" stroke="#303063" stroke-width="0.304625" />
        </g>
        <mask id="mask63_747_47370" style="mask-type:luminance" maskUnits="userSpaceOnUse" x="-10" y="-2" width="128" height="64">
            <path d="M118 -2H-10V62H118V-2Z" fill="white" />
        </mask>
        <g mask="url(#mask63_747_47370)">
            <path d="M85.6117 38.9608L85.6116 38.9608L85.6077 38.9639C85.5977 38.9718 85.5689 38.9862 85.5004 38.9862H84.4961C84.4989 38.9744 84.5025 38.9608 84.5071 38.9453L86.2673 33.3432C86.2928 33.2727 86.3205 33.228 86.3433 33.2026C86.3451 33.2014 86.3516 33.1977 86.3662 33.1935C86.3896 33.1869 86.426 33.1816 86.4786 33.1816H87.6279C87.6828 33.1816 87.7204 33.187 87.7439 33.1938C87.7536 33.1965 87.759 33.199 87.7615 33.2003L87.7615 33.2004C87.7848 33.2277 87.8113 33.276 87.8395 33.3543L89.67 38.9589C89.6723 38.9688 89.6741 38.9779 89.6756 38.9862H88.5753C88.5349 38.9862 88.5085 38.9813 88.4933 38.9763C88.4887 38.9747 88.4858 38.9734 88.4841 38.9726L88.4833 38.9716C88.4672 38.9524 88.4437 38.9068 88.4137 38.8098L88.1133 37.7197L88.0825 37.6079H87.9665H86.1503H86.0362L86.0041 37.7174L85.6761 38.8362C85.6488 38.9243 85.6238 38.9519 85.6117 38.9608ZM87.2315 34.4694L87.202 34.3552H87.084H87.0396H86.9229L86.8925 34.4678L86.5915 35.5842L86.5914 35.5845L86.3178 36.6079L86.2666 36.7996H86.4649H87.6518H87.8514L87.7987 36.6071L87.522 35.5951L87.2315 34.4694Z" fill="#303063" stroke="#303063" stroke-width="0.304625" />
        </g>
        <mask id="mask64_747_47370" style="mask-type:luminance" maskUnits="userSpaceOnUse" x="-10" y="-2" width="128" height="64">
            <path d="M118 -2H-10V62H118V-2Z" fill="white" />
        </mask>
        <g mask="url(#mask64_747_47370)">
            <path d="M91.8243 38.5873L91.8243 38.5872L91.8223 38.5896C91.6919 38.7479 91.5141 38.8683 91.2847 38.9538C91.057 39.0386 90.7648 39.0856 90.3959 39.0924C90.3222 39.0923 90.2687 39.0882 90.2322 39.0815C90.2167 39.0787 90.2071 39.0759 90.2017 39.0741C90.2013 39.0732 90.201 39.0722 90.2006 39.071C90.1974 39.0606 90.1938 39.041 90.1938 39.0069C90.1938 38.9003 90.1903 38.7949 90.1794 38.6882L90.1793 38.6876C90.1698 38.5985 90.1665 38.501 90.1665 38.4005C90.1665 38.376 90.1678 38.3583 90.1695 38.3459C90.1698 38.3458 90.1701 38.3457 90.1704 38.3456C90.1897 38.3373 90.2177 38.3275 90.2553 38.3168C90.411 38.2775 90.5536 38.2292 90.6711 38.166C90.7977 38.098 90.9025 38.0002 90.9844 37.8684C91.0667 37.7396 91.1194 37.5816 91.1555 37.3999C91.1916 37.2181 91.216 36.9864 91.2366 36.7097L91.2366 36.7097L91.2367 36.7082C91.2532 36.4526 91.269 36.1991 91.2848 35.9471C91.3049 35.6234 91.325 35.3021 91.3462 34.9821C91.3839 34.4125 91.4147 33.8361 91.4455 33.2608L91.4457 33.2608V33.2527C91.4457 33.2194 91.4509 33.205 91.4531 33.2004C91.4575 33.1985 91.4695 33.1948 91.4952 33.1948H94.8882C94.9064 33.1948 94.9159 33.1973 94.9195 33.1986C94.9207 33.1991 94.9212 33.1993 94.9212 33.1993C94.9212 33.1993 94.9203 33.1988 94.9193 33.1977C94.9188 33.1971 94.9185 33.1968 94.9185 33.1968C94.9186 33.1968 94.9274 33.2093 94.9274 33.2527V38.9415C94.9274 38.9593 94.9249 38.9759 94.9207 38.9902C94.9128 38.9915 94.9021 38.9925 94.8882 38.9925H93.8039C93.7713 38.9925 93.7578 38.9869 93.754 38.9848C93.7521 38.9811 93.7476 38.9692 93.7476 38.9415V34.2829V34.1306H93.5953H92.5999H92.4575L92.448 34.2727C92.4103 34.8353 92.3828 35.3505 92.369 35.8146C92.352 36.2746 92.3282 36.6842 92.2911 37.0445C92.2541 37.4041 92.2005 37.7128 92.1313 37.9718C92.0641 38.2231 91.9605 38.4287 91.8243 38.5873ZM90.3972 39.2447C90.2399 39.2447 90.1407 39.2275 90.0997 39.1896C90.0586 39.1517 90.0415 39.0931 90.0415 39.0069C90.0415 38.9036 90.0381 38.8037 90.0278 38.7037C90.0176 38.6072 90.0142 38.5039 90.0142 38.4005C90.0142 38.3144 90.0278 38.2627 90.0518 38.2386C90.0757 38.2179 90.1305 38.1938 90.216 38.1696L90.3972 39.2447ZM91.4509 33.2016C91.4509 33.2016 91.4512 33.2014 91.4518 33.201L91.4509 33.2016ZM93.7549 38.9862C93.7549 38.9863 93.7547 38.9861 93.7544 38.9856L93.7549 38.9862Z" fill="#303063" stroke="#303063" stroke-width="0.304625" />
        </g>
        <mask id="mask65_747_47370" style="mask-type:luminance" maskUnits="userSpaceOnUse" x="-10" y="-2" width="128" height="64">
            <path d="M118 -2H-10V62H118V-2Z" fill="white" />
        </mask>
        <g mask="url(#mask65_747_47370)">
            <path d="M97.0316 38.9608L97.0316 38.9608L97.0276 38.9639C97.0176 38.9718 96.9889 38.9862 96.9203 38.9862H95.916C95.9188 38.9744 95.9224 38.9608 95.927 38.9453L97.6872 33.3432C97.7127 33.2727 97.7404 33.228 97.7632 33.2026C97.765 33.2014 97.7715 33.1977 97.7862 33.1935C97.8095 33.1869 97.8459 33.1816 97.8985 33.1816H99.0478C99.1027 33.1816 99.1404 33.187 99.1638 33.1938C99.1735 33.1965 99.1789 33.199 99.1814 33.2003L99.1815 33.2004C99.2048 33.2277 99.2312 33.276 99.2594 33.3543L101.09 38.9589C101.092 38.9688 101.094 38.9779 101.096 38.9862H99.9952C99.9548 38.9862 99.9284 38.9813 99.9132 38.9763C99.9086 38.9747 99.9057 38.9734 99.904 38.9726L99.9032 38.9716C99.8871 38.9524 99.8636 38.9068 99.8336 38.8098L99.5332 37.7197L99.5024 37.6079H99.3864H97.5702H97.4561L97.424 37.7174L97.096 38.8362C97.0687 38.9243 97.0437 38.9519 97.0316 38.9608ZM98.648 34.4694L98.6185 34.3552H98.5005H98.4561H98.3394L98.309 34.4678L98.008 35.5842L98.0079 35.5845L97.7343 36.6079L97.6831 36.7996H97.8814H99.0683H99.2679L99.2152 36.6071L98.9385 35.5951L98.648 34.4694Z" fill="#303063" stroke="#303063" stroke-width="0.304625" />
        </g>
        <mask id="mask66_747_47370" style="mask-type:luminance" maskUnits="userSpaceOnUse" x="-10" y="-2" width="128" height="64">
            <path d="M118 -2H-10V62H118V-2Z" fill="white" />
        </mask>
        <g mask="url(#mask66_747_47370)">
            <path d="M59.8053 44.6304C59.954 44.7618 60.0707 44.9244 60.1582 45.1278C60.2355 45.3348 60.2772 45.5736 60.2772 45.8532C60.2772 46.0446 60.2487 46.2452 60.1966 46.4523C60.1437 46.6491 60.054 46.8295 59.9242 46.9914C59.7966 47.1505 59.6243 47.2851 59.4031 47.3902C59.1908 47.491 58.9108 47.5443 58.5586 47.5443H57.3615H57.2091V47.6966V50.0121C57.2091 50.013 57.2091 50.014 57.2091 50.0148C57.2086 50.0148 57.2081 50.0148 57.2075 50.0148H56.821C56.8179 50.0148 56.8151 50.0148 56.8126 50.0146C56.8126 50.0138 56.8126 50.013 56.8126 50.0121V44.2279C56.8159 44.2277 56.8199 44.2275 56.8245 44.2275H58.5586C58.8108 44.2275 59.0451 44.2633 59.2624 44.3309C59.4759 44.3973 59.655 44.4974 59.8053 44.6304ZM57.358 44.5776H57.2057V44.7299V47.0626V47.2149H57.358H58.5483C58.7951 47.2149 59.0082 47.1784 59.186 47.1028L59.186 47.1029L59.1886 47.1017C59.3611 47.0245 59.5022 46.9208 59.6089 46.7843C59.7115 46.6531 59.7819 46.5065 59.8244 46.3429L59.8245 46.3429L59.8251 46.3404C59.8623 46.1866 59.8807 46.0264 59.8807 45.8601C59.8807 45.4446 59.7581 45.1076 59.4855 44.8871C59.2263 44.6774 58.8921 44.5776 58.4936 44.5776H57.358Z" fill="#303063" stroke="#303063" stroke-width="0.304625" />
        </g>
        <mask id="mask67_747_47370" style="mask-type:luminance" maskUnits="userSpaceOnUse" x="-10" y="-2" width="128" height="64">
            <path d="M118 -2H-10V62H118V-2Z" fill="white" />
        </mask>
        <g mask="url(#mask67_747_47370)">
            <path d="M63.2396 44.5776H63.0873V44.7299V50.0121C63.0873 50.013 63.0873 50.014 63.0873 50.0148H62.6992C62.6946 50.0148 62.6906 50.0147 62.6873 50.0144C62.6873 50.0137 62.6873 50.0129 62.6873 50.0121V44.7299V44.5776H62.535H61.0129C61.0083 44.5776 61.0044 44.5774 61.0011 44.5771C61.0011 44.5764 61.0011 44.5756 61.0011 44.5748V44.2275C61.0016 44.2275 61.0021 44.2275 61.0027 44.2275H64.7787C64.7793 44.2275 64.7798 44.2275 64.7803 44.2275V44.5748H64.7803L64.7803 44.5774C64.7778 44.5775 64.775 44.5776 64.7719 44.5776H63.2396Z" fill="#303063" stroke="#303063" stroke-width="0.304625" />
        </g>
        <mask id="mask68_747_47370" style="mask-type:luminance" maskUnits="userSpaceOnUse" x="-10" y="-2" width="128" height="64">
            <path d="M118 -2H-10V62H118V-2Z" fill="white" />
        </mask>
        <g mask="url(#mask68_747_47370)">
            <path d="M67.7435 48.19V48.0619L68.5101 46.0208L68.5102 46.0204L69.18 44.2495C69.185 44.2409 69.189 44.2351 69.1918 44.2314C69.1923 44.2313 69.1929 44.2311 69.1935 44.231C69.2018 44.2292 69.2149 44.2275 69.233 44.2275H69.5935L67.7724 48.8121C67.6711 49.0365 67.5772 49.2323 67.4906 49.3967L67.4906 49.3967L67.49 49.3978C67.405 49.5625 67.3196 49.6918 67.2284 49.7929L67.2284 49.7929L67.2267 49.7948C67.1404 49.8937 67.0445 49.9663 66.9389 50.0151L66.9389 50.0151L66.9375 50.0158C66.8388 50.0628 66.711 50.091 66.5585 50.0975C66.4781 50.0974 66.3938 50.0942 66.3024 50.0876C66.2139 50.0812 66.122 50.0685 66.0198 50.046L66.0198 50.0459L66.0156 50.0451C65.9901 50.0402 65.9775 50.0343 65.9722 50.0311C65.972 50.0279 65.9722 50.0226 65.9734 50.0148L65.9734 50.0143L66.0109 49.7676C66.0118 49.7676 66.0127 49.7677 66.0137 49.7678L66.0137 49.7678L66.0183 49.768C66.1881 49.7752 66.3304 49.7716 66.4416 49.7644L66.4416 49.7645L66.4465 49.764C66.567 49.7522 66.675 49.7241 66.7704 49.6761C66.8723 49.6247 66.9501 49.5482 67.0127 49.4694C67.078 49.3871 67.1384 49.2789 67.1954 49.1502L67.3408 48.8607L67.3718 48.7989L67.3457 48.7348L65.5112 44.2378H65.9426C65.9519 44.2378 65.959 44.2383 65.9643 44.2389C65.9669 44.2429 65.97 44.2483 65.9732 44.255L66.6825 46.1068L66.6828 46.1075L67.4211 48.0909L67.458 48.19H67.5638H67.5912H67.7435Z" fill="#303063" stroke="#303063" stroke-width="0.304625" />
        </g>
        <mask id="mask69_747_47370" style="mask-type:luminance" maskUnits="userSpaceOnUse" x="-10" y="-2" width="128" height="64">
            <path d="M118 -2H-10V62H118V-2Z" fill="white" />
        </mask>
        <g mask="url(#mask69_747_47370)">
            <path d="M77.9422 45.5079V45.6602V50.0155C77.9422 50.0164 77.9422 50.0173 77.9422 50.0181C77.9447 50.0182 77.9475 50.0183 77.9507 50.0183H78.3371C78.3384 50.0183 78.3396 50.0183 78.3407 50.0182C78.3413 50.015 78.3418 50.0112 78.3422 50.0065V44.2275H78.002C77.9797 44.2275 77.9655 44.2299 77.9581 44.232L77.9422 45.5079ZM77.9422 45.5079H77.7899H77.7625H77.6641L77.6236 45.5977L77.3065 46.302L75.9769 49.0393L75.9769 49.0393L75.9763 49.0406C75.967 49.0603 75.9587 49.067 75.9554 49.0692C75.9528 49.0709 75.947 49.0742 75.9326 49.0742H75.6693C75.6512 49.0742 75.639 49.0724 75.6317 49.0707C75.6293 49.0702 75.6276 49.0697 75.6265 49.0693C75.6248 49.0677 75.6209 49.0632 75.6166 49.0536L75.6166 49.0535L75.6147 49.0496L74.23 46.2011L73.9465 45.5956L73.9055 45.5079H73.8086H73.7915H73.6392V45.6602V50.0155C73.6392 50.0165 73.6392 50.0174 73.6392 50.0183H73.2613C73.2608 50.0183 73.2603 50.0183 73.2598 50.0183C73.2597 50.0174 73.2597 50.0165 73.2597 50.0155V44.231H73.6444C73.6602 44.231 73.6711 44.2319 73.678 44.2329C73.6789 44.2341 73.6798 44.2354 73.6808 44.2369C73.6871 44.2462 73.6952 44.2602 73.7046 44.2805L73.7046 44.2805L73.7053 44.282L75.2166 47.451L75.654 48.4044L75.6947 48.4933H75.7924H75.8095H75.9079L75.9483 48.4036L76.3955 47.4132L77.9093 44.2981C77.9327 44.2619 77.9478 44.2423 77.9575 44.2321L77.9422 45.5079Z" fill="#303063" stroke="#303063" stroke-width="0.304625" />
        </g>
        <mask id="mask70_747_47370" style="mask-type:luminance" maskUnits="userSpaceOnUse" x="-10" y="-2" width="128" height="64">
            <path d="M118 -2H-10V62H118V-2Z" fill="white" />
        </mask>
        <g mask="url(#mask70_747_47370)">
            <path d="M79.9714 44.3929H79.9748V44.2406C79.9748 44.2358 79.9749 44.2314 79.9751 44.2275H80.3424C80.3467 44.2275 80.3505 44.2276 80.354 44.2278C80.3542 44.2317 80.3543 44.2359 80.3543 44.2406V48.9164V49.0687H80.5066H80.5339H80.6181L80.6629 48.9974L81.4187 47.795L81.4188 47.7949L83.6148 44.3097C83.6392 44.2771 83.6611 44.2503 83.679 44.2313C83.6861 44.2296 83.6996 44.2275 83.7217 44.2275H84.0961V50.0121C84.0961 50.0128 84.0961 50.0135 84.0961 50.0142C84.092 50.0146 84.087 50.0148 84.0809 50.0148H83.7012C83.6994 50.0148 83.6977 50.0148 83.6962 50.0148C83.6962 50.0139 83.6962 50.013 83.6962 50.0121V45.2812V45.1289H83.5439H83.5165H83.431L83.3865 45.2018L82.7748 46.2036L80.4226 49.9405C80.4226 49.9406 80.4225 49.9408 80.4224 49.9409C80.3968 49.9809 80.3777 50.0021 80.3664 50.0115C80.3654 50.0119 80.3634 50.0126 80.3602 50.0135C80.3515 50.0158 80.3361 50.0183 80.3116 50.0183H79.9714V44.3929Z" fill="#303063" stroke="#303063" stroke-width="0.304625" />
        </g>
        <mask id="mask71_747_47370" style="mask-type:luminance" maskUnits="userSpaceOnUse" x="-10" y="-2" width="128" height="64">
            <path d="M118 -2H-10V62H118V-2Z" fill="white" />
        </mask>
        <g mask="url(#mask71_747_47370)">
            <path d="M86.2659 47.5443H86.1136V47.6966V50.0121C86.1136 50.013 86.1136 50.014 86.1135 50.0148C86.113 50.0148 86.1125 50.0148 86.112 50.0148H85.7255C85.7223 50.0148 85.7195 50.0148 85.717 50.0146C85.717 50.0138 85.717 50.013 85.717 50.0121V44.2279C85.7204 44.2277 85.7243 44.2275 85.7289 44.2275H87.463C87.7152 44.2275 87.9496 44.2633 88.1668 44.3309C88.3803 44.3973 88.5594 44.4974 88.7097 44.6304C88.8582 44.7616 88.9748 44.9239 89.0622 45.1269C89.1371 45.336 89.1816 45.5755 89.1816 45.8532C89.1816 46.0464 89.1561 46.2468 89.1013 46.4512C89.0485 46.6485 88.9587 46.8292 88.8286 46.9914C88.7011 47.1505 88.5287 47.2851 88.3075 47.3902C88.0952 47.491 87.8153 47.5443 87.463 47.5443H86.2659ZM86.2625 44.5776H86.1101V44.7299V47.0626V47.2149H86.2625H87.4527C87.6996 47.2149 87.9126 47.1784 88.0904 47.1028L88.0904 47.1029L88.093 47.1017C88.2655 47.0245 88.4066 46.9208 88.5133 46.7843C88.6159 46.6531 88.6863 46.5065 88.7289 46.3429C88.7706 46.1824 88.7851 46.0243 88.7851 45.8601C88.7851 45.4446 88.6625 45.1076 88.3899 44.8871C88.1307 44.6774 87.7965 44.5776 87.398 44.5776H86.2625Z" fill="#303063" stroke="#303063" stroke-width="0.304625" />
        </g>
        <mask id="mask72_747_47370" style="mask-type:luminance" maskUnits="userSpaceOnUse" x="-10" y="-2" width="128" height="64">
            <path d="M118 -2H-10V62H118V-2Z" fill="white" />
        </mask>
        <g mask="url(#mask72_747_47370)">
            <path d="M91.1169 50.0412L91.1169 50.0412C91.2614 50.0611 91.4002 50.0711 91.5316 50.0779C91.6634 50.0847 91.7735 50.0881 91.8623 50.0881C92.3375 50.0881 92.7077 50.0015 92.9911 49.8308L92.9932 49.8295L92.9932 49.8295C93.2872 49.659 93.5143 49.4389 93.6781 49.1693C93.8452 48.8908 93.9623 48.5713 94.0278 48.2054C94.0913 47.8315 94.1248 47.444 94.1248 47.0497C94.1248 46.6596 94.1012 46.2836 94.0542 45.9219C94.0085 45.57 93.9112 45.2647 93.7674 45.0006C93.6245 44.7442 93.4196 44.54 93.145 44.3843C92.8788 44.2332 92.5112 44.1526 92.0265 44.1526C91.9414 44.1526 91.8326 44.1559 91.7068 44.1659C91.5796 44.176 91.4452 44.1895 91.3003 44.2065C91.1563 44.2267 91.0185 44.25 90.882 44.2827L90.8786 44.2835L90.8786 44.2835C90.7446 44.3124 90.6258 44.3511 90.5216 44.3905C90.5162 44.3926 90.5115 44.3946 90.5075 44.3964C90.5082 44.4004 90.5093 44.405 90.5107 44.4101L90.5145 44.4235L90.5139 44.4236L90.5547 44.6418C90.5563 44.6449 90.558 44.6479 90.5598 44.651C90.5609 44.6508 90.5621 44.6506 90.5633 44.6503L90.572 44.6486L90.572 44.6488C90.7925 44.6176 91.0162 44.5899 91.2456 44.5623C91.4818 44.5339 91.7411 44.5198 92.0265 44.5198C92.3544 44.5198 92.632 44.5777 92.8531 44.7011C93.0679 44.8208 93.2354 44.9849 93.3524 45.1891C93.4649 45.3856 93.5456 45.6166 93.5893 45.8733L93.5893 45.8736C93.6314 46.1244 93.6593 46.3853 93.6733 46.6595L93.6815 46.8195H93.5212H91.2501C91.2495 46.8195 91.249 46.8195 91.2485 46.8195V47.1696C91.249 47.1696 91.2495 47.1696 91.2501 47.1696H93.5314H93.6855L93.6838 47.3236C93.6802 47.6394 93.6485 47.9377 93.5956 48.2184C93.5414 48.5063 93.4465 48.7616 93.3129 48.9823C93.1748 49.2103 92.9837 49.3863 92.7517 49.5182C92.5096 49.6559 92.211 49.7173 91.8657 49.7173C91.587 49.7173 91.3082 49.7033 91.0328 49.6752M91.1169 50.0412L91.0483 49.5237M91.1169 50.0412L91.1131 50.0408C90.964 50.0241 90.8181 50.0007 90.672 49.9706C90.5266 49.9406 90.3983 49.9054 90.2925 49.8599M91.1169 50.0412L90.2925 49.8599M91.0328 49.6752L91.0483 49.5237M91.0328 49.6752C91.0329 49.6752 91.0329 49.6752 91.033 49.6752L91.0483 49.5237M91.0328 49.6752C90.758 49.6475 90.5226 49.6196 90.3171 49.5881L90.311 49.5871M91.0483 49.5237C90.7746 49.4961 90.5421 49.4685 90.3402 49.4375C90.2787 49.4237 90.2376 49.4306 90.2171 49.4548C90.1932 49.4789 90.1795 49.5064 90.1658 49.5374M90.311 49.5871L90.3114 49.5854C90.3152 49.5773 90.318 49.5722 90.3201 49.5688C90.3224 49.565 90.324 49.5633 90.3252 49.5621L90.3255 49.5624L90.3331 49.5535C90.3305 49.5565 90.3278 49.5593 90.325 49.5619C90.3235 49.5632 90.322 49.5645 90.3205 49.5657C90.3186 49.5674 90.3166 49.5688 90.3146 49.5702L90.3148 49.569L90.311 49.5682L90.1658 49.5374M90.311 49.5871L90.2601 49.8274L90.2573 49.8405L90.2568 49.8404C90.2567 49.8406 90.2566 49.8409 90.2565 49.8411C90.2647 49.8462 90.2764 49.8525 90.2925 49.8599M90.311 49.5871L90.3106 49.5871C90.3089 49.5905 90.3072 49.5944 90.3052 49.5989L90.1658 49.5374M90.1658 49.5374L90.1111 49.7959M93.5314 47.3219V47.4742H93.5275C93.5295 47.4239 93.5309 47.3731 93.5314 47.3219ZM93.5314 47.3219L93.3791 47.3202C93.3791 47.3207 93.3791 47.3213 93.3791 47.3219H93.5314ZM93.5212 46.6672L93.3691 46.6749C93.3689 46.6724 93.3688 46.6698 93.3687 46.6672H93.5212ZM93.5212 46.6672V46.5149H93.5119C93.5155 46.5652 93.5186 46.6159 93.5212 46.6672ZM90.1111 49.7959C90.0974 49.8407 90.0974 49.8751 90.1111 49.9061C90.1248 49.9371 90.1624 49.9682 90.2308 49.9992C90.3505 50.0509 90.4907 50.0888 90.6412 50.1198C90.7917 50.1508 90.9422 50.1749 91.0962 50.1921L90.1111 49.7959ZM90.1111 49.7959L90.2925 49.8599" fill="#303063" stroke="#303063" stroke-width="0.304625" />
        </g>
        <mask id="mask73_747_47370" style="mask-type:luminance" maskUnits="userSpaceOnUse" x="-10" y="-2" width="128" height="64">
            <path d="M118 -2H-10V62H118V-2Z" fill="white" />
        </mask>
        <g mask="url(#mask73_747_47370)">
            <path d="M95.2425 49.9751L95.2424 49.9751L95.2408 49.9809C95.2362 49.9974 95.232 50.0078 95.2289 50.0139C95.2286 50.014 95.2283 50.0141 95.228 50.0141C95.2216 50.0157 95.2115 50.0172 95.1961 50.0172H94.8105L96.6987 44.2698L96.699 44.2699L96.7015 44.2603C96.7047 44.2477 96.708 44.2414 96.7097 44.2387C96.7121 44.238 96.7179 44.2368 96.7284 44.2368H97.238C97.2447 44.2368 97.2503 44.237 97.2549 44.2374C97.2586 44.2451 97.2631 44.2558 97.2678 44.27C97.2679 44.27 97.2679 44.2701 97.2679 44.2701L99.1526 50.0138H98.6917C98.6889 50.0138 98.6865 50.0137 98.6842 50.0136C98.683 50.0102 98.6816 50.0061 98.6802 50.0015C98.6801 50.0013 98.6801 50.0012 98.68 50.001L98.2323 48.4963L98.1999 48.3874H98.0863H95.8596H95.7483L95.7145 48.4935L95.2425 49.9751ZM99.2492 50.0138H99.2492C99.2493 50.0138 99.2493 50.0138 99.2492 50.0138ZM97.1413 44.8237L97.1092 44.7143H96.9952H96.9678H96.8537L96.8217 44.8239L96.3943 46.2841L96.3941 46.2848L95.9292 47.845L95.8708 48.0408H96.0751H97.8913H98.0958L98.0373 47.8449L97.5791 46.3122L97.5789 46.3116L97.1413 44.8237Z" fill="#303063" stroke="#303063" stroke-width="0.304625" />
        </g>
    </g>
    <defs>
        <clipPath id="clip0_747_47370">
            <rect width="118" height="59" fill="white" />
        </clipPath>
    </defs>
</svg>
