<svg width="277" height="146" viewBox="0 0 277 146" fill="none" xmlns="http://www.w3.org/2000/svg">
<mask id="mask0_2_32778" style="mask-type:luminance" maskUnits="userSpaceOnUse" x="0" y="8" width="277" height="138">
<path d="M276.982 8.75781H0.49707V145.435H276.982V8.75781Z" fill="white"/>
</mask>
<g mask="url(#mask0_2_32778)">
<path d="M128.66 68.8801C126.864 83.7959 118.147 93.9654 103.651 98.1082C95.5389 100.426 89.8353 107.836 88.8601 116.6C90.3673 117.417 91.7414 118.521 92.761 120.022C90.5298 120.272 88.6532 120.287 86.8357 120.324C81.5237 120.287 75.8275 120.522 70.4268 120.022C71.7049 118.256 73.4189 116.946 75.3398 116.085C76.3225 111.008 77.6302 106.004 79.7062 101.169C82.5432 94.5688 86.3333 88.7187 92.7758 84.9512C95.7236 83.2366 98.9448 82.6112 102.196 81.9563C105.941 81.1983 109.369 79.7487 112.539 77.6C113.721 76.7979 115.213 75.3924 116.551 76.7758C118.028 78.3064 116.388 79.7487 115.45 80.8819C112.931 83.9357 109.502 85.8784 106.215 88.0123C111.349 87.4531 115.339 84.7746 118.745 81.1027C122.173 77.416 124.567 73.1039 126.399 68.4386C126.791 67.4305 127.101 65.6276 128.505 66.025C129.569 66.3267 128.778 67.8941 128.66 68.8801Z" fill="white"/>
</g>
<mask id="mask1_2_32778" style="mask-type:luminance" maskUnits="userSpaceOnUse" x="0" y="8" width="277" height="138">
<path d="M276.982 8.75781H0.49707V145.435H276.982V8.75781Z" fill="white"/>
</mask>
<g mask="url(#mask1_2_32778)">
<path d="M37.3339 65.3359C38.3609 66.6899 38.8928 68.1543 39.4986 69.5892C42.2027 75.9617 46.1406 81.3628 52.0732 85.1231C54.0163 86.3519 56.1145 87.3159 58.5747 87.2497C56.3805 85.6676 54.0975 84.2621 52.0067 82.5917C50.4995 81.3923 49.3248 79.9647 48.4826 78.2502C48.1427 77.5585 47.8841 76.8005 48.5786 76.1751C49.2288 75.5864 50.0341 75.7041 50.6916 76.0941C51.8516 76.7858 52.8785 77.6836 54.0532 78.3532C57.7103 80.4283 61.7442 81.3334 65.8594 82.0325C71.9989 83.0847 76.5278 86.6683 80.2884 91.3999C81.042 92.3491 81.0567 93.2469 80.4361 94.2918C78.2419 97.9931 76.8234 102.048 75.198 106.014C74.9837 106.536 74.9911 107.353 74.208 107.331C73.5948 107.316 73.58 106.573 73.3362 106.132C70.7725 101.511 66.2805 99.4648 61.663 97.7871C56.8755 96.0431 52.2727 94.0269 48.4013 90.6788C41.2053 84.4461 37.6295 76.3811 36.6912 67.0505C36.6542 66.5575 36.573 65.9982 37.3339 65.3359Z" fill="white"/>
</g>
<mask id="mask2_2_32778" style="mask-type:luminance" maskUnits="userSpaceOnUse" x="0" y="8" width="277" height="138">
<path d="M276.982 8.75781H0.49707V145.435H276.982V8.75781Z" fill="white"/>
</mask>
<g mask="url(#mask2_2_32778)">
<path d="M63.6129 61.256C64.2187 61.5062 64.7876 61.7858 65.3195 62.0802C66.3982 62.6762 67.3513 63.3385 68.2157 64.0596C69.9519 65.4945 71.3334 67.1502 72.4417 68.9678C73.5573 70.7853 74.3995 72.7574 74.9019 74.9503C75.1457 76.0467 75.3009 77.1946 75.3378 78.4235C75.3526 79.0342 75.3452 79.6671 75.2935 80.322C75.2344 80.9843 75.1531 81.6539 74.961 82.3897C72.8111 78.5633 70.4838 74.8325 68.0014 71.2121C70.1587 75.0459 72.4786 78.7693 74.961 82.3897C74.2222 82.2131 73.5794 81.985 72.9662 81.7348C72.3604 81.4846 71.7915 81.205 71.2522 80.9107C70.1735 80.3146 69.2204 79.645 68.3486 78.9312C66.6198 77.489 65.2383 75.8333 64.13 74.0157C63.0218 72.1982 62.1796 70.2187 61.692 68.0259C61.4482 66.9368 61.293 65.7742 61.2561 64.56C61.2339 63.9419 61.2487 63.3164 61.3004 62.6615C61.3521 62.0066 61.4408 61.337 61.6181 60.5938C62.3643 60.7704 62.9997 61.0058 63.6129 61.256Z" fill="#0071BC"/>
</g>
<mask id="mask3_2_32778" style="mask-type:luminance" maskUnits="userSpaceOnUse" x="0" y="8" width="277" height="138">
<path d="M276.982 8.75781H0.49707V145.435H276.982V8.75781Z" fill="white"/>
</mask>
<g mask="url(#mask3_2_32778)">
<path d="M68.083 71.3047C68.6741 72.2098 69.2947 73.1075 69.9153 74.0126C70.5359 74.9177 71.1638 75.8228 71.7623 76.7426C72.3681 77.6625 72.9444 78.5896 73.4837 79.5315C74.023 80.4734 74.518 81.43 74.9392 82.4014C74.2521 81.5551 73.6093 80.6721 73.0109 79.7596C72.4124 78.8545 71.8436 77.92 71.2968 76.9781C70.7649 76.0436 70.1812 75.0943 69.6197 74.1451C69.073 73.1958 68.5337 72.2392 68.083 71.3047Z" fill="white"/>
</g>
<mask id="mask4_2_32778" style="mask-type:luminance" maskUnits="userSpaceOnUse" x="0" y="8" width="277" height="138">
<path d="M276.982 8.75781H0.49707V145.435H276.982V8.75781Z" fill="white"/>
</mask>
<g mask="url(#mask4_2_32778)">
<path d="M67.5808 69.0738C67.8837 69.1989 68.1645 69.3387 68.4378 69.4859C68.9772 69.7876 69.45 70.1187 69.8859 70.4793C70.7503 71.2004 71.4448 72.0246 71.9989 72.9297C72.553 73.8348 72.9815 74.8208 73.2253 75.9246C73.3509 76.4691 73.4248 77.0504 73.4396 77.6612C73.447 77.9629 73.447 78.2793 73.4174 78.6104C73.3878 78.9416 73.3435 79.2727 73.2549 79.648C72.1762 77.7348 71.0163 75.8731 69.7751 74.0629C70.8537 75.9761 72.0137 77.8378 73.2549 79.648C72.8855 79.5597 72.5604 79.4493 72.2575 79.3169C71.9546 79.1918 71.6664 79.052 71.4005 78.9048C70.8611 78.6104 70.3809 78.272 69.9524 77.9187C69.088 77.1976 68.4009 76.3661 67.8468 75.461C67.2927 74.5559 66.8715 73.5625 66.6277 72.4661C66.5021 71.9215 66.4283 71.3402 66.4061 70.7294C66.3987 70.4204 66.4061 70.1113 66.4283 69.7802C66.4578 69.4564 66.4947 69.1179 66.5908 68.75C66.9528 68.8309 67.2705 68.9487 67.5808 69.0738Z" fill="#0071BC"/>
</g>
<mask id="mask5_2_32778" style="mask-type:luminance" maskUnits="userSpaceOnUse" x="0" y="8" width="277" height="138">
<path d="M276.982 8.75781H0.49707V145.435H276.982V8.75781Z" fill="white"/>
</mask>
<g mask="url(#mask5_2_32778)">
<path d="M68.1562 71.3984C68.7251 72.2962 69.3531 73.1866 69.9959 74.0769C70.6387 74.9673 71.2962 75.8577 71.9242 76.7628C72.5522 77.6679 73.1432 78.5804 73.6604 79.5223C74.1776 80.4642 74.6208 81.4208 74.9311 82.4142C74.1702 81.6194 73.5126 80.7659 72.9068 79.8755C72.3084 78.9777 71.769 78.0432 71.2593 77.0866C70.7716 76.1521 70.1732 75.1954 69.6117 74.2315C69.0502 73.2749 68.5183 72.3183 68.1562 71.3984Z" fill="white"/>
</g>
<mask id="mask6_2_32778" style="mask-type:luminance" maskUnits="userSpaceOnUse" x="0" y="8" width="277" height="138">
<path d="M276.982 8.75781H0.49707V145.435H276.982V8.75781Z" fill="white"/>
</mask>
<g mask="url(#mask6_2_32778)">
<path d="M65.2464 42.1537C65.8227 42.4849 66.3547 42.8454 66.8497 43.2134C67.8471 43.9566 68.7189 44.7439 69.4946 45.5902C71.0461 47.2679 72.206 49.1076 73.0852 51.0796C73.9644 53.0517 74.5481 55.1489 74.7549 57.4154C74.851 58.5486 74.851 59.7259 74.7254 60.9622C74.6589 61.5803 74.5628 62.2058 74.4225 62.8607C74.2747 63.5156 74.1048 64.1778 73.8093 64.8916C72.1617 60.7561 70.3295 56.7016 68.3199 52.7353C69.9748 56.8708 71.7997 60.918 73.8093 64.8843C73.0926 64.612 72.4794 64.2956 71.8957 63.9571C71.3195 63.626 70.7875 63.2654 70.2851 62.9048C69.2877 62.1616 68.4086 61.3669 67.6402 60.5354C66.0961 58.8576 64.9361 57.0106 64.0644 55.0385C63.1999 53.0738 62.6163 50.9693 62.4168 48.6955C62.3134 47.5696 62.3134 46.3849 62.439 45.156C62.4981 44.5379 62.6015 43.9124 62.7419 43.2575C62.8823 42.61 63.0596 41.9403 63.3403 41.2266C64.057 41.4988 64.6628 41.8226 65.2464 42.1537Z" fill="#0071BC"/>
</g>
<mask id="mask7_2_32778" style="mask-type:luminance" maskUnits="userSpaceOnUse" x="0" y="8" width="277" height="138">
<path d="M276.982 8.75781H0.49707V145.435H276.982V8.75781Z" fill="white"/>
</mask>
<g mask="url(#mask7_2_32778)">
<path d="M68.3867 52.8359C68.8596 53.822 69.3619 54.808 69.8643 55.8014C70.3667 56.7948 70.8691 57.7882 71.3567 58.789C71.837 59.7898 72.3024 60.7979 72.7161 61.8134C73.1299 62.8288 73.4993 63.8517 73.8022 64.8892C73.2259 63.9473 72.7014 62.976 72.2211 61.9826C71.7409 60.9892 71.2976 59.9811 70.8765 58.9656C70.4628 57.9575 70.0047 56.9273 69.5688 55.8971C69.1255 54.8595 68.7118 53.8367 68.3867 52.8359Z" fill="white"/>
</g>
<mask id="mask8_2_32778" style="mask-type:luminance" maskUnits="userSpaceOnUse" x="0" y="8" width="277" height="138">
<path d="M276.982 8.75781H0.49707V145.435H276.982V8.75781Z" fill="white"/>
</mask>
<g mask="url(#mask8_2_32778)">
<path d="M68.1797 50.5334C68.4678 50.7027 68.7338 50.8793 68.985 51.0633C69.4874 51.4312 69.9159 51.8285 70.3075 52.248C71.0832 53.0869 71.6669 54.0067 72.1028 54.9927C72.5387 55.9788 72.8342 57.0237 72.9376 58.1569C72.9893 58.7235 72.9893 59.3122 72.9229 59.9303C72.8933 60.2394 72.8416 60.5558 72.7751 60.8796C72.7012 61.2033 72.6126 61.5345 72.4722 61.895C71.6521 59.8273 70.7286 57.8037 69.7238 55.8242C70.5513 57.892 71.4674 59.9156 72.4722 61.895C72.1102 61.7626 71.8073 61.6007 71.5117 61.4314C71.2236 61.2696 70.9576 61.0856 70.7064 60.9016C70.204 60.5337 69.7681 60.1363 69.3839 59.7169C68.6082 58.878 68.0319 57.9509 67.596 56.9648C67.1601 55.9788 66.872 54.9339 66.7686 53.7933C66.7168 53.2267 66.7168 52.638 66.7833 52.0272C66.8129 51.7182 66.8646 51.4018 66.9311 51.078C66.9976 50.7542 67.0862 50.4231 67.2266 50.0625C67.5813 50.2097 67.8842 50.3642 68.1797 50.5334Z" fill="#0071BC"/>
</g>
<mask id="mask9_2_32778" style="mask-type:luminance" maskUnits="userSpaceOnUse" x="0" y="8" width="277" height="138">
<path d="M276.982 8.75781H0.49707V145.435H276.982V8.75781Z" fill="white"/>
</mask>
<g mask="url(#mask9_2_32778)">
<path d="M68.4463 52.9375C68.897 53.9162 69.4067 54.8875 69.9313 55.8736C70.4559 56.8522 70.9952 57.8383 71.505 58.8243C72.0147 59.8177 72.4876 60.8111 72.8792 61.8266C73.2707 62.8347 73.5884 63.8576 73.7731 64.9025C73.123 64.0047 72.5689 63.0629 72.0886 62.0842C71.6084 61.1055 71.1873 60.09 70.8031 59.0672C70.4337 58.0664 69.9682 57.0215 69.5323 55.9839C69.0964 54.9317 68.6901 53.9015 68.4463 52.9375Z" fill="white"/>
</g>
<mask id="mask10_2_32778" style="mask-type:luminance" maskUnits="userSpaceOnUse" x="0" y="8" width="277" height="138">
<path d="M276.982 8.75781H0.49707V145.435H276.982V8.75781Z" fill="white"/>
</mask>
<g mask="url(#mask10_2_32778)">
<path d="M45.4535 55.4712C46.1406 55.6699 46.7907 55.898 47.404 56.1555C48.6378 56.6706 49.7534 57.2667 50.7803 57.9437C52.8342 59.2829 54.5335 60.9018 55.9594 62.7267C57.3927 64.5516 58.5526 66.5826 59.3579 68.8932C59.7569 70.0485 60.0672 71.27 60.2593 72.5945C60.3553 73.2494 60.4218 73.9338 60.444 74.6475C60.4661 75.3687 60.4587 76.1045 60.3405 76.9213C57.5404 73.0507 54.563 69.3052 51.4231 65.6922C54.2306 69.5702 57.2006 73.3083 60.3405 76.9213C59.5204 76.8257 58.7964 76.6564 58.1019 76.4577C57.4148 76.2591 56.7647 76.031 56.1441 75.7808C54.9029 75.2657 53.7873 74.6696 52.7603 74C50.7064 72.6534 49.0146 71.0271 47.5887 69.2022C46.1701 67.3773 45.0102 65.339 44.2049 63.0211C43.8059 61.8731 43.4956 60.6369 43.3036 59.3271C43.2075 58.6648 43.141 57.9878 43.1189 57.274C43.0967 56.5603 43.1041 55.8244 43.2075 55.0002C44.0424 55.1033 44.759 55.2725 45.4535 55.4712Z" fill="#0071BC"/>
</g>
<mask id="mask11_2_32778" style="mask-type:luminance" maskUnits="userSpaceOnUse" x="0" y="8" width="277" height="138">
<path d="M276.982 8.75781H0.49707V145.435H276.982V8.75781Z" fill="white"/>
</mask>
<g mask="url(#mask11_2_32778)">
<path d="M51.5264 65.7891C52.28 66.6942 53.0631 67.5919 53.8388 68.497C54.622 69.4021 55.4051 70.3072 56.1661 71.227C56.9271 72.1468 57.6733 73.074 58.3751 74.0233C59.077 74.9725 59.7346 75.9439 60.3256 76.9446C59.4834 76.1057 58.6854 75.2227 57.9245 74.3176C57.1635 73.4125 56.4395 72.478 55.7302 71.5214C55.0357 70.5795 54.2895 69.6302 53.5581 68.6663C52.8488 67.7096 52.1396 66.7457 51.5264 65.7891Z" fill="white"/>
</g>
<mask id="mask12_2_32778" style="mask-type:luminance" maskUnits="userSpaceOnUse" x="0" y="8" width="277" height="138">
<path d="M276.982 8.75781H0.49707V145.435H276.982V8.75781Z" fill="white"/>
</mask>
<g mask="url(#mask12_2_32778)">
<path d="M50.7149 63.4386C51.0548 63.5343 51.3799 63.652 51.6902 63.7845C52.3108 64.042 52.8649 64.3363 53.382 64.6748C54.409 65.3445 55.2586 66.1539 55.9753 67.0664C56.6919 67.9788 57.2756 68.9943 57.6745 70.1496C57.874 70.7236 58.0292 71.3417 58.1252 71.9966C58.1695 72.3277 58.2065 72.6662 58.2212 73.0268C58.236 73.3873 58.2286 73.7553 58.1695 74.1674C56.7658 72.2321 55.2808 70.3556 53.7145 68.5528C55.1182 70.4881 56.6032 72.3645 58.1695 74.1674C57.7558 74.1158 57.4012 74.0349 57.0539 73.9319C56.7141 73.8362 56.389 73.7185 56.0787 73.5934C55.4581 73.3432 54.8966 73.0415 54.3868 72.703C53.3599 72.0334 52.5176 71.2166 51.801 70.3041C51.0917 69.3917 50.5155 68.3762 50.1091 67.2135C49.9096 66.6396 49.7545 66.0214 49.6584 65.3665C49.6067 65.0354 49.5772 64.6969 49.5624 64.3363C49.5476 63.9758 49.555 63.6078 49.6067 63.2031C50.0057 63.2546 50.3677 63.3429 50.7149 63.4386Z" fill="#0071BC"/>
</g>
<mask id="mask13_2_32778" style="mask-type:luminance" maskUnits="userSpaceOnUse" x="0" y="8" width="277" height="138">
<path d="M276.982 8.75781H0.49707V145.435H276.982V8.75781Z" fill="white"/>
</mask>
<g mask="url(#mask13_2_32778)">
<path d="M51.623 65.8828C52.3471 66.7879 53.1302 67.6709 53.9281 68.5613C54.7261 69.4443 55.5387 70.3347 56.3293 71.2325C57.1124 72.1302 57.866 73.05 58.5457 73.9993C59.2254 74.9485 59.8312 75.9272 60.3189 76.9574C59.4175 76.1848 58.5974 75.3312 57.8438 74.4334C57.0902 73.5357 56.3884 72.5938 55.7087 71.6225C55.0585 70.6806 54.2975 69.7166 53.5661 68.7526C52.8421 67.7887 52.1476 66.8247 51.623 65.8828Z" fill="white"/>
</g>
<mask id="mask14_2_32778" style="mask-type:luminance" maskUnits="userSpaceOnUse" x="0" y="8" width="277" height="138">
<path d="M276.982 8.75781H0.49707V145.435H276.982V8.75781Z" fill="white"/>
</mask>
<g mask="url(#mask14_2_32778)">
<path d="M52.1098 44.1864C52.494 44.341 52.856 44.5176 53.2033 44.7015C53.8904 45.0694 54.5036 45.4815 55.0577 45.9378C56.1733 46.8355 57.0599 47.8731 57.7839 49.021C58.5079 50.1616 59.062 51.4125 59.3945 52.8033C59.557 53.495 59.6679 54.2235 59.6974 55.0035C59.7122 55.3935 59.7122 55.7908 59.6826 56.2103C59.6531 56.6297 59.6014 57.0565 59.4905 57.5275C58.0942 55.1139 56.587 52.7665 54.9764 50.4853C56.3801 52.8989 57.8799 55.2463 59.4905 57.5275C59.0177 57.4244 58.6114 57.2846 58.2198 57.1301C57.8356 56.9756 57.4736 56.8063 57.1263 56.6224C56.4393 56.2544 55.826 55.835 55.2719 55.3861C54.1637 54.4884 53.2698 53.4435 52.5531 52.2955C51.8365 51.155 51.2824 49.904 50.9499 48.5132C50.7874 47.8215 50.6765 47.0857 50.6396 46.313C50.6248 45.923 50.6248 45.5257 50.6544 45.1062C50.6839 44.6868 50.7282 44.26 50.8391 43.7891C51.3119 43.8921 51.7183 44.0319 52.1098 44.1864Z" fill="#0071BC"/>
</g>
<mask id="mask15_2_32778" style="mask-type:luminance" maskUnits="userSpaceOnUse" x="0" y="8" width="277" height="138">
<path d="M276.982 8.75781H0.49707V145.435H276.982V8.75781Z" fill="white"/>
</mask>
<g mask="url(#mask15_2_32778)">
<path d="M55.0361 50.5312C55.4425 51.0979 55.8562 51.6571 56.2552 52.2237C56.4547 52.496 56.6467 52.7756 56.8462 53.0479C57.0531 53.3422 57.2526 53.6292 57.452 53.9235C57.8288 54.4828 58.2204 55.0347 58.5603 55.616C58.5676 55.6307 58.575 55.6454 58.5824 55.6602C58.8632 56.1753 59.3803 57.073 59.469 57.5292C58.9888 57.0215 58.5603 56.477 58.1687 55.9103C57.7771 55.3437 57.4151 54.7551 57.0679 54.1443C56.7576 53.5998 56.3734 52.9816 56.004 52.3635C55.9892 52.3341 55.9744 52.312 55.9596 52.2826C55.5976 51.6645 55.2504 51.0537 55.0361 50.5312Z" fill="white"/>
</g>
<mask id="mask16_2_32778" style="mask-type:luminance" maskUnits="userSpaceOnUse" x="0" y="8" width="277" height="138">
<path d="M276.982 8.75781H0.49707V145.435H276.982V8.75781Z" fill="white"/>
</mask>
<g mask="url(#mask16_2_32778)">
<path d="M54.6967 49.1249C54.8888 49.1985 55.0735 49.2868 55.2434 49.3825C55.5906 49.5664 55.8935 49.7725 56.1743 50.0006C56.7284 50.4495 57.1791 50.9719 57.5411 51.5385C57.9031 52.1125 58.1765 52.7306 58.3464 53.4297C58.4277 53.7755 58.4794 54.1434 58.5015 54.5334C58.5089 54.7248 58.5089 54.9308 58.4941 55.1368C58.4794 55.3502 58.4572 55.5636 58.3981 55.7991C57.6962 54.5923 56.95 53.4149 56.1447 52.2744C56.8466 53.4812 57.6002 54.6585 58.3981 55.7991C58.1617 55.7476 57.9548 55.674 57.7627 55.6004C57.5706 55.5195 57.3859 55.4385 57.216 55.3429C56.8688 55.1589 56.5659 54.9529 56.2851 54.7248C55.731 54.2759 55.2877 53.7534 54.9257 53.1795C54.5637 52.6055 54.2903 51.98 54.1278 51.2883C54.0465 50.9425 53.9948 50.5746 53.9726 50.1919C53.9652 50.0006 53.9652 49.7945 53.98 49.5885C53.9948 49.3825 54.017 49.1691 54.0761 48.9336C54.2977 48.9777 54.5046 49.0513 54.6967 49.1249Z" fill="#0071BC"/>
</g>
<mask id="mask17_2_32778" style="mask-type:luminance" maskUnits="userSpaceOnUse" x="0" y="8" width="277" height="138">
<path d="M276.982 8.75781H0.49707V145.435H276.982V8.75781Z" fill="white"/>
</mask>
<g mask="url(#mask17_2_32778)">
<path d="M55.0879 50.5938C55.7011 51.4179 56.3365 52.2347 56.9571 53.0589C57.5777 53.883 58.1835 54.7145 58.7302 55.5755C58.9149 55.9802 59.6316 57.2312 59.4543 57.5476C58.9002 57.0987 58.4421 56.5836 58.0431 56.0244C57.6442 55.4651 57.3043 54.8691 56.994 54.2436C56.7428 53.7211 56.3217 53.0441 55.9301 52.3745C55.546 51.7049 55.1913 51.0573 55.0879 50.5938Z" fill="white"/>
</g>
<mask id="mask18_2_32778" style="mask-type:luminance" maskUnits="userSpaceOnUse" x="0" y="8" width="277" height="138">
<path d="M276.982 8.75781H0.49707V145.435H276.982V8.75781Z" fill="white"/>
</mask>
<g mask="url(#mask18_2_32778)">
<path d="M104.721 61.256C104.115 61.5062 103.546 61.7858 103.014 62.0802C101.936 62.6762 100.983 63.3385 100.118 64.0596C98.3819 65.4945 97.0003 67.1502 95.8921 68.9678C94.7765 70.7853 93.9343 72.7574 93.4319 74.9503C93.1881 76.0467 93.0329 77.1946 92.996 78.4235C92.9812 79.0342 92.9886 79.6671 93.0403 80.322C93.0994 80.9843 93.1807 81.6539 93.3728 82.3897C95.5227 78.5633 97.85 74.8325 100.332 71.2121C98.175 75.0459 95.8552 78.7693 93.3728 82.3897C94.1116 82.2131 94.7544 81.985 95.3676 81.7348C95.9734 81.4846 96.5423 81.205 97.0816 80.9107C98.1603 80.3146 99.1133 79.645 99.9851 78.9312C101.714 77.489 103.096 75.8333 104.204 74.0157C105.312 72.1982 106.154 70.2187 106.642 68.0259C106.893 66.9368 107.041 65.7742 107.078 64.56C107.1 63.9419 107.085 63.3164 107.033 62.6615C106.982 62.0066 106.893 61.337 106.716 60.5938C105.977 60.7704 105.334 61.0058 104.721 61.256Z" fill="#0071BC"/>
</g>
<mask id="mask19_2_32778" style="mask-type:luminance" maskUnits="userSpaceOnUse" x="0" y="8" width="277" height="138">
<path d="M276.982 8.75781H0.49707V145.435H276.982V8.75781Z" fill="white"/>
</mask>
<g mask="url(#mask19_2_32778)">
<path d="M100.294 71.3281C99.7477 72.2627 99.2084 73.2119 98.669 74.1685C98.1297 75.1251 97.5904 76.0817 97.0289 77.031C96.4748 77.9729 95.8985 78.9074 95.2853 79.8052C94.6795 80.7029 94.0367 81.5712 93.3496 82.3807C93.8077 81.3873 94.3174 80.4306 94.8716 79.4887C95.4183 78.5469 96.0093 77.6344 96.6152 76.7293C97.2136 75.8389 97.812 74.897 98.4178 73.9772C99.0311 73.05 99.6517 72.1449 100.294 71.3281Z" fill="white"/>
</g>
<mask id="mask20_2_32778" style="mask-type:luminance" maskUnits="userSpaceOnUse" x="0" y="8" width="277" height="138">
<path d="M276.982 8.75781H0.49707V145.435H276.982V8.75781Z" fill="white"/>
</mask>
<g mask="url(#mask20_2_32778)">
<path d="M100.76 69.0738C100.457 69.1989 100.177 69.3387 99.9033 69.4859C99.364 69.7876 98.8911 70.1187 98.4552 70.4793C97.5908 71.2004 96.8964 72.0246 96.3422 72.9297C95.7881 73.8348 95.3596 74.8208 95.1158 75.9246C94.9902 76.4691 94.9163 77.0504 94.9016 77.6612C94.8942 77.9629 94.8942 78.2793 94.9237 78.6104C94.9533 78.9416 94.9976 79.2727 95.0863 79.648C96.1649 77.7348 97.3249 75.8731 98.5661 74.0629C97.4874 75.9761 96.3275 77.8378 95.0863 79.648C95.4557 79.5597 95.7808 79.4493 96.0837 79.3169C96.3866 79.1918 96.6747 79.052 96.9407 78.9048C97.48 78.6104 97.9602 78.272 98.3888 77.9187C99.2532 77.1976 99.9403 76.3661 100.494 75.461C101.048 74.5559 101.47 73.5625 101.713 72.4661C101.839 71.9215 101.913 71.3402 101.935 70.7294C101.942 70.4204 101.935 70.1113 101.913 69.7802C101.883 69.4564 101.846 69.1179 101.75 68.75C101.388 68.8309 101.063 68.9487 100.76 69.0738Z" fill="#0071BC"/>
</g>
<mask id="mask21_2_32778" style="mask-type:luminance" maskUnits="userSpaceOnUse" x="0" y="8" width="277" height="138">
<path d="M276.982 8.75781H0.49707V145.435H276.982V8.75781Z" fill="white"/>
</mask>
<g mask="url(#mask21_2_32778)">
<path d="M100.251 71.4375C99.6897 72.3426 99.1725 73.2918 98.6554 74.2632C98.1382 75.2345 97.6284 76.2132 97.0891 77.1698C96.5498 78.1264 95.9957 79.0683 95.3751 79.944C94.7618 80.8196 94.0895 81.6438 93.3359 82.3649C93.7127 81.3347 94.1856 80.3708 94.7323 79.4362C95.2716 78.5017 95.8774 77.6113 96.5128 76.7283C97.1334 75.8821 97.7392 74.9181 98.3525 73.9909C98.9657 73.0637 99.5937 72.166 100.251 71.4375Z" fill="white"/>
</g>
<mask id="mask22_2_32778" style="mask-type:luminance" maskUnits="userSpaceOnUse" x="0" y="8" width="277" height="138">
<path d="M276.982 8.75781H0.49707V145.435H276.982V8.75781Z" fill="white"/>
</mask>
<g mask="url(#mask22_2_32778)">
<path d="M103.095 42.1542C102.519 42.4853 101.987 42.8459 101.492 43.2138C100.494 43.957 99.6224 44.7444 98.8466 45.5906C97.2951 47.2684 96.1352 49.108 95.256 51.0801C94.3768 53.0522 93.7932 55.1494 93.5863 57.4158C93.4902 58.549 93.4902 59.7264 93.6158 60.9626C93.6823 61.5807 93.7784 62.2062 93.9188 62.8611C94.0665 63.516 94.2364 64.1783 94.532 64.8921C96.1795 60.7639 98.0118 56.7094 100.021 52.7431C98.3664 56.8786 96.5415 60.9258 94.532 64.8921C95.2486 64.6198 95.8692 64.3034 96.4455 63.9649C97.0218 63.6338 97.5537 63.2732 98.0561 62.9126C99.0535 62.1694 99.9327 61.3747 100.701 60.5432C102.245 58.8654 103.405 57.0184 104.277 55.0464C105.149 53.0816 105.725 50.9771 105.924 48.7033C106.028 47.5774 106.028 46.3927 105.902 45.1638C105.843 44.5457 105.74 43.9202 105.599 43.2653C105.459 42.6178 105.282 41.9482 105.001 41.2344C104.284 41.4993 103.678 41.8231 103.095 42.1542Z" fill="#0071BC"/>
</g>
<mask id="mask23_2_32778" style="mask-type:luminance" maskUnits="userSpaceOnUse" x="0" y="8" width="277" height="138">
<path d="M276.982 8.75781H0.49707V145.435H276.982V8.75781Z" fill="white"/>
</mask>
<g mask="url(#mask23_2_32778)">
<path d="M99.9927 52.8516C99.5642 53.8597 99.1579 54.8899 98.7441 55.9201C98.3304 56.9503 97.9167 57.9878 97.4808 59.0107C97.0449 60.0335 96.5942 61.0416 96.1066 62.0277C95.619 63.0063 95.087 63.963 94.5107 64.8754C94.8358 63.8158 95.2274 62.7856 95.6485 61.7701C96.0696 60.7546 96.5425 59.7539 97.0301 58.7678C97.5103 57.7891 97.9832 56.7663 98.4708 55.7655C98.9658 54.7501 99.4608 53.7567 99.9927 52.8516Z" fill="white"/>
</g>
<mask id="mask24_2_32778" style="mask-type:luminance" maskUnits="userSpaceOnUse" x="0" y="8" width="277" height="138">
<path d="M276.982 8.75781H0.49707V145.435H276.982V8.75781Z" fill="white"/>
</mask>
<g mask="url(#mask24_2_32778)">
<path d="M100.162 50.5334C99.8741 50.7027 99.6081 50.8793 99.3569 51.0633C98.8545 51.4312 98.426 51.8285 98.0345 52.248C97.2587 53.0869 96.6751 54.0067 96.2392 54.9927C95.8033 55.9788 95.5077 57.0237 95.4043 58.1569C95.3526 58.7235 95.3526 59.3122 95.4191 59.9303C95.4486 60.2394 95.5003 60.5558 95.5668 60.8796C95.6407 61.2033 95.7294 61.5345 95.8697 61.895C96.6898 59.8273 97.6133 57.8037 98.6181 55.8242C97.7907 57.892 96.8745 59.9156 95.8697 61.895C96.2318 61.7626 96.5347 61.6007 96.8302 61.4314C97.1183 61.2696 97.3843 61.0856 97.6355 60.9016C98.1379 60.5337 98.5738 60.1363 98.958 59.7169C99.7337 58.878 100.31 57.9509 100.746 56.9648C101.182 55.9788 101.47 54.9339 101.573 53.7933C101.625 53.2267 101.625 52.638 101.559 52.0272C101.529 51.7182 101.477 51.4018 101.411 51.078C101.344 50.7542 101.256 50.4231 101.115 50.0625C100.761 50.2097 100.45 50.3642 100.162 50.5334Z" fill="#0071BC"/>
</g>
<mask id="mask25_2_32778" style="mask-type:luminance" maskUnits="userSpaceOnUse" x="0" y="8" width="277" height="138">
<path d="M276.982 8.75781H0.49707V145.435H276.982V8.75781Z" fill="white"/>
</mask>
<g mask="url(#mask25_2_32778)">
<path d="M99.9701 52.9688C99.5342 53.9474 99.1353 54.9776 98.7437 56.0152C98.3521 57.0527 97.968 58.105 97.5616 59.1426C97.1479 60.1728 96.712 61.1882 96.2096 62.1522C95.7072 63.1162 95.1457 64.0286 94.4882 64.8601C94.732 63.7784 95.0792 62.7409 95.5003 61.7328C95.9214 60.7246 96.4091 59.746 96.9262 58.7746C97.436 57.8401 97.9162 56.7952 98.4039 55.7871C98.8915 54.7789 99.4012 53.7929 99.9701 52.9688Z" fill="white"/>
</g>
<mask id="mask26_2_32778" style="mask-type:luminance" maskUnits="userSpaceOnUse" x="0" y="8" width="277" height="138">
<path d="M276.982 8.75781H0.49707V145.435H276.982V8.75781Z" fill="white"/>
</mask>
<g mask="url(#mask26_2_32778)">
<path d="M122.88 55.4712C122.193 55.6699 121.543 55.898 120.93 56.1555C119.696 56.6706 118.58 57.2667 117.554 57.9437C115.5 59.2829 113.8 60.9018 112.374 62.7267C110.941 64.5516 109.789 66.5826 108.976 68.8932C108.577 70.0485 108.267 71.27 108.075 72.5945C107.979 73.2494 107.912 73.9338 107.89 74.6475C107.868 75.3687 107.875 76.1045 107.993 76.9213C110.793 73.0507 113.771 69.3052 116.911 65.6922C114.103 69.5702 111.133 73.3083 107.993 76.9213C108.813 76.8257 109.537 76.6564 110.232 76.4577C110.919 76.2591 111.569 76.031 112.19 75.7808C113.431 75.2657 114.547 74.6696 115.574 74C117.627 72.6534 119.319 71.0271 120.745 69.2022C122.164 67.3773 123.324 65.339 124.129 63.0211C124.528 61.8731 124.838 60.6369 125.03 59.3271C125.126 58.6648 125.193 57.9878 125.215 57.274C125.237 56.5603 125.23 55.8244 125.126 55.0002C124.299 55.1033 123.575 55.2725 122.88 55.4712Z" fill="#0071BC"/>
</g>
<mask id="mask27_2_32778" style="mask-type:luminance" maskUnits="userSpaceOnUse" x="0" y="8" width="277" height="138">
<path d="M276.982 8.75781H0.49707V145.435H276.982V8.75781Z" fill="white"/>
</mask>
<g mask="url(#mask27_2_32778)">
<path d="M116.844 65.8162C116.135 66.7581 115.433 67.7147 114.731 68.686C114.029 69.65 113.328 70.6213 112.603 71.5705C111.879 72.5198 111.141 73.4543 110.38 74.3521C109.611 75.2498 108.813 76.1108 107.979 76.9202C108.607 75.9121 109.279 74.9408 109.995 73.9915C110.705 73.0422 111.458 72.1224 112.219 71.2173C112.98 70.3269 113.741 69.3851 114.51 68.4579C115.271 67.5307 116.054 66.6256 116.844 65.8162Z" fill="white"/>
</g>
<mask id="mask28_2_32778" style="mask-type:luminance" maskUnits="userSpaceOnUse" x="0" y="8" width="277" height="138">
<path d="M276.982 8.75781H0.49707V145.435H276.982V8.75781Z" fill="white"/>
</mask>
<g mask="url(#mask28_2_32778)">
<path d="M117.628 63.4386C117.288 63.5343 116.963 63.652 116.653 63.7845C116.032 64.042 115.478 64.3363 114.961 64.6748C113.934 65.3445 113.084 66.1539 112.368 67.0664C111.651 67.9788 111.067 68.9943 110.668 70.1496C110.469 70.7236 110.314 71.3417 110.218 71.9966C110.173 72.3277 110.137 72.6662 110.122 73.0268C110.107 73.3873 110.114 73.7553 110.173 74.1674C111.577 72.2321 113.062 70.3556 114.629 68.5528C113.225 70.4881 111.74 72.3645 110.173 74.1674C110.587 74.1158 110.942 74.0349 111.289 73.9319C111.629 73.8362 111.954 73.7185 112.264 73.5934C112.885 73.3432 113.446 73.0341 113.956 72.703C114.983 72.0334 115.825 71.2166 116.542 70.3041C117.251 69.3917 117.828 68.3762 118.234 67.2135C118.433 66.6396 118.589 66.0214 118.685 65.3665C118.736 65.0354 118.766 64.6969 118.781 64.3363C118.795 63.9758 118.788 63.6078 118.736 63.2031C118.337 63.2546 117.975 63.3429 117.628 63.4386Z" fill="#0071BC"/>
</g>
<mask id="mask29_2_32778" style="mask-type:luminance" maskUnits="userSpaceOnUse" x="0" y="8" width="277" height="138">
<path d="M276.982 8.75781H0.49707V145.435H276.982V8.75781Z" fill="white"/>
</mask>
<g mask="url(#mask29_2_32778)">
<path d="M116.786 65.9336C116.07 66.8461 115.382 67.8027 114.703 68.7814C114.023 69.76 113.343 70.7534 112.642 71.7174C111.94 72.6814 111.216 73.6233 110.447 74.4989C109.679 75.3746 108.859 76.184 107.965 76.8978C108.519 75.8455 109.162 74.8595 109.864 73.9176C110.565 72.9757 111.326 72.0853 112.117 71.2023C112.893 70.3561 113.661 69.3995 114.429 68.4723C115.198 67.5525 115.981 66.6547 116.786 65.9336Z" fill="white"/>
</g>
<mask id="mask30_2_32778" style="mask-type:luminance" maskUnits="userSpaceOnUse" x="0" y="8" width="277" height="138">
<path d="M276.982 8.75781H0.49707V145.435H276.982V8.75781Z" fill="white"/>
</mask>
<g mask="url(#mask30_2_32778)">
<path d="M116.231 44.1864C115.847 44.341 115.477 44.5176 115.138 44.7015C114.451 45.0694 113.837 45.4815 113.283 45.9378C112.168 46.8355 111.281 47.8731 110.557 49.021C109.833 50.1616 109.279 51.4125 108.946 52.8033C108.784 53.495 108.673 54.2235 108.643 55.0035C108.629 55.3935 108.629 55.7908 108.658 56.2103C108.688 56.6297 108.74 57.0565 108.85 57.5275C110.247 55.1139 111.754 52.7665 113.364 50.4853C111.961 52.8989 110.461 55.2463 108.85 57.5275C109.323 57.4244 109.73 57.2846 110.121 57.1301C110.505 56.9756 110.867 56.8063 111.215 56.6224C111.902 56.2544 112.515 55.835 113.069 55.3861C114.177 54.4884 115.071 53.4435 115.788 52.2955C116.504 51.155 117.059 49.904 117.391 48.5132C117.554 47.8215 117.664 47.0857 117.701 46.313C117.716 45.923 117.716 45.5257 117.687 45.1062C117.657 44.6868 117.613 44.26 117.502 43.7891C117.029 43.8921 116.623 44.0319 116.231 44.1864Z" fill="#0071BC"/>
</g>
<mask id="mask31_2_32778" style="mask-type:luminance" maskUnits="userSpaceOnUse" x="0" y="8" width="277" height="138">
<path d="M276.982 8.75781H0.49707V145.435H276.982V8.75781Z" fill="white"/>
</mask>
<g mask="url(#mask31_2_32778)">
<path d="M113.343 50.5547C113.003 51.1581 112.663 51.7688 112.316 52.3722C112.146 52.6666 111.976 52.9609 111.814 53.2479C111.636 53.557 111.452 53.866 111.267 54.1677C110.92 54.7491 110.58 55.3304 110.196 55.8823C110.188 55.897 110.173 55.9117 110.166 55.9264C109.811 56.3974 109.213 57.2436 108.836 57.5159C109.102 56.8683 109.412 56.2576 109.767 55.6615C110.122 55.0655 110.506 54.4915 110.912 53.9249C111.274 53.4172 111.681 52.8064 112.087 52.2177C112.102 52.1956 112.124 52.1662 112.139 52.1441C112.545 51.5407 112.959 50.9741 113.343 50.5547Z" fill="white"/>
</g>
<mask id="mask32_2_32778" style="mask-type:luminance" maskUnits="userSpaceOnUse" x="0" y="8" width="277" height="138">
<path d="M276.982 8.75781H0.49707V145.435H276.982V8.75781Z" fill="white"/>
</mask>
<g mask="url(#mask32_2_32778)">
<path d="M113.653 49.1249C113.461 49.1985 113.277 49.2868 113.107 49.3825C112.76 49.5664 112.457 49.7725 112.176 50.0006C111.622 50.4495 111.171 50.9719 110.809 51.5385C110.447 52.1125 110.166 52.7306 110.004 53.4297C109.922 53.7755 109.871 54.1434 109.849 54.5334C109.841 54.7248 109.841 54.9308 109.856 55.1368C109.871 55.3502 109.893 55.5636 109.952 55.7991C110.654 54.5923 111.4 53.4149 112.205 52.2744C111.504 53.4812 110.75 54.6585 109.952 55.7991C110.188 55.7476 110.395 55.674 110.587 55.6004C110.78 55.5195 110.964 55.4385 111.134 55.3429C111.481 55.1589 111.784 54.9529 112.065 54.7248C112.619 54.2759 113.062 53.7534 113.424 53.1795C113.786 52.6055 114.06 51.98 114.222 51.2883C114.304 50.9425 114.355 50.5746 114.378 50.1919C114.385 50.0006 114.385 49.7945 114.37 49.5885C114.355 49.3825 114.333 49.1691 114.274 48.9336C114.052 48.9777 113.846 49.0513 113.653 49.1249Z" fill="#0071BC"/>
</g>
<mask id="mask33_2_32778" style="mask-type:luminance" maskUnits="userSpaceOnUse" x="0" y="8" width="277" height="138">
<path d="M276.982 8.75781H0.49707V145.435H276.982V8.75781Z" fill="white"/>
</mask>
<g mask="url(#mask33_2_32778)">
<path d="M113.322 50.6367C112.827 51.5418 112.354 52.4543 111.859 53.3594C111.371 54.2645 110.862 55.1622 110.307 56.0232C110.012 56.3617 109.177 57.5317 108.808 57.5022C108.985 56.8105 109.258 56.1851 109.598 55.589C109.938 54.993 110.344 54.4337 110.78 53.8892C111.15 53.4403 111.593 52.7781 112.044 52.1452C112.494 51.5124 112.945 50.9237 113.322 50.6367Z" fill="white"/>
</g>
<mask id="mask34_2_32778" style="mask-type:luminance" maskUnits="userSpaceOnUse" x="0" y="8" width="277" height="138">
<path d="M276.982 8.75781H0.49707V145.435H276.982V8.75781Z" fill="white"/>
</mask>
<g mask="url(#mask34_2_32778)">
<path d="M81.8776 49.0847C81.2718 49.9235 80.7472 50.7771 80.2744 51.616C79.3287 53.3158 78.6047 54.9936 78.0432 56.686C76.9202 60.0636 76.4473 63.4338 76.4695 66.7967C76.4917 70.1595 77.0162 73.5224 78.1835 76.8779C78.7746 78.5483 79.5356 80.226 80.5108 81.9038C80.9984 82.7353 81.5451 83.5741 82.1657 84.413C82.7937 85.2519 83.4734 86.0834 84.3452 86.9149C84.0275 79.9832 84.0275 73.0367 84.3304 66.105C84.6481 73.0441 84.6481 79.9758 84.3452 86.9149C85.1948 86.0687 85.8598 85.2225 86.4804 84.3762C87.0788 83.5374 87.6108 82.6838 88.091 81.8449C89.0367 80.1451 89.7607 78.46 90.3296 76.7749C91.4452 73.3973 91.9032 70.0271 91.8737 66.6569C91.8441 63.3014 91.3122 59.9385 90.1301 56.5757C89.5464 54.9053 88.7781 53.2202 87.8102 51.5498C87.3226 50.7035 86.7759 49.8794 86.1553 49.0405C85.5347 48.2016 84.855 47.3701 83.998 46.5312C83.1483 47.3922 82.4908 48.2384 81.8776 49.0847Z" fill="#0071BC"/>
</g>
<mask id="mask35_2_32778" style="mask-type:luminance" maskUnits="userSpaceOnUse" x="0" y="8" width="277" height="138">
<path d="M276.982 8.75781H0.49707V145.435H276.982V8.75781Z" fill="white"/>
</mask>
<g mask="url(#mask35_2_32778)">
<path d="M84.3513 66.3047C84.3956 68.0192 84.4547 69.7411 84.5064 71.463C84.5655 73.1923 84.6172 74.9215 84.6468 76.6508C84.6985 80.1093 84.6542 83.5531 84.3143 86.9233C84.1887 85.2676 84.1074 83.5752 84.0557 81.868C84.0114 80.124 83.9966 78.3653 84.0114 76.5993C84.0262 74.8774 84.0705 73.1555 84.1296 71.4483C84.1961 69.7117 84.27 67.9824 84.3513 66.3047Z" fill="white"/>
</g>
<mask id="mask36_2_32778" style="mask-type:luminance" maskUnits="userSpaceOnUse" x="0" y="8" width="277" height="138">
<path d="M276.982 8.75781H0.49707V145.435H276.982V8.75781Z" fill="white"/>
</mask>
<g mask="url(#mask36_2_32778)">
<path d="M83.1178 62.895C82.8149 63.3145 82.5489 63.7413 82.3125 64.1607C81.8396 65.0069 81.4776 65.8532 81.1969 66.6994C80.6354 68.3845 80.399 70.0696 80.4137 71.7547C80.4285 73.4398 80.6797 75.1176 81.2708 76.7953C81.5663 77.6342 81.9431 78.4731 82.4307 79.3119C82.6745 79.7314 82.9479 80.1508 83.2582 80.5702C83.5685 80.9897 83.9083 81.4091 84.3516 81.8212C84.1964 78.3553 84.1891 74.8821 84.3442 71.4162C84.4994 74.8894 84.5067 78.3553 84.3516 81.8212C84.7727 81.3944 85.1126 80.975 85.4155 80.5482C85.7184 80.1287 85.9844 79.7019 86.2208 79.2825C86.701 78.4363 87.063 77.59 87.3364 76.7512C87.8979 75.0661 88.1269 73.3736 88.1048 71.6958C88.09 70.0181 87.824 68.333 87.233 66.6552C86.9448 65.8237 86.5606 64.9775 86.073 64.146C85.8292 63.7265 85.5559 63.3071 85.2456 62.8877C84.9353 62.4682 84.5954 62.0562 84.1669 61.6367C83.7532 62.0488 83.4207 62.4682 83.1178 62.895Z" fill="#0071BC"/>
</g>
<mask id="mask37_2_32778" style="mask-type:luminance" maskUnits="userSpaceOnUse" x="0" y="8" width="277" height="138">
<path d="M276.982 8.75781H0.49707V145.435H276.982V8.75781Z" fill="white"/>
</mask>
<g mask="url(#mask37_2_32778)">
<path d="M84.3823 66.4883C84.3897 68.1734 84.4488 69.8879 84.5227 71.6098C84.5966 73.3317 84.6852 75.0536 84.737 76.7755C84.8478 80.2193 84.8182 83.641 84.3011 86.923C84.1238 85.3114 84.0203 83.6263 83.9686 81.9118C83.9169 80.1899 83.9169 78.4386 83.9538 76.6872C84.0203 73.1772 84.2198 69.6819 84.3823 66.4883Z" fill="white"/>
</g>
<mask id="mask38_2_32778" style="mask-type:luminance" maskUnits="userSpaceOnUse" x="0" y="8" width="277" height="138">
<path d="M276.982 8.75781H0.49707V145.435H276.982V8.75781Z" fill="white"/>
</mask>
<g mask="url(#mask38_2_32778)">
<path d="M92.2581 34.7061C91.9552 34.993 91.6892 35.2947 91.438 35.5891C90.943 36.1925 90.5293 36.8032 90.1821 37.4287C89.4876 38.6797 89.0591 39.9748 88.8226 41.3067C88.5862 42.6386 88.5419 43.9999 88.7635 45.4127C88.8744 46.1192 89.0517 46.8329 89.3103 47.5688C89.4432 47.9367 89.5984 48.3046 89.7757 48.6799C89.9604 49.0552 90.1673 49.4379 90.4554 49.8279C90.8396 47.0684 91.3494 44.331 91.9774 41.6157C91.5932 44.3752 91.0834 47.1126 90.4554 49.8279C90.8544 49.5556 91.1794 49.2686 91.4824 48.9816C91.7779 48.6946 92.0512 48.4003 92.3024 48.0986C92.7974 47.4952 93.2112 46.8844 93.5584 46.259C94.2455 45.008 94.674 43.7129 94.9104 42.381C95.1469 41.0565 95.1838 39.6878 94.9622 38.275C94.8587 37.5759 94.674 36.8548 94.4154 36.1263C94.2825 35.7583 94.1273 35.3904 93.95 35.0151C93.7653 34.6398 93.5584 34.2645 93.2851 33.8672C92.8861 34.1321 92.561 34.4191 92.2581 34.7061Z" fill="#0071BC"/>
</g>
<mask id="mask39_2_32778" style="mask-type:luminance" maskUnits="userSpaceOnUse" x="0" y="8" width="277" height="138">
<path d="M276.982 8.75781H0.49707V145.435H276.982V8.75781Z" fill="white"/>
</mask>
<g mask="url(#mask39_2_32778)">
<path d="M91.9831 41.6797C91.8945 42.3714 91.8058 43.0557 91.7172 43.7474C91.6728 44.0786 91.6285 44.4171 91.5768 44.7482C91.5251 45.1014 91.4734 45.4546 91.4216 45.8078C91.3182 46.4701 91.2222 47.1397 91.0744 47.7946C91.0744 47.8093 91.067 47.8241 91.0596 47.8461C90.9119 48.4201 90.6754 49.4209 90.4316 49.8109C90.4316 49.1118 90.4907 48.4275 90.5942 47.7431C90.6976 47.0588 90.838 46.3818 91.0005 45.7048C91.1557 45.072 91.296 44.3656 91.4438 43.6812C91.4512 43.6591 91.4512 43.6371 91.4586 43.615C91.6137 42.9306 91.7763 42.261 91.9831 41.6797Z" fill="white"/>
</g>
<mask id="mask40_2_32778" style="mask-type:luminance" maskUnits="userSpaceOnUse" x="0" y="8" width="277" height="138">
<path d="M276.982 8.75781H0.49707V145.435H276.982V8.75781Z" fill="white"/>
</mask>
<g mask="url(#mask40_2_32778)">
<path d="M91.7172 40.2467C91.5694 40.3938 91.429 40.541 91.3108 40.6882C91.0596 40.9899 90.8601 41.2916 90.6828 41.608C90.3356 42.2335 90.1213 42.881 90.0031 43.5433C89.8849 44.2055 89.8627 44.8899 89.9736 45.5963C90.0253 45.9495 90.1139 46.3101 90.2469 46.6707C90.3134 46.8546 90.3873 47.0386 90.4833 47.2225C90.5794 47.4139 90.6828 47.5978 90.8232 47.7965C91.0153 46.4131 91.2665 45.0444 91.5842 43.6905C91.3921 45.0739 91.1409 46.4425 90.8232 47.7965C91.0227 47.6641 91.1852 47.5169 91.333 47.3697C91.4807 47.2225 91.6211 47.0754 91.7467 46.9282C91.9979 46.6265 92.2048 46.3174 92.3747 46.0084C92.7219 45.3829 92.9362 44.7354 93.047 44.0657C93.1652 43.4035 93.18 42.7191 93.0692 42.0127C93.0175 41.6595 92.9288 41.2989 92.7958 40.9384C92.7293 40.7544 92.6554 40.5704 92.5594 40.3865C92.4707 40.1951 92.3673 40.0112 92.2269 39.8125C92.0275 39.9597 91.8649 40.0995 91.7172 40.2467Z" fill="#0071BC"/>
</g>
<mask id="mask41_2_32778" style="mask-type:luminance" maskUnits="userSpaceOnUse" x="0" y="8" width="277" height="138">
<path d="M276.982 8.75781H0.49707V145.435H276.982V8.75781Z" fill="white"/>
</mask>
<g mask="url(#mask41_2_32778)">
<path d="M91.9994 41.7617C91.8812 42.7846 91.7852 43.8074 91.6743 44.8302C91.5635 45.8531 91.4305 46.8759 91.2458 47.8767C91.0981 48.2961 90.7656 49.7016 90.4184 49.812C90.3223 49.1055 90.3371 48.4212 90.4257 47.7442C90.5144 47.0672 90.6769 46.3976 90.8764 45.728C91.0611 45.1246 91.2089 44.3814 91.3788 43.6602C91.5487 42.9464 91.7334 42.2547 91.9994 41.7617Z" fill="white"/>
</g>
<mask id="mask42_2_32778" style="mask-type:luminance" maskUnits="userSpaceOnUse" x="0" y="8" width="277" height="138">
<path d="M276.982 8.75781H0.49707V145.435H276.982V8.75781Z" fill="white"/>
</mask>
<g mask="url(#mask42_2_32778)">
<path d="M75.5459 34.7061C75.8414 34.993 76.1148 35.2947 76.366 35.5891C76.861 36.1925 77.2747 36.8032 77.622 37.4287C78.3164 38.6797 78.745 39.9748 78.9814 41.3067C79.2178 42.6386 79.2621 43.9999 79.0405 45.4127C78.9297 46.1192 78.7523 46.8329 78.4938 47.5688C78.3608 47.9367 78.2056 48.3046 78.0283 48.6799C77.8436 49.0552 77.6367 49.4379 77.3486 49.8279C76.9644 47.0684 76.4546 44.331 75.8266 41.6157C76.2108 44.3752 76.7206 47.1126 77.3486 49.8279C76.9496 49.5556 76.6246 49.2686 76.3217 48.9816C76.0261 48.6946 75.7528 48.4003 75.5016 48.0986C75.0066 47.4952 74.5928 46.8844 74.2456 46.259C73.5585 45.008 73.13 43.7129 72.8936 42.381C72.6572 41.0565 72.6202 39.6878 72.8419 38.275C72.9453 37.5759 73.13 36.8548 73.3886 36.1263C73.5216 35.7583 73.6767 35.3904 73.854 35.0151C74.0387 34.6398 74.2456 34.2645 74.519 33.8672C74.9253 34.1321 75.243 34.4191 75.5459 34.7061Z" fill="#0071BC"/>
</g>
<mask id="mask43_2_32778" style="mask-type:luminance" maskUnits="userSpaceOnUse" x="0" y="8" width="277" height="138">
<path d="M276.982 8.75781H0.49707V145.435H276.982V8.75781Z" fill="white"/>
</mask>
<g mask="url(#mask43_2_32778)">
<path d="M75.8623 41.6719C76.0248 42.3489 76.1948 43.0185 76.3573 43.6955C76.4386 44.0266 76.5125 44.3504 76.5863 44.6815C76.6676 45.0274 76.7415 45.3732 76.8228 45.7264C76.9631 46.3813 77.1183 47.0436 77.2143 47.7059C77.2143 47.7206 77.2143 47.7353 77.2217 47.7574C77.2882 48.3461 77.4286 49.3615 77.3399 49.8178C77.0887 49.1629 76.8966 48.5006 76.7489 47.831C76.6011 47.154 76.4903 46.477 76.3942 45.7853C76.313 45.1377 76.1874 44.4313 76.0839 43.7323C76.0839 43.7102 76.0766 43.6881 76.0766 43.666C75.9584 42.9743 75.8771 42.2826 75.8623 41.6719Z" fill="white"/>
</g>
<mask id="mask44_2_32778" style="mask-type:luminance" maskUnits="userSpaceOnUse" x="0" y="8" width="277" height="138">
<path d="M276.982 8.75781H0.49707V145.435H276.982V8.75781Z" fill="white"/>
</mask>
<g mask="url(#mask44_2_32778)">
<path d="M76.1061 40.2467C76.2539 40.3938 76.3942 40.541 76.5124 40.6882C76.7636 40.9899 76.9631 41.2916 77.1404 41.608C77.4877 42.2335 77.7019 42.881 77.8201 43.5433C77.9383 44.2055 77.9605 44.8899 77.8497 45.5963C77.798 45.9495 77.7093 46.3101 77.5763 46.6707C77.5098 46.8546 77.436 47.0386 77.3399 47.2225C77.2439 47.4139 77.1404 47.5978 77.0001 47.7965C76.808 46.4131 76.5568 45.0444 76.2391 43.6905C76.4312 45.0739 76.6824 46.4425 77.0001 47.7965C76.8006 47.6641 76.638 47.5169 76.4903 47.3697C76.3425 47.2225 76.2021 47.0754 76.0765 46.9282C75.8253 46.6265 75.6185 46.3174 75.4486 46.0084C75.1013 45.3829 74.8871 44.7354 74.7762 44.0657C74.658 43.4035 74.6433 42.7191 74.7541 42.0127C74.8058 41.6595 74.8944 41.2989 75.0274 40.9384C75.0939 40.7544 75.1678 40.5704 75.2638 40.3865C75.3525 40.1951 75.4559 40.0112 75.5963 39.8125C75.7958 39.9597 75.9509 40.0995 76.1061 40.2467Z" fill="#0071BC"/>
</g>
<mask id="mask45_2_32778" style="mask-type:luminance" maskUnits="userSpaceOnUse" x="0" y="8" width="277" height="138">
<path d="M276.982 8.75781H0.49707V145.435H276.982V8.75781Z" fill="white"/>
</mask>
<g mask="url(#mask45_2_32778)">
<path d="M75.8923 41.7461C76.1509 42.7395 76.4316 43.7329 76.6902 44.7263C76.9562 45.7197 77.2 46.7205 77.3847 47.7286C77.3995 48.1701 77.5916 49.5977 77.3108 49.8258C76.971 49.2003 76.7345 48.5527 76.5794 47.8905C76.4169 47.2282 76.3356 46.5439 76.2765 45.8448C76.2321 45.212 76.1065 44.4688 76.0031 43.7403C75.8997 43.0118 75.8258 42.298 75.8923 41.7461Z" fill="white"/>
</g>
<mask id="mask46_2_32778" style="mask-type:luminance" maskUnits="userSpaceOnUse" x="0" y="8" width="277" height="138">
<path d="M276.982 8.75781H0.49707V145.435H276.982V8.75781Z" fill="white"/>
</mask>
<g mask="url(#mask46_2_32778)">
<path d="M149.752 36.9254C149.752 36.793 149.782 36.69 149.841 36.6017C149.9 36.5134 150.018 36.4766 150.188 36.4766H152.456C152.641 36.4766 152.759 36.5281 152.811 36.6237C152.862 36.7194 152.892 36.8224 152.892 36.9254V37.2419C153.993 37.3375 154.894 37.5656 155.603 37.9409C156.305 38.3162 156.852 38.7577 157.251 39.2728C157.642 39.7879 157.916 40.3545 158.071 40.9579C158.219 41.5687 158.3 42.15 158.3 42.7166C158.3 43.2906 158.226 43.9013 158.071 44.5342C157.916 45.167 157.642 45.7557 157.244 46.3002C156.845 46.8447 156.29 47.3083 155.596 47.7057C154.901 48.0957 154 48.3459 152.899 48.4489V49.0965C152.899 49.1995 152.87 49.3025 152.818 49.3908C152.766 49.4791 152.648 49.5306 152.463 49.5306H150.195C150.025 49.5306 149.907 49.4938 149.848 49.4129C149.789 49.3319 149.759 49.2289 149.759 49.0965V48.471C148.969 48.4195 148.282 48.2944 147.698 48.0957C147.114 47.897 146.612 47.6542 146.198 47.3525C145.785 47.0508 145.445 46.7123 145.186 46.3297C144.92 45.9544 144.713 45.557 144.566 45.1449C144.418 44.7328 144.307 44.3208 144.248 43.9087C144.189 43.4966 144.159 43.0993 144.159 42.724C144.159 42.437 144.189 42.1058 144.248 41.7306C144.307 41.3553 144.418 40.98 144.573 40.59C144.728 40.2 144.942 39.8247 145.216 39.4494C145.482 39.0741 145.829 38.7356 146.243 38.4266C146.656 38.1175 147.151 37.86 147.728 37.6392C148.304 37.4185 148.984 37.286 149.759 37.2345V36.9254H149.752ZM147.41 42.8491C147.41 43.7542 147.595 44.4532 147.964 44.9462C148.333 45.4466 148.932 45.7483 149.759 45.8661V39.7805C148.947 39.8836 148.348 40.2073 147.979 40.7445C147.595 41.2891 147.41 41.9881 147.41 42.8491ZM155.131 42.8711C155.131 42.047 154.961 41.3626 154.621 40.8107C154.281 40.2589 153.705 39.9351 152.885 39.8321V45.8366C153.646 45.7336 154.207 45.4319 154.576 44.9242C154.946 44.4164 155.131 43.7321 155.131 42.8711Z" fill="white"/>
</g>
<mask id="mask47_2_32778" style="mask-type:luminance" maskUnits="userSpaceOnUse" x="0" y="8" width="277" height="138">
<path d="M276.982 8.75781H0.49707V145.435H276.982V8.75781Z" fill="white"/>
</mask>
<g mask="url(#mask47_2_32778)">
<path d="M171.835 42.8361C171.835 43.5793 171.776 44.3593 171.665 45.1614C171.554 45.9635 171.303 46.7067 170.904 47.3763C170.512 48.0533 169.936 48.6052 169.182 49.0467C168.429 49.4882 167.409 49.7016 166.116 49.7016C165.267 49.7016 164.528 49.5986 163.922 49.3999C163.309 49.1939 162.799 48.9216 162.385 48.5831C161.971 48.2446 161.639 47.8472 161.403 47.3837C161.159 46.9274 160.974 46.4418 160.841 45.934C160.708 45.4263 160.627 44.9038 160.583 44.374C160.546 43.8442 160.523 43.3291 160.523 42.8361C160.523 42.4534 160.546 42.0266 160.59 41.5483C160.634 41.07 160.73 40.5917 160.863 40.1134C161.004 39.6351 161.196 39.1642 161.447 38.7079C161.698 38.2517 162.031 37.847 162.444 37.4938C162.858 37.1406 163.368 36.8536 163.974 36.6402C164.58 36.4268 165.304 36.3164 166.138 36.3164C167.372 36.3164 168.362 36.5077 169.101 36.8977C169.84 37.2804 170.416 37.7881 170.822 38.4062C171.229 39.0317 171.502 39.7308 171.628 40.5034C171.768 41.2834 171.835 42.0634 171.835 42.8361ZM168.628 43.0495C168.628 41.6513 168.451 40.6285 168.104 39.981C167.756 39.3334 167.106 39.0096 166.161 39.0096C165.281 39.0096 164.676 39.3408 164.336 40.003C164.003 40.6653 163.833 41.6808 163.833 43.0568C163.833 44.3814 163.996 45.3674 164.314 46.0297C164.639 46.6919 165.252 47.0231 166.153 47.0231C167.084 47.0231 167.727 46.6993 168.081 46.0518C168.451 45.3968 168.628 44.3961 168.628 43.0495Z" fill="white"/>
</g>
<mask id="mask48_2_32778" style="mask-type:luminance" maskUnits="userSpaceOnUse" x="0" y="8" width="277" height="138">
<path d="M276.982 8.75781H0.49707V145.435H276.982V8.75781Z" fill="white"/>
</mask>
<g mask="url(#mask48_2_32778)">
<path d="M181.278 36.925C181.278 36.7925 181.307 36.6821 181.374 36.6012C181.44 36.5129 181.551 36.4688 181.706 36.4688H183.989C184.174 36.4688 184.285 36.5203 184.336 36.6159C184.381 36.7116 184.403 36.8146 184.403 36.9176V49.0813C184.403 49.1843 184.381 49.2873 184.336 49.3756C184.292 49.4639 184.174 49.5154 183.989 49.5154H181.706C181.418 49.5154 181.27 49.3756 181.27 49.0813V44.0554H177.428V49.0813C177.428 49.1843 177.406 49.2873 177.362 49.3756C177.318 49.4639 177.199 49.5154 177.015 49.5154H174.732C174.444 49.5154 174.296 49.3756 174.296 49.0813V36.925C174.296 36.7925 174.325 36.6895 174.392 36.6012C174.458 36.5129 174.569 36.4761 174.724 36.4761H177.007C177.192 36.4761 177.303 36.5276 177.355 36.6233C177.399 36.7189 177.421 36.822 177.421 36.925V41.4578H181.263V36.925H181.278Z" fill="white"/>
</g>
<mask id="mask49_2_32778" style="mask-type:luminance" maskUnits="userSpaceOnUse" x="0" y="8" width="277" height="138">
<path d="M276.982 8.75781H0.49707V145.435H276.982V8.75781Z" fill="white"/>
</mask>
<g mask="url(#mask49_2_32778)">
<path d="M196.172 49.5242H189.101L188.924 52.0555C188.895 52.3204 188.85 52.4823 188.784 52.5485C188.717 52.6147 188.577 52.6442 188.37 52.6442H186.619C186.434 52.6442 186.309 52.6074 186.235 52.5338C186.161 52.4602 186.117 52.2763 186.109 51.9746L185.954 47.5374C185.954 47.3828 185.984 47.2577 186.043 47.1621C186.102 47.0738 186.227 47.0075 186.427 46.9634L187.099 46.8457C187.336 46.6249 187.543 46.3821 187.712 46.1098C187.882 45.8449 188.023 45.5358 188.134 45.19C188.244 44.8441 188.34 44.4541 188.407 44.0126C188.481 43.5711 188.54 43.0781 188.592 42.5336L189.028 37.1986C189.057 36.9337 189.131 36.7497 189.257 36.6467C189.382 36.5437 189.552 36.4922 189.781 36.4922H197.583C197.871 36.4922 198.019 36.6394 198.019 36.9411V46.9119L198.824 46.9928C199.112 47.0296 199.26 47.2209 199.26 47.5594L199.046 51.9525C199.016 52.2542 198.979 52.4455 198.928 52.5191C198.876 52.6 198.75 52.6368 198.551 52.6368H196.837C196.637 52.6368 196.504 52.6074 196.43 52.5412C196.357 52.4749 196.312 52.3131 196.305 52.0481L196.172 49.5242ZM194.79 46.853V39.1045H191.916L191.562 43.2841C191.495 44.042 191.399 44.719 191.266 45.3151C191.133 45.9111 190.934 46.4262 190.653 46.853H194.79Z" fill="white"/>
</g>
<mask id="mask50_2_32778" style="mask-type:luminance" maskUnits="userSpaceOnUse" x="0" y="8" width="277" height="138">
<path d="M276.982 8.75781H0.49707V145.435H276.982V8.75781Z" fill="white"/>
</mask>
<g mask="url(#mask50_2_32778)">
<path d="M147.587 70.3843H151.333V60.4723C151.333 60.3693 151.362 60.2663 151.414 60.1706C151.466 60.075 151.584 60.0234 151.769 60.0234H154.111C154.28 60.0234 154.399 60.0676 154.458 60.1485C154.517 60.2295 154.546 60.3399 154.546 60.4723V70.3254L155.692 70.4431C155.876 70.4726 155.995 70.5388 156.054 70.6418C156.113 70.7448 156.135 70.8994 156.12 71.0907L155.884 75.5058C155.854 75.8075 155.817 75.9988 155.766 76.0724C155.714 76.1534 155.588 76.1902 155.389 76.1902H153.675C153.49 76.1902 153.372 76.1607 153.313 76.1018C153.254 76.043 153.209 75.8811 153.187 75.6235L153.047 73.0701H144.809C144.624 73.0701 144.506 73.0186 144.454 72.923C144.403 72.8273 144.373 72.7316 144.373 72.636V60.4723C144.373 60.3693 144.403 60.2663 144.454 60.1706C144.506 60.075 144.624 60.0234 144.809 60.0234H147.151C147.321 60.0234 147.439 60.0676 147.498 60.1485C147.557 60.2295 147.587 60.3399 147.587 60.4723V70.3843Z" fill="white"/>
</g>
<mask id="mask51_2_32778" style="mask-type:luminance" maskUnits="userSpaceOnUse" x="0" y="8" width="277" height="138">
<path d="M276.982 8.75781H0.49707V145.435H276.982V8.75781Z" fill="white"/>
</mask>
<g mask="url(#mask51_2_32778)">
<path d="M157.827 60.4762C157.827 60.3438 157.857 60.2407 157.916 60.1524C157.975 60.0641 158.093 60.0273 158.263 60.0273H166.087C166.36 60.0273 166.501 60.1672 166.501 60.4541V62.2276C166.501 62.3453 166.471 62.4409 166.412 62.5219C166.353 62.6028 166.235 62.6396 166.065 62.6396H160.96V65.0312H165.415C165.718 65.0312 165.865 65.171 165.865 65.4432V67.2314C165.865 67.3491 165.836 67.4448 165.777 67.5257C165.718 67.6066 165.599 67.6434 165.415 67.6434H160.96V70.4691H166.161C166.449 70.4691 166.597 70.6163 166.597 70.9033V72.6914C166.597 72.8091 166.567 72.9048 166.508 72.9784C166.449 73.052 166.331 73.0888 166.161 73.0888H158.263C158.093 73.0888 157.975 73.052 157.916 72.971C157.857 72.8901 157.827 72.7944 157.827 72.6767V60.4762Z" fill="white"/>
</g>
<mask id="mask52_2_32778" style="mask-type:luminance" maskUnits="userSpaceOnUse" x="0" y="8" width="277" height="138">
<path d="M276.982 8.75781H0.49707V145.435H276.982V8.75781Z" fill="white"/>
</mask>
<g mask="url(#mask52_2_32778)">
<path d="M173.126 65.9779C173.089 66.9639 173.038 67.8469 172.956 68.6269C172.875 69.4069 172.757 70.0839 172.602 70.6579C172.447 71.2319 172.203 71.7175 171.87 72.1002C171.545 72.4902 171.109 72.7772 170.57 72.9758C170.031 73.1745 169.358 73.2775 168.538 73.2922C168.199 73.2922 167.984 73.2555 167.896 73.1745C167.807 73.0936 167.77 72.9685 167.77 72.7845C167.77 72.5638 167.763 72.3504 167.74 72.137C167.718 71.9309 167.711 71.7102 167.711 71.4894C167.711 71.3054 167.74 71.1951 167.792 71.1436C167.844 71.0994 167.962 71.0479 168.147 70.9964C168.472 70.9154 168.753 70.8198 168.974 70.702C169.196 70.5843 169.381 70.4151 169.528 70.1796C169.676 69.9515 169.78 69.6571 169.853 69.2892C169.927 68.9213 169.979 68.443 170.023 67.8543C170.105 66.6107 170.179 65.3818 170.26 64.1677C170.341 62.9535 170.408 61.7246 170.474 60.4957C170.474 60.194 170.614 60.0469 170.91 60.0469H178.239C178.512 60.0469 178.653 60.194 178.653 60.4957V72.6447C178.653 72.7477 178.631 72.8507 178.586 72.939C178.542 73.0273 178.424 73.0789 178.239 73.0789H175.897C175.594 73.0789 175.446 72.9317 175.446 72.6447V62.6886H173.296C173.215 63.8954 173.156 64.9918 173.126 65.9779Z" fill="white"/>
</g>
<mask id="mask53_2_32778" style="mask-type:luminance" maskUnits="userSpaceOnUse" x="0" y="8" width="277" height="138">
<path d="M276.982 8.75781H0.49707V145.435H276.982V8.75781Z" fill="white"/>
</mask>
<g mask="url(#mask53_2_32778)">
<path d="M181.313 60.4762C181.313 60.3438 181.343 60.2407 181.402 60.1524C181.461 60.0641 181.579 60.0273 181.749 60.0273H189.573C189.847 60.0273 189.987 60.1672 189.987 60.4541V62.2276C189.987 62.3453 189.958 62.4409 189.898 62.5219C189.839 62.6028 189.721 62.6396 189.551 62.6396H184.446V65.0312H188.901C189.204 65.0312 189.352 65.171 189.352 65.4432V67.2314C189.352 67.3491 189.322 67.4448 189.263 67.5257C189.204 67.6066 189.086 67.6434 188.901 67.6434H184.446V70.4691H189.647C189.935 70.4691 190.083 70.6163 190.083 70.9033V72.6914C190.083 72.8091 190.054 72.9048 189.994 72.9784C189.935 73.052 189.817 73.0888 189.647 73.0888H181.749C181.579 73.0888 181.461 73.052 181.402 72.971C181.343 72.8901 181.313 72.7944 181.313 72.6767V60.4762Z" fill="white"/>
</g>
<mask id="mask54_2_32778" style="mask-type:luminance" maskUnits="userSpaceOnUse" x="0" y="8" width="277" height="138">
<path d="M276.982 8.75781H0.49707V145.435H276.982V8.75781Z" fill="white"/>
</mask>
<g mask="url(#mask54_2_32778)">
<path d="M202.178 69.2103C202.178 69.8285 202.067 70.373 201.846 70.8513C201.624 71.3296 201.321 71.7343 200.937 72.0655C200.553 72.3966 200.117 72.6541 199.629 72.8234C199.134 72.9926 198.625 73.0809 198.085 73.0809H192.744C192.559 73.0809 192.441 73.0441 192.382 72.9632C192.323 72.8823 192.293 72.7792 192.293 72.6468V60.4758C192.293 60.3433 192.323 60.2403 192.382 60.1593C192.441 60.0784 192.552 60.0416 192.729 60.0416L197.731 60.0195C199.083 60.0195 200.102 60.3433 200.797 60.9909C201.484 61.6384 201.831 62.5214 201.831 63.6473C201.831 63.8018 201.809 63.9931 201.772 64.2139C201.735 64.4347 201.661 64.6628 201.565 64.8982C201.469 65.1337 201.321 65.3618 201.129 65.5826C200.937 65.8033 200.701 65.9873 200.412 66.1345L200.435 66.2154C200.819 66.3626 201.122 66.5539 201.351 66.8041C201.58 67.0543 201.757 67.3192 201.883 67.6062C202.008 67.8932 202.09 68.1801 202.127 68.4598C202.156 68.7541 202.178 68.9969 202.178 69.2103ZM198.61 63.8828C198.61 63.5296 198.499 63.2426 198.285 63.0071C198.07 62.7716 197.708 62.6539 197.213 62.6539H195.418V65.0675H197.309C197.716 65.0675 198.034 64.9571 198.263 64.7364C198.499 64.5156 198.61 64.2286 198.61 63.8828ZM198.964 69.0485C198.964 68.6437 198.846 68.2979 198.61 68.0109C198.373 67.7239 197.982 67.5767 197.45 67.5767H195.418V70.4613H197.45C198.026 70.4613 198.425 70.3215 198.639 70.0492C198.861 69.777 198.964 69.4458 198.964 69.0485Z" fill="white"/>
</g>
<mask id="mask55_2_32778" style="mask-type:luminance" maskUnits="userSpaceOnUse" x="0" y="8" width="277" height="138">
<path d="M276.982 8.75781H0.49707V145.435H276.982V8.75781Z" fill="white"/>
</mask>
<g mask="url(#mask55_2_32778)">
<path d="M215.616 66.3869C215.616 67.1301 215.557 67.9101 215.446 68.7122C215.335 69.5142 215.084 70.2575 214.685 70.9271C214.293 71.6041 213.717 72.156 212.964 72.5975C212.21 73.039 211.19 73.2524 209.897 73.2524C209.048 73.2524 208.309 73.1494 207.703 72.9507C207.09 72.7446 206.58 72.4724 206.167 72.1339C205.753 71.7954 205.42 71.398 205.184 70.9344C204.94 70.4782 204.755 69.9925 204.622 69.4848C204.489 68.9771 204.408 68.4546 204.364 67.9248C204.327 67.395 204.305 66.8799 204.305 66.3869C204.305 66.0042 204.327 65.5774 204.371 65.0991C204.416 64.6208 204.512 64.1425 204.645 63.6642C204.785 63.1859 204.977 62.7223 205.228 62.2587C205.479 61.8025 205.812 61.3978 206.226 61.0446C206.639 60.6913 207.149 60.4044 207.755 60.191C208.361 59.9776 209.085 59.8672 209.92 59.8672C211.153 59.8672 212.143 60.0585 212.882 60.4485C213.621 60.8312 214.197 61.3389 214.604 61.957C215.01 62.5825 215.283 63.2816 215.409 64.0542C215.549 64.8342 215.616 65.6142 215.616 66.3869ZM212.402 66.6003C212.402 65.2021 212.225 64.1793 211.877 63.5317C211.53 62.8842 210.88 62.5604 209.934 62.5604C209.055 62.5604 208.449 62.8915 208.11 63.5538C207.777 64.2161 207.607 65.2316 207.607 66.6076C207.607 67.9322 207.77 68.9182 208.087 69.5805C208.412 70.2427 209.026 70.5739 209.927 70.5739C210.858 70.5739 211.501 70.2501 211.855 69.6025C212.225 68.9476 212.402 67.9469 212.402 66.6003Z" fill="white"/>
</g>
<mask id="mask56_2_32778" style="mask-type:luminance" maskUnits="userSpaceOnUse" x="0" y="8" width="277" height="138">
<path d="M276.982 8.75781H0.49707V145.435H276.982V8.75781Z" fill="white"/>
</mask>
<g mask="url(#mask56_2_32778)">
<path d="M221.232 72.6399C221.232 72.7429 221.21 72.8459 221.165 72.9342C221.121 73.0299 221.003 73.074 220.818 73.074H218.535C218.365 73.074 218.247 73.0372 218.188 72.9563C218.129 72.8754 218.099 72.7723 218.099 72.6399L218.077 60.4541C218.077 60.3364 218.107 60.2334 218.166 60.1524C218.225 60.0715 218.343 60.0273 218.513 60.0273H226.197C226.485 60.0273 226.633 60.1672 226.633 60.4541V62.2276C226.633 62.3453 226.603 62.4409 226.544 62.5219C226.485 62.6028 226.367 62.6396 226.182 62.6396H221.239V72.6399H221.232Z" fill="white"/>
</g>
<mask id="mask57_2_32778" style="mask-type:luminance" maskUnits="userSpaceOnUse" x="0" y="8" width="277" height="138">
<path d="M276.982 8.75781H0.49707V145.435H276.982V8.75781Z" fill="white"/>
</mask>
<g mask="url(#mask57_2_32778)">
<path d="M239.377 66.3869C239.377 67.1301 239.318 67.9101 239.207 68.7122C239.096 69.5142 238.845 70.2575 238.446 70.9271C238.054 71.6041 237.478 72.156 236.724 72.5975C235.971 73.039 234.951 73.2524 233.658 73.2524C232.801 73.2524 232.07 73.1494 231.464 72.9507C230.851 72.7446 230.341 72.4724 229.927 72.1339C229.514 71.7954 229.181 71.398 228.945 70.9344C228.701 70.4782 228.516 69.9925 228.383 69.4848C228.25 68.9771 228.169 68.4546 228.125 67.9248C228.088 67.395 228.065 66.8799 228.065 66.3869C228.065 66.0042 228.088 65.5774 228.132 65.0991C228.176 64.6208 228.272 64.1425 228.405 63.6642C228.546 63.1859 228.738 62.7223 228.989 62.2587C229.24 61.8025 229.573 61.3978 229.986 61.0446C230.4 60.6913 230.91 60.4044 231.516 60.191C232.122 59.9776 232.846 59.8672 233.68 59.8672C234.914 59.8672 235.904 60.0585 236.643 60.4485C237.382 60.8312 237.958 61.3389 238.364 61.957C238.771 62.5825 239.037 63.2816 239.17 64.0542C239.31 64.8342 239.377 65.6142 239.377 66.3869ZM236.163 66.6003C236.163 65.2021 235.985 64.1793 235.638 63.5317C235.291 62.8842 234.641 62.5604 233.695 62.5604C232.816 62.5604 232.21 62.8915 231.87 63.5538C231.538 64.2161 231.368 65.2316 231.368 66.6076C231.368 67.9322 231.53 68.9182 231.848 69.5805C232.166 70.2427 232.786 70.5739 233.688 70.5739C234.619 70.5739 235.261 70.2501 235.616 69.6025C235.985 68.9476 236.163 67.9469 236.163 66.6003Z" fill="white"/>
</g>
<mask id="mask58_2_32778" style="mask-type:luminance" maskUnits="userSpaceOnUse" x="0" y="8" width="277" height="138">
<path d="M276.982 8.75781H0.49707V145.435H276.982V8.75781Z" fill="white"/>
</mask>
<g mask="url(#mask58_2_32778)">
<path d="M150.306 92.5551C150.121 91.9811 149.877 91.6132 149.574 91.444C149.271 91.2821 148.946 91.2011 148.592 91.2011H147.565V96.1829C147.565 96.2785 147.543 96.3668 147.498 96.4698C147.454 96.5655 147.336 96.617 147.151 96.617H144.809C144.506 96.617 144.358 96.4698 144.358 96.1829V84.0192C144.358 83.8867 144.388 83.7837 144.454 83.6954C144.521 83.6071 144.639 83.5703 144.809 83.5703H147.151C147.336 83.5703 147.447 83.6218 147.498 83.7175C147.543 83.8131 147.565 83.9162 147.565 84.0192V88.552H148.651C148.806 88.552 148.969 88.5373 149.124 88.5005C149.279 88.4711 149.434 88.4049 149.589 88.3166C149.737 88.2283 149.885 88.0885 150.01 87.9119C150.143 87.7352 150.254 87.4998 150.343 87.2128L151.311 84.2105C151.392 83.9898 151.481 83.8352 151.577 83.7469C151.673 83.6586 151.879 83.6218 152.175 83.6218H154.266C154.606 83.6218 154.724 83.7837 154.62 84.1148L153.579 87.4335C153.372 88.059 153.135 88.5888 152.869 89.0156C152.604 89.4424 152.286 89.7294 151.902 89.8913C152.36 90.0753 152.7 90.3696 152.929 90.7817C153.15 91.1938 153.372 91.7089 153.579 92.3196L154.783 96.124C154.886 96.4478 154.768 96.617 154.428 96.617H152.182C151.879 96.617 151.68 96.5729 151.584 96.4919C151.488 96.4036 151.399 96.2564 151.318 96.0283L150.306 92.5551Z" fill="white"/>
</g>
<mask id="mask59_2_32778" style="mask-type:luminance" maskUnits="userSpaceOnUse" x="0" y="8" width="277" height="138">
<path d="M276.982 8.75781H0.49707V145.435H276.982V8.75781Z" fill="white"/>
</mask>
<g mask="url(#mask59_2_32778)">
<path d="M158.831 96.0651C158.764 96.2785 158.676 96.4183 158.572 96.4993C158.469 96.5802 158.321 96.617 158.136 96.617H155.95C155.802 96.617 155.706 96.5876 155.654 96.5287C155.602 96.4698 155.61 96.33 155.676 96.1093L159.481 84.1369C159.548 83.953 159.629 83.8131 159.718 83.7175C159.806 83.6218 159.983 83.5703 160.249 83.5703H162.732C163.005 83.5703 163.19 83.6218 163.271 83.7248C163.36 83.8279 163.434 83.975 163.5 84.159L167.46 96.1461C167.497 96.3006 167.505 96.4183 167.482 96.4993C167.453 96.5802 167.372 96.617 167.224 96.617H164.778C164.557 96.617 164.402 96.5655 164.328 96.4698C164.246 96.3742 164.173 96.2196 164.113 96.0062L163.463 93.6736H159.54L158.831 96.0651ZM162.185 89.1334L161.557 86.7271H161.461L160.811 89.1113L160.22 91.2968H162.784L162.185 89.1334Z" fill="white"/>
</g>
<mask id="mask60_2_32778" style="mask-type:luminance" maskUnits="userSpaceOnUse" x="0" y="8" width="277" height="138">
<path d="M276.982 8.75781H0.49707V145.435H276.982V8.75781Z" fill="white"/>
</mask>
<g mask="url(#mask60_2_32778)">
<path d="M178.69 83.5703C178.86 83.5703 178.971 83.6218 179.015 83.7175C179.06 83.8131 179.082 83.9162 179.082 84.0192V96.1829C179.082 96.2859 179.06 96.3889 179.015 96.4772C178.971 96.5655 178.86 96.617 178.69 96.617H176.407C176.237 96.617 176.119 96.5802 176.06 96.4993C176.001 96.4183 175.971 96.3153 175.971 96.1829V86.1752H172.107V96.1829C172.107 96.2859 172.085 96.3889 172.041 96.4772C171.997 96.5729 171.878 96.617 171.694 96.617H169.411C169.256 96.617 169.145 96.5802 169.086 96.4993C169.027 96.4183 168.997 96.3153 168.997 96.1829V84.0192C168.997 83.8867 169.027 83.7837 169.086 83.6954C169.145 83.6145 169.256 83.5703 169.411 83.5703H178.69Z" fill="white"/>
</g>
<mask id="mask61_2_32778" style="mask-type:luminance" maskUnits="userSpaceOnUse" x="0" y="8" width="277" height="138">
<path d="M276.982 8.75781H0.49707V145.435H276.982V8.75781Z" fill="white"/>
</mask>
<g mask="url(#mask61_2_32778)">
<path d="M181.729 84.0465C181.729 83.9067 181.758 83.789 181.817 83.7154C181.876 83.6418 181.994 83.5977 182.164 83.5977H184.433C184.617 83.5977 184.735 83.6492 184.787 83.7448C184.839 83.8405 184.868 83.9435 184.868 84.0465V91.0739C184.987 90.9047 185.105 90.7281 185.216 90.5515C185.327 90.3749 185.445 90.1909 185.563 90.0143L189.309 84.1275C189.412 83.995 189.523 83.8773 189.634 83.7669C189.745 83.6565 189.929 83.5977 190.195 83.5977H192.124C192.294 83.5977 192.404 83.6492 192.456 83.7448C192.508 83.8405 192.537 83.9362 192.537 84.0318V96.2176C192.537 96.3206 192.508 96.4162 192.456 96.5045C192.404 96.5855 192.286 96.6296 192.101 96.6296H189.833C189.545 96.6296 189.397 96.4898 189.397 96.2176V88.9694H189.375L184.824 96.0925C184.721 96.2323 184.595 96.3574 184.462 96.4677C184.322 96.5708 184.122 96.6223 183.864 96.6223H182.172C182.002 96.6223 181.884 96.5855 181.825 96.5119C181.765 96.4383 181.736 96.3426 181.736 96.2102V84.0465H181.729Z" fill="white"/>
</g>
<mask id="mask62_2_32778" style="mask-type:luminance" maskUnits="userSpaceOnUse" x="0" y="8" width="277" height="138">
<path d="M276.982 8.75781H0.49707V145.435H276.982V8.75781Z" fill="white"/>
</mask>
<g mask="url(#mask62_2_32778)">
<path d="M203.802 86.061C203.743 86.1419 203.625 86.1787 203.455 86.1787H200.537V96.1863C200.537 96.2893 200.515 96.3923 200.47 96.4806C200.426 96.5763 200.308 96.6205 200.123 96.6205H197.855C197.685 96.6205 197.567 96.5837 197.508 96.5027C197.449 96.4218 197.419 96.3188 197.419 96.1863V86.1787H194.523C194.338 86.1787 194.22 86.1419 194.168 86.061C194.116 85.9874 194.087 85.8843 194.087 85.7666V83.9932C194.087 83.8681 194.116 83.7577 194.168 83.6841C194.22 83.6032 194.338 83.5664 194.523 83.5664H203.448C203.736 83.5664 203.884 83.7062 203.884 83.9932V85.7666C203.891 85.8917 203.861 85.9874 203.802 86.061Z" fill="white"/>
</g>
<mask id="mask63_2_32778" style="mask-type:luminance" maskUnits="userSpaceOnUse" x="0" y="8" width="277" height="138">
<path d="M276.982 8.75781H0.49707V145.435H276.982V8.75781Z" fill="white"/>
</mask>
<g mask="url(#mask63_2_32778)">
<path d="M207.475 96.0651C207.409 96.2785 207.328 96.4183 207.217 96.4993C207.113 96.5802 206.966 96.617 206.781 96.617H204.594C204.446 96.617 204.35 96.5876 204.299 96.5287C204.247 96.4698 204.254 96.33 204.321 96.1093L208.126 84.1369C208.192 83.953 208.273 83.8131 208.362 83.7175C208.451 83.6218 208.628 83.5703 208.894 83.5703H211.376C211.65 83.5703 211.834 83.6218 211.916 83.7248C212.004 83.8279 212.078 83.975 212.145 84.159L216.105 96.1461C216.142 96.3006 216.149 96.4183 216.127 96.4993C216.097 96.5802 216.016 96.617 215.868 96.617H213.423C213.201 96.617 213.046 96.5655 212.972 96.4698C212.891 96.3742 212.824 96.2196 212.758 96.0062L212.108 93.6736H208.185L207.475 96.0651ZM210.83 89.1334L210.202 86.7271H210.106L209.455 89.1113L208.864 91.2968H211.428L210.83 89.1334Z" fill="white"/>
</g>
<mask id="mask64_2_32778" style="mask-type:luminance" maskUnits="userSpaceOnUse" x="0" y="8" width="277" height="138">
<path d="M276.982 8.75781H0.49707V145.435H276.982V8.75781Z" fill="white"/>
</mask>
<g mask="url(#mask64_2_32778)">
<path d="M221.948 89.5286C221.911 90.5147 221.859 91.3977 221.778 92.1777C221.697 92.9577 221.578 93.6347 221.423 94.2087C221.268 94.7826 221.024 95.2683 220.692 95.651C220.367 96.041 219.931 96.3279 219.391 96.5266C218.852 96.7253 218.18 96.8283 217.36 96.843C217.02 96.843 216.806 96.8062 216.717 96.7253C216.628 96.6444 216.591 96.5193 216.591 96.3353C216.591 96.1145 216.584 95.9011 216.562 95.6877C216.54 95.4817 216.532 95.2609 216.532 95.0402C216.532 94.8562 216.562 94.7458 216.613 94.6943C216.665 94.6502 216.783 94.5987 216.968 94.5472C217.293 94.4662 217.574 94.3706 217.796 94.2528C218.017 94.1351 218.202 93.9658 218.35 93.7304C218.497 93.5023 218.601 93.2079 218.675 92.84C218.749 92.4721 218.8 91.9938 218.845 91.4051C218.926 90.1615 219 88.9326 219.081 87.7184C219.162 86.5043 219.229 85.2754 219.295 84.0465C219.295 83.7448 219.436 83.5977 219.731 83.5977H227.06C227.334 83.5977 227.474 83.7448 227.474 84.0465V96.1955C227.474 96.2985 227.452 96.4015 227.408 96.4898C227.363 96.5781 227.245 96.6296 227.06 96.6296H224.718C224.415 96.6296 224.268 96.4825 224.268 96.1955V86.2467H222.118C222.036 87.4462 221.977 88.5426 221.948 89.5286Z" fill="white"/>
</g>
<mask id="mask65_2_32778" style="mask-type:luminance" maskUnits="userSpaceOnUse" x="0" y="8" width="277" height="138">
<path d="M276.982 8.75781H0.49707V145.435H276.982V8.75781Z" fill="white"/>
</mask>
<g mask="url(#mask65_2_32778)">
<path d="M232.143 96.0651C232.077 96.2785 231.996 96.4183 231.885 96.4993C231.781 96.5802 231.634 96.617 231.449 96.617H229.262C229.114 96.617 229.018 96.5876 228.967 96.5287C228.915 96.4698 228.922 96.33 228.989 96.1093L232.794 84.1369C232.86 83.953 232.941 83.8131 233.03 83.7175C233.119 83.6218 233.296 83.5703 233.562 83.5703H236.044C236.318 83.5703 236.502 83.6218 236.584 83.7248C236.672 83.8279 236.746 83.975 236.813 84.159L240.773 96.1461C240.81 96.3006 240.817 96.4183 240.795 96.4993C240.765 96.5802 240.684 96.617 240.536 96.617H238.091C237.869 96.617 237.714 96.5655 237.64 96.4698C237.559 96.3742 237.492 96.2196 237.426 96.0062L236.776 93.6736H232.853L232.143 96.0651ZM235.49 89.1334L234.862 86.7271H234.766L234.116 89.1113L233.525 91.2968H236.089L235.49 89.1334Z" fill="white"/>
</g>
<mask id="mask66_2_32778" style="mask-type:luminance" maskUnits="userSpaceOnUse" x="0" y="8" width="277" height="138">
<path d="M276.982 8.75781H0.49707V145.435H276.982V8.75781Z" fill="white"/>
</mask>
<g mask="url(#mask66_2_32778)">
<path d="M152.625 110.945C152.625 111.387 152.559 111.843 152.44 112.307C152.315 112.77 152.101 113.197 151.79 113.58C151.48 113.962 151.066 114.279 150.549 114.522C150.032 114.765 149.374 114.882 148.584 114.882H145.998V119.827C145.998 120.048 145.887 120.158 145.665 120.158H144.831C144.594 120.158 144.483 120.048 144.483 119.827V107.465C144.483 107.259 144.602 107.148 144.838 107.148H148.584C149.16 107.148 149.699 107.229 150.202 107.384C150.704 107.538 151.133 107.774 151.495 108.09C151.857 108.407 152.137 108.797 152.344 109.275C152.529 109.761 152.625 110.313 152.625 110.945ZM151.111 110.96C151.111 110.136 150.867 109.525 150.379 109.135C149.891 108.745 149.249 108.547 148.443 108.547H145.991V113.528H148.562C149.064 113.528 149.478 113.455 149.81 113.315C150.143 113.168 150.401 112.976 150.593 112.734C150.785 112.491 150.918 112.218 151 111.909C151.074 111.608 151.111 111.291 151.111 110.96Z" fill="white"/>
</g>
<mask id="mask67_2_32778" style="mask-type:luminance" maskUnits="userSpaceOnUse" x="0" y="8" width="277" height="138">
<path d="M276.982 8.75781H0.49707V145.435H276.982V8.75781Z" fill="white"/>
</mask>
<g mask="url(#mask67_2_32778)">
<path d="M162.008 108.547H158.698V119.827C158.698 120.048 158.595 120.158 158.381 120.158H157.531C157.295 120.158 157.177 120.048 157.177 119.827V108.547H153.889C153.652 108.547 153.534 108.436 153.534 108.215V107.457C153.534 107.251 153.645 107.148 153.867 107.148H162.023C162.245 107.148 162.356 107.251 162.356 107.457V108.215C162.363 108.436 162.245 108.547 162.008 108.547Z" fill="white"/>
</g>
<mask id="mask68_2_32778" style="mask-type:luminance" maskUnits="userSpaceOnUse" x="0" y="8" width="277" height="138">
<path d="M276.982 8.75781H0.49707V145.435H276.982V8.75781Z" fill="white"/>
</mask>
<g mask="url(#mask68_2_32778)">
<path d="M168.097 115.611L169.774 111.196L171.229 107.392C171.281 107.296 171.333 107.237 171.384 107.208C171.436 107.178 171.525 107.156 171.643 107.156H172.611C172.818 107.156 172.877 107.252 172.788 107.451L168.791 117.399C168.569 117.885 168.363 118.312 168.17 118.672C167.978 119.04 167.779 119.342 167.557 119.585C167.343 119.828 167.099 120.012 166.826 120.137C166.56 120.262 166.235 120.328 165.873 120.343C165.688 120.343 165.496 120.335 165.289 120.321C165.082 120.306 164.868 120.277 164.632 120.225C164.358 120.174 164.24 120.026 164.277 119.791L164.358 119.261C164.388 119.062 164.506 118.974 164.713 118.989C165.067 119.004 165.363 118.996 165.592 118.981C165.821 118.959 166.013 118.908 166.176 118.827C166.338 118.746 166.471 118.621 166.589 118.474C166.708 118.327 166.826 118.12 166.944 117.856L167.262 117.23L163.22 107.436C163.191 107.37 163.191 107.311 163.22 107.259C163.25 107.208 163.302 107.178 163.376 107.178H164.535C164.654 107.178 164.735 107.2 164.779 107.237C164.824 107.274 164.868 107.333 164.905 107.414L166.442 111.38L168.037 115.619H168.097V115.611Z" fill="white"/>
</g>
<mask id="mask69_2_32778" style="mask-type:luminance" maskUnits="userSpaceOnUse" x="0" y="8" width="277" height="138">
<path d="M276.982 8.75781H0.49707V145.435H276.982V8.75781Z" fill="white"/>
</mask>
<g mask="url(#mask69_2_32778)">
<path d="M191.309 120.166H190.474C190.238 120.166 190.127 120.055 190.127 119.835V110.533H190.068L189.381 112.042L186.507 117.892C186.426 118.061 186.293 118.149 186.115 118.149H185.546C185.428 118.149 185.34 118.127 185.28 118.091C185.221 118.054 185.17 117.995 185.133 117.914L182.14 111.828L181.527 110.533H181.49V119.835C181.49 120.055 181.387 120.166 181.173 120.166H180.345C180.124 120.166 180.013 120.055 180.013 119.835V107.45C180.013 107.251 180.109 107.156 180.308 107.156H181.173C181.306 107.156 181.394 107.178 181.446 107.222C181.498 107.266 181.549 107.34 181.601 107.45L184.867 114.22L185.812 116.258H185.849L186.817 114.139L190.097 107.465C190.164 107.362 190.223 107.281 190.282 107.229C190.341 107.178 190.445 107.148 190.585 107.148H191.361C191.553 107.148 191.649 107.244 191.649 107.443V119.827C191.634 120.055 191.523 120.166 191.309 120.166Z" fill="white"/>
</g>
<mask id="mask70_2_32778" style="mask-type:luminance" maskUnits="userSpaceOnUse" x="0" y="8" width="277" height="138">
<path d="M276.982 8.75781H0.49707V145.435H276.982V8.75781Z" fill="white"/>
</mask>
<g mask="url(#mask70_2_32778)">
<path d="M194.516 107.509C194.516 107.362 194.546 107.274 194.597 107.222C194.649 107.178 194.73 107.156 194.834 107.156H195.639C195.757 107.156 195.846 107.178 195.905 107.222C195.964 107.267 195.994 107.362 195.994 107.509V117.495H196.053L197.686 114.927L202.436 107.473C202.503 107.384 202.569 107.303 202.628 107.245C202.687 107.186 202.791 107.156 202.939 107.156H203.759C203.973 107.156 204.076 107.252 204.076 107.451V119.835C204.076 120.056 203.958 120.166 203.714 120.166H202.894C202.665 120.166 202.554 120.056 202.554 119.835V109.732H202.495L201.173 111.873L196.09 119.857C196.023 119.96 195.957 120.041 195.89 120.093C195.824 120.144 195.72 120.174 195.573 120.174H194.826C194.62 120.174 194.509 120.07 194.509 119.857V107.509H194.516Z" fill="white"/>
</g>
<mask id="mask71_2_32778" style="mask-type:luminance" maskUnits="userSpaceOnUse" x="0" y="8" width="277" height="138">
<path d="M276.982 8.75781H0.49707V145.435H276.982V8.75781Z" fill="white"/>
</mask>
<g mask="url(#mask71_2_32778)">
<path d="M215.063 110.945C215.063 111.387 215.004 111.843 214.878 112.307C214.752 112.77 214.538 113.197 214.228 113.58C213.917 113.962 213.504 114.279 212.987 114.522C212.469 114.765 211.812 114.882 211.021 114.882H208.435V119.827C208.435 120.048 208.325 120.158 208.103 120.158H207.268C207.032 120.158 206.921 120.048 206.921 119.827V107.465C206.921 107.259 207.039 107.148 207.276 107.148H211.021C211.598 107.148 212.137 107.229 212.639 107.384C213.142 107.538 213.57 107.774 213.932 108.09C214.294 108.407 214.575 108.797 214.782 109.275C214.959 109.761 215.063 110.313 215.063 110.945ZM213.548 110.96C213.548 110.136 213.304 109.525 212.817 109.135C212.329 108.745 211.686 108.547 210.881 108.547H208.428V113.528H210.999C211.502 113.528 211.915 113.455 212.248 113.315C212.58 113.168 212.839 112.976 213.031 112.734C213.223 112.491 213.356 112.218 213.437 111.909C213.518 111.6 213.548 111.291 213.548 110.96Z" fill="white"/>
</g>
<mask id="mask72_2_32778" style="mask-type:luminance" maskUnits="userSpaceOnUse" x="0" y="8" width="277" height="138">
<path d="M276.982 8.75781H0.49707V145.435H276.982V8.75781Z" fill="white"/>
</mask>
<g mask="url(#mask72_2_32778)">
<path d="M220.523 120.322C220.323 120.322 220.079 120.315 219.791 120.3C219.503 120.286 219.193 120.264 218.868 120.219C218.535 120.183 218.21 120.131 217.885 120.065C217.56 119.999 217.257 119.918 216.999 119.807C216.851 119.741 216.769 119.675 216.74 119.609C216.71 119.542 216.71 119.469 216.74 119.373L216.858 118.821C216.888 118.755 216.917 118.696 216.969 118.645C217.013 118.593 217.102 118.578 217.235 118.608C217.671 118.674 218.173 118.733 218.764 118.792C219.348 118.851 219.939 118.88 220.53 118.88C221.239 118.88 221.823 118.755 222.281 118.497C222.739 118.24 223.108 117.901 223.374 117.467C223.64 117.033 223.833 116.525 223.943 115.944C224.054 115.363 224.121 114.745 224.128 114.09H219.2C218.979 114.09 218.868 113.987 218.868 113.773V113.008C218.868 112.802 218.979 112.692 219.2 112.692H224.106C224.076 112.118 224.017 111.573 223.929 111.051C223.84 110.536 223.677 110.079 223.456 109.697C223.234 109.314 222.916 109.005 222.503 108.777C222.089 108.549 221.55 108.431 220.877 108.431C220.271 108.431 219.725 108.46 219.23 108.519C218.735 108.578 218.255 108.637 217.782 108.703C217.634 108.733 217.545 108.711 217.494 108.652C217.449 108.593 217.412 108.534 217.383 108.468L217.287 107.96C217.257 107.857 217.257 107.769 217.279 107.703C217.301 107.636 217.375 107.577 217.508 107.526C217.745 107.438 218.018 107.349 218.328 107.283C218.639 107.209 218.949 107.158 219.267 107.114C219.584 107.077 219.88 107.048 220.161 107.026C220.441 107.003 220.685 106.996 220.877 106.996C221.956 106.996 222.813 107.173 223.456 107.533C224.098 107.894 224.586 108.372 224.926 108.976C225.258 109.579 225.48 110.271 225.584 111.058C225.687 111.845 225.739 112.662 225.739 113.508C225.739 114.369 225.665 115.216 225.524 116.032C225.377 116.849 225.111 117.57 224.726 118.203C224.342 118.829 223.81 119.336 223.131 119.726C222.451 120.131 221.587 120.322 220.523 120.322Z" fill="white"/>
</g>
<mask id="mask73_2_32778" style="mask-type:luminance" maskUnits="userSpaceOnUse" x="0" y="0" width="277" height="138">
<path d="M276.982 0.582031H0.49707V137.26H276.982V0.582031Z" fill="white"/>
</mask>
<g mask="url(#mask73_2_32778)">
<path d="M228.14 119.851C228.103 119.983 228.051 120.064 227.985 120.108C227.918 120.145 227.837 120.167 227.726 120.167H226.699C226.515 120.167 226.463 120.064 226.544 119.851L230.659 107.466C230.711 107.268 230.837 107.172 231.036 107.172H232.137C232.27 107.172 232.359 107.201 232.403 107.253C232.447 107.304 232.484 107.378 232.514 107.466L236.636 119.887C236.673 120.071 236.621 120.16 236.481 120.16H235.277C235.173 120.16 235.1 120.138 235.048 120.101C235.003 120.064 234.967 119.998 234.937 119.902L233.969 116.686H229.159L228.14 119.851ZM232.558 112.021L231.612 108.842H231.553L230.63 111.962L229.625 115.296H233.548L232.558 112.021Z" fill="white"/>
</g>
</svg>
