<svg width="26" height="32" viewBox="0 0 26 32" fill="none" xmlns="http://www.w3.org/2000/svg">
<path fill-rule="evenodd" clip-rule="evenodd" d="M12.0983 30.9026C12.7306 30.9026 24.0286 18.8312 24.0286 12.2423C24.0286 5.65339 18.6871 0.312012 12.0983 0.312012C5.50934 0.312012 0.167969 5.65339 0.167969 12.2423C0.167969 18.8312 11.466 30.9026 12.0983 30.9026ZM12.0983 18.2095C15.4389 18.2095 18.147 15.5013 18.147 12.1607C18.147 8.82014 15.4389 6.11206 12.0983 6.11206C8.75771 6.11206 6.04963 8.82014 6.04963 12.1607C6.04963 15.5013 8.75771 18.2095 12.0983 18.2095Z" fill="#EB1F42"/>
<path fill-rule="evenodd" clip-rule="evenodd" d="M0.167969 12.2423C0.167969 18.8312 11.466 30.9026 12.0983 30.9026V18.2095C8.75769 18.2093 6.04963 15.5013 6.04963 12.1607C6.04963 8.82016 8.75769 6.11208 12.0983 6.11206V0.312012C5.50934 0.312012 0.167969 5.65339 0.167969 12.2423Z" fill="#EB1F42"/>
</svg>
