<svg width="16" height="16" viewBox="0 0 16 16" fill="none" xmlns="http://www.w3.org/2000/svg">
<path fill-rule="evenodd" clip-rule="evenodd" d="M7.9987 1.33333C6.58421 1.33333 5.22766 1.89524 4.22746 2.89543C3.22727 3.89562 2.66536 5.25218 2.66536 6.66667C2.66536 8.73204 4.00919 10.7362 5.48267 12.2915C6.20577 13.0548 6.93114 13.6796 7.47648 14.1139C7.67944 14.2755 7.85671 14.4101 7.9987 14.5151C8.14068 14.4101 8.31796 14.2755 8.52091 14.1139C9.06625 13.6796 9.79162 13.0548 10.5147 12.2915C11.9882 10.7362 13.332 8.73204 13.332 6.66667C13.332 5.25218 12.7701 3.89562 11.7699 2.89543C10.7697 1.89524 9.41319 1.33333 7.9987 1.33333ZM7.9987 15.3333C7.6289 15.888 7.62873 15.8879 7.62854 15.8878L7.62663 15.8865L7.62219 15.8835L7.60691 15.8732C7.59393 15.8644 7.57542 15.8517 7.55174 15.8353C7.50438 15.8025 7.43634 15.7547 7.35056 15.6928C7.17906 15.5689 6.93627 15.3881 6.64591 15.1569C6.06625 14.6954 5.29162 14.0286 4.51473 13.2085C2.98821 11.5972 1.33203 9.26796 1.33203 6.66667C1.33203 4.89856 2.03441 3.20286 3.28465 1.95262C4.53489 0.702379 6.23059 0 7.9987 0C9.76681 0 11.4625 0.702379 12.7127 1.95262C13.963 3.20286 14.6654 4.89856 14.6654 6.66667C14.6654 9.26796 13.0092 11.5972 11.4827 13.2085C10.7058 14.0286 9.93114 14.6954 9.35148 15.1569C9.06112 15.3881 8.81833 15.5689 8.64684 15.6928C8.56106 15.7547 8.49301 15.8025 8.44566 15.8353C8.42198 15.8517 8.40347 15.8644 8.39049 15.8732L8.37521 15.8835L8.37076 15.8865L8.36936 15.8875C8.36916 15.8876 8.3685 15.888 7.9987 15.3333ZM7.9987 15.3333L8.3685 15.888C8.14457 16.0373 7.85247 16.0371 7.62854 15.8878L7.9987 15.3333Z" fill="#303063"/>
<path fill-rule="evenodd" clip-rule="evenodd" d="M7.9987 5.33333C7.26232 5.33333 6.66536 5.93029 6.66536 6.66667C6.66536 7.40305 7.26232 8 7.9987 8C8.73508 8 9.33203 7.40305 9.33203 6.66667C9.33203 5.93029 8.73508 5.33333 7.9987 5.33333ZM5.33203 6.66667C5.33203 5.19391 6.52594 4 7.9987 4C9.47146 4 10.6654 5.19391 10.6654 6.66667C10.6654 8.13943 9.47146 9.33333 7.9987 9.33333C6.52594 9.33333 5.33203 8.13943 5.33203 6.66667Z" fill="#303063"/>
</svg>
