<svg width="17" height="17" viewBox="0 0 17 17" fill="none" xmlns="http://www.w3.org/2000/svg">
<g clip-path="url(#clip0_2_33079)">
<path fill-rule="evenodd" clip-rule="evenodd" d="M8.14353 1.83333C6.72905 1.83333 5.37249 2.39524 4.3723 3.39543C3.3721 4.39562 2.8102 5.75218 2.8102 7.16667C2.8102 9.23204 4.15403 11.2362 5.6275 12.7915C6.35061 13.5548 7.07598 14.1796 7.62132 14.6139C7.82428 14.7755 8.00155 14.9101 8.14353 15.0151C8.28552 14.9101 8.46279 14.7755 8.66575 14.6139C9.21109 14.1796 9.93646 13.5548 10.6596 12.7915C12.133 11.2362 13.4769 9.23204 13.4769 7.16667C13.4769 5.75218 12.915 4.39562 11.9148 3.39543C10.9146 2.39524 9.55802 1.83333 8.14353 1.83333ZM8.14353 15.8333C7.77373 16.388 7.77357 16.3879 7.77337 16.3878L7.77147 16.3865L7.76703 16.3835L7.75175 16.3732C7.73877 16.3644 7.72025 16.3517 7.69657 16.3353C7.64922 16.3025 7.58118 16.2547 7.4954 16.1928C7.3239 16.0689 7.08111 15.8881 6.79075 15.6569C6.21109 15.1954 5.43646 14.5286 4.65957 13.7085C3.13304 12.0972 1.47687 9.76796 1.47687 7.16667C1.47687 5.39856 2.17925 3.70286 3.42949 2.45262C4.67973 1.20238 6.37542 0.5 8.14353 0.5C9.91164 0.5 11.6073 1.20238 12.8576 2.45262C14.1078 3.70286 14.8102 5.39856 14.8102 7.16667C14.8102 9.76796 13.154 12.0972 11.6275 13.7085C10.8506 14.5286 10.076 15.1954 9.49632 15.6569C9.20596 15.8881 8.96317 16.0689 8.79167 16.1928C8.70589 16.2547 8.63785 16.3025 8.5905 16.3353C8.56682 16.3517 8.5483 16.3644 8.53532 16.3732L8.52004 16.3835L8.5156 16.3865L8.51419 16.3875C8.514 16.3876 8.51333 16.388 8.14353 15.8333ZM8.14353 15.8333L8.51333 16.388C8.2894 16.5373 7.99731 16.5371 7.77337 16.3878L8.14353 15.8333Z" fill="#EAEAEA"/>
<path fill-rule="evenodd" clip-rule="evenodd" d="M8.14353 5.83333C7.40715 5.83333 6.8102 6.43029 6.8102 7.16667C6.8102 7.90305 7.40715 8.5 8.14353 8.5C8.87991 8.5 9.47687 7.90305 9.47687 7.16667C9.47687 6.43029 8.87991 5.83333 8.14353 5.83333ZM5.47687 7.16667C5.47687 5.69391 6.67077 4.5 8.14353 4.5C9.61629 4.5 10.8102 5.69391 10.8102 7.16667C10.8102 8.63943 9.61629 9.83333 8.14353 9.83333C6.67077 9.83333 5.47687 8.63943 5.47687 7.16667Z" fill="#EAEAEA"/>
</g>
<defs>
<clipPath id="clip0_2_33079">
<rect width="16" height="16" fill="white" transform="translate(0.143555 0.5)"/>
</clipPath>
</defs>
</svg>
