<svg width="104" height="31" viewBox="0 0 104 31" fill="none" xmlns="http://www.w3.org/2000/svg">
<path d="M19.5997 19.821C19.1997 19.521 18.6997 19.321 18.1997 19.221C17.6997 19.021 17.1997 19.021 16.6997 19.021C16.3997 19.021 16.0997 19.021 15.7997 19.121C15.4997 19.221 15.2997 19.321 15.0997 19.421C14.8997 19.521 14.6997 19.721 14.5997 19.921C14.4997 20.121 14.3997 20.321 14.3997 20.521C14.3997 20.721 14.3997 20.921 14.4997 21.021C14.5997 21.121 14.6997 21.321 14.8997 21.421C15.0997 21.521 15.2997 21.621 15.5997 21.721C15.8997 21.821 16.1997 21.821 16.4997 21.921L17.1997 22.021C17.5997 22.121 17.9997 22.121 18.3997 22.321C18.7997 22.421 19.0997 22.621 19.3997 22.821C19.6997 23.021 19.9997 23.321 20.0997 23.621C20.2997 23.921 20.3997 24.321 20.3997 24.821C20.3997 25.321 20.2997 25.821 20.0997 26.221C19.8997 26.621 19.5997 26.921 19.1997 27.221C18.7997 27.521 18.3997 27.721 17.8997 27.821C17.3997 27.921 16.8997 28.021 16.2997 28.021C15.9997 28.021 15.5997 28.021 15.1997 27.921C14.7997 27.821 14.4997 27.821 14.0997 27.621C13.6997 27.521 13.3997 27.321 13.0997 27.221C12.7997 27.021 12.4997 26.821 12.1997 26.621L13.0997 25.321C13.2997 25.521 13.4997 25.621 13.6997 25.721C13.8997 25.821 14.1997 26.021 14.4997 26.121C14.7997 26.221 15.0997 26.321 15.3997 26.321C15.6997 26.421 15.9997 26.421 16.2997 26.421C16.5997 26.421 16.8997 26.421 17.1997 26.321C17.4997 26.221 17.6997 26.121 17.8997 26.021C18.0997 25.921 18.2997 25.721 18.3997 25.521C18.4997 25.321 18.5997 25.121 18.5997 24.921C18.5997 24.521 18.3997 24.221 17.9997 24.021C17.5997 23.821 16.9997 23.621 16.2997 23.521L15.7997 23.421C15.3997 23.321 15.0997 23.321 14.6997 23.121C14.2997 23.021 13.9997 22.821 13.6997 22.621C13.3997 22.421 13.1997 22.121 12.9997 21.821C12.7997 21.521 12.6997 21.121 12.6997 20.621C12.6997 20.121 12.7997 19.621 12.9997 19.321C13.1997 18.921 13.4997 18.621 13.8997 18.321C14.2997 18.021 14.6997 17.821 15.1997 17.721C15.6997 17.621 16.1997 17.521 16.6997 17.521C17.3997 17.521 18.0997 17.621 18.6997 17.821C19.2997 18.021 19.7997 18.321 20.3997 18.621L19.5997 19.821ZM25.1997 20.621C25.6997 20.621 26.0997 20.721 26.4997 20.921C26.8997 21.121 27.1997 21.321 27.4997 21.621C27.7997 21.921 27.9997 22.321 28.1997 22.721C28.3997 23.121 28.3997 23.621 28.3997 24.221C28.3997 24.321 28.3997 24.421 28.3997 24.521C28.3997 24.621 28.3997 24.721 28.3997 24.821H23.2997C23.2997 25.121 23.3997 25.421 23.5997 25.621C23.6997 25.821 23.8997 26.021 24.0997 26.121C24.2997 26.221 24.4997 26.321 24.6997 26.421C24.8997 26.521 25.1997 26.521 25.3997 26.521C25.6997 26.521 26.0997 26.421 26.3997 26.321C26.6997 26.221 27.0997 26.021 27.3997 25.821L28.1997 26.921C27.7997 27.321 27.2997 27.521 26.8997 27.721C26.3997 27.821 25.8997 27.921 25.3997 27.921C24.8997 27.921 24.3997 27.821 23.9997 27.621C23.5997 27.421 23.1997 27.221 22.8997 26.921C22.5997 26.621 22.2997 26.221 22.1997 25.821C21.9997 25.421 21.8997 24.921 21.8997 24.321C21.8997 23.821 21.9997 23.321 22.1997 22.821C22.3997 22.421 22.5997 22.021 22.8997 21.621C23.1997 21.321 23.5997 21.021 23.9997 20.921C24.1997 20.721 24.5997 20.621 25.1997 20.621ZM25.0997 22.021C24.7997 22.021 24.5997 22.021 24.3997 22.121C24.1997 22.221 23.9997 22.321 23.8997 22.521C23.6997 22.721 23.5997 22.821 23.4997 23.021C23.3997 23.221 23.2997 23.421 23.2997 23.721H26.8997C26.7997 23.221 26.5997 22.721 26.2997 22.421C25.9997 22.121 25.5997 22.021 25.0997 22.021ZM33.0997 20.621C33.5997 20.621 34.0997 20.721 34.4997 20.921C34.8997 21.121 35.2997 21.421 35.5997 21.721L34.5997 22.721C34.3997 22.521 34.0997 22.321 33.7997 22.221C33.4997 22.121 33.1997 22.021 32.8997 22.021C32.5997 22.021 32.2997 22.121 32.0997 22.221C31.7997 22.321 31.5997 22.521 31.4997 22.721C31.2997 22.921 31.1997 23.121 31.0997 23.421C30.9997 23.721 30.8997 24.021 30.8997 24.321C30.8997 24.621 30.9997 24.921 31.0997 25.221C31.1997 25.521 31.2997 25.721 31.4997 25.921C31.6997 26.121 31.8997 26.221 32.0997 26.421C32.2997 26.521 32.5997 26.621 32.8997 26.621C33.1997 26.621 33.4997 26.521 33.7997 26.421C34.0997 26.321 34.2997 26.121 34.5997 25.921L35.4997 26.921C35.1997 27.321 34.7997 27.521 34.3997 27.721C33.9997 27.921 33.4997 28.021 32.9997 28.021C32.4997 28.021 31.9997 27.921 31.4997 27.721C31.0997 27.521 30.6997 27.321 30.3997 26.921C30.0997 26.621 29.7997 26.221 29.6997 25.721C29.4997 25.321 29.3997 24.821 29.3997 24.321C29.3997 23.821 29.4997 23.321 29.6997 22.921C29.8997 22.521 30.0997 22.121 30.3997 21.721C30.6997 21.421 31.0997 21.121 31.4997 20.921C32.0997 20.721 32.5997 20.621 33.0997 20.621ZM43.4997 24.821C43.4997 25.321 43.3997 25.821 43.1997 26.221C42.9997 26.621 42.7997 26.921 42.4997 27.221C42.1997 27.521 41.8997 27.621 41.4997 27.821C41.0997 27.921 40.6997 28.021 40.2997 28.021C39.8997 28.021 39.4997 27.921 39.0997 27.821C38.6997 27.721 38.3997 27.521 38.0997 27.221C37.7997 27.021 37.5997 26.621 37.3997 26.221C37.1997 25.821 37.0997 25.321 37.0997 24.821V20.821H38.5997V24.621C38.5997 24.921 38.5997 25.221 38.6997 25.421C38.7997 25.621 38.8997 25.821 39.0997 26.021C39.2997 26.121 39.3997 26.221 39.5997 26.321C39.7997 26.421 39.9997 26.421 40.2997 26.421C40.4997 26.421 40.7997 26.421 40.9997 26.321C41.1997 26.221 41.3997 26.121 41.4997 26.021C41.6997 25.921 41.7997 25.721 41.8997 25.421C41.9997 25.221 41.9997 24.921 41.9997 24.621V20.821H43.4997V24.821ZM48.9997 20.621C49.1997 20.621 49.3997 20.621 49.5997 20.621C49.7997 20.621 49.9997 20.721 50.0997 20.721L49.6997 22.221C49.4997 22.121 49.3997 22.121 49.0997 22.021C48.8997 22.021 48.6997 21.921 48.4997 21.921C48.2997 21.921 47.9997 21.921 47.7997 22.021C47.5997 22.121 47.3997 22.221 47.2997 22.421C47.1997 22.621 46.9997 22.821 46.9997 23.021C46.8997 23.221 46.8997 23.521 46.8997 23.821V27.621H45.3997V20.721H46.8997V21.521C47.0997 21.221 47.3997 20.921 47.7997 20.821C48.0997 20.721 48.4997 20.621 48.9997 20.621ZM53.9997 20.621C54.4997 20.621 54.8997 20.721 55.2997 20.921C55.6997 21.121 55.9997 21.321 56.2997 21.621C56.5997 21.921 56.7997 22.321 56.9997 22.721C57.1997 23.121 57.1997 23.621 57.1997 24.221C57.1997 24.321 57.1997 24.421 57.1997 24.521C57.1997 24.621 57.1997 24.721 57.1997 24.821H52.1997C52.1997 25.121 52.2997 25.421 52.4997 25.621C52.5997 25.821 52.7997 26.021 52.9997 26.121C53.1997 26.221 53.3997 26.321 53.5997 26.421C53.7997 26.521 54.0997 26.521 54.2997 26.521C54.5997 26.521 54.9997 26.421 55.2997 26.321C55.5997 26.221 55.9997 26.021 56.2997 25.821L56.9997 26.921C56.5997 27.321 56.0997 27.521 55.6997 27.721C55.1997 27.821 54.6997 27.921 54.1997 27.921C53.6997 27.921 53.1997 27.821 52.7997 27.621C52.3997 27.421 51.9997 27.221 51.6997 26.921C51.3997 26.621 51.0997 26.221 50.9997 25.821C50.7997 25.421 50.6997 24.921 50.6997 24.321C50.6997 23.821 50.7997 23.321 50.9997 22.821C51.1997 22.421 51.3997 22.021 51.6997 21.621C51.9997 21.321 52.3997 21.021 52.7997 20.921C52.9997 20.721 53.4997 20.621 53.9997 20.621ZM53.9997 22.021C53.6997 22.021 53.4997 22.021 53.2997 22.121C53.0997 22.221 52.8997 22.321 52.7997 22.521C52.5997 22.721 52.4997 22.821 52.3997 23.021C52.2997 23.221 52.1997 23.421 52.1997 23.721H55.7997C55.6997 23.221 55.4997 22.721 55.1997 22.421C54.8997 22.121 54.4997 22.021 53.9997 22.021ZM63.7997 17.421C64.1997 17.421 64.6997 17.421 65.0997 17.521C65.4997 17.621 65.8997 17.721 66.2997 17.921C66.6997 18.121 66.9997 18.321 67.2997 18.621C67.5997 18.921 67.7997 19.221 67.9997 19.521L66.5997 20.421C66.2997 19.921 65.8997 19.621 65.3997 19.321C64.8997 19.021 64.3997 18.921 63.7997 18.921C63.2997 18.921 62.7997 19.021 62.3997 19.221C61.9997 19.421 61.5997 19.621 61.2997 20.021C60.9997 20.321 60.6997 20.721 60.5997 21.221C60.3997 21.721 60.2997 22.121 60.2997 22.721C60.2997 23.221 60.3997 23.721 60.5997 24.221C60.7997 24.721 60.9997 25.021 61.2997 25.421C61.5997 25.721 61.9997 26.021 62.3997 26.121C62.7997 26.321 63.2997 26.421 63.7997 26.421C64.3997 26.421 64.8997 26.321 65.3997 26.021C65.8997 25.721 66.2997 25.421 66.5997 24.921L67.8997 25.921C67.6997 26.221 67.3997 26.521 67.0997 26.821C66.7997 27.121 66.4997 27.321 66.0997 27.421C65.6997 27.621 65.3997 27.721 64.9997 27.821C64.5997 27.921 64.1997 27.921 63.6997 27.921C62.8997 27.921 62.1997 27.821 61.5997 27.521C60.9997 27.221 60.3997 26.921 59.8997 26.421C59.3997 25.921 59.0997 25.421 58.7997 24.721C58.4997 24.121 58.3997 23.421 58.3997 22.621C58.3997 21.821 58.4997 21.121 58.7997 20.521C59.0997 19.921 59.3997 19.321 59.8997 18.821C60.3997 18.321 60.8997 18.021 61.5997 17.721C62.2997 17.621 62.9997 17.421 63.7997 17.421ZM72.6997 20.621C73.1997 20.621 73.6997 20.721 74.1997 20.921C74.6997 21.121 74.9997 21.321 75.3997 21.721C75.6997 22.021 75.9997 22.421 76.1997 22.921C76.3997 23.321 76.4997 23.821 76.4997 24.321C76.4997 24.821 76.3997 25.321 76.1997 25.721C75.9997 26.121 75.7997 26.521 75.3997 26.921C75.0997 27.221 74.6997 27.521 74.1997 27.721C73.6997 27.921 73.2997 28.021 72.6997 28.021C72.1997 28.021 71.6997 27.921 71.1997 27.721C70.6997 27.521 70.3997 27.321 69.9997 26.921C69.6997 26.621 69.3997 26.221 69.1997 25.721C68.9997 25.321 68.8997 24.821 68.8997 24.321C68.8997 23.821 68.9997 23.321 69.1997 22.921C69.3997 22.521 69.5997 22.121 69.9997 21.721C70.2997 21.421 70.6997 21.121 71.1997 20.921C71.6997 20.721 72.1997 20.621 72.6997 20.621ZM72.6997 22.021C72.3997 22.021 72.0997 22.121 71.7997 22.221C71.4997 22.321 71.2997 22.521 71.0997 22.721C70.8997 22.921 70.7997 23.121 70.5997 23.421C70.4997 23.721 70.3997 24.021 70.3997 24.321C70.3997 24.621 70.4997 24.921 70.5997 25.221C70.6997 25.521 70.8997 25.721 71.0997 25.921C71.2997 26.121 71.4997 26.221 71.7997 26.421C72.0997 26.521 72.3997 26.621 72.6997 26.621C72.9997 26.621 73.2997 26.521 73.5997 26.421C73.8997 26.321 74.0997 26.121 74.2997 25.921C74.4997 25.721 74.5997 25.521 74.7997 25.221C74.8997 24.921 74.9997 24.621 74.9997 24.321C74.9997 24.021 74.8997 23.721 74.7997 23.421C74.6997 23.121 74.4997 22.921 74.2997 22.721C74.0997 22.521 73.8997 22.421 73.5997 22.221C73.2997 22.121 72.9997 22.021 72.6997 22.021ZM80.9997 20.621C81.4997 20.621 81.8997 20.721 82.2997 20.921C82.6997 21.121 82.9997 21.321 83.1997 21.621V17.321H84.6997V27.721H83.1997V26.921C82.9997 27.221 82.6997 27.521 82.2997 27.621C81.8997 27.821 81.4997 27.921 80.9997 27.921C80.4997 27.921 80.0997 27.821 79.5997 27.621C79.1997 27.421 78.7997 27.221 78.4997 26.821C78.1997 26.521 77.8997 26.121 77.7997 25.621C77.5997 25.221 77.4997 24.721 77.4997 24.121C77.4997 23.621 77.5997 23.121 77.7997 22.621C77.9997 22.221 78.1997 21.821 78.4997 21.421C78.7997 21.121 79.1997 20.821 79.5997 20.621C79.9997 20.721 80.4997 20.621 80.9997 20.621ZM81.0997 22.021C80.7997 22.021 80.4997 22.121 80.1997 22.221C79.8997 22.321 79.6997 22.521 79.4997 22.721C79.2997 22.921 79.1997 23.121 79.0997 23.421C78.9997 23.721 78.9997 24.021 78.9997 24.321C78.9997 24.621 78.9997 24.921 79.0997 25.221C79.1997 25.521 79.2997 25.721 79.4997 25.921C79.6997 26.121 79.8997 26.321 80.1997 26.421C80.4997 26.521 80.6997 26.621 81.0997 26.621C81.3997 26.621 81.6997 26.521 81.9997 26.421C82.2997 26.321 82.4997 26.121 82.6997 25.921C82.8997 25.721 82.9997 25.521 83.0997 25.221C83.1997 24.921 83.2997 24.621 83.2997 24.321C83.2997 24.021 83.1997 23.721 83.0997 23.421C82.9997 23.121 82.8997 22.921 82.6997 22.721C82.4997 22.521 82.2997 22.321 81.9997 22.221C81.6997 22.121 81.4997 22.021 81.0997 22.021ZM89.6997 20.621C90.1997 20.621 90.5997 20.721 90.9997 20.921C91.3997 21.121 91.6997 21.321 91.9997 21.621C92.2997 21.921 92.4997 22.321 92.6997 22.721C92.8997 23.121 92.8997 23.621 92.8997 24.221C92.8997 24.321 92.8997 24.421 92.8997 24.521C92.8997 24.621 92.8997 24.721 92.8997 24.821H87.7997C87.7997 25.121 87.8997 25.421 88.0997 25.621C88.1997 25.821 88.3997 26.021 88.5997 26.121C88.7997 26.221 88.9997 26.321 89.1997 26.421C89.3997 26.521 89.6997 26.521 89.8997 26.521C90.1997 26.521 90.5997 26.421 90.8997 26.321C91.1997 26.221 91.5997 26.021 91.8997 25.821L92.5997 26.921C92.1997 27.321 91.6997 27.521 91.2997 27.721C90.7997 27.821 90.2997 27.921 89.7997 27.921C89.2997 27.921 88.7997 27.821 88.3997 27.621C87.9997 27.421 87.5997 27.221 87.2997 26.921C86.9997 26.621 86.6997 26.221 86.5997 25.821C86.3997 25.421 86.2997 24.921 86.2997 24.321C86.2997 23.821 86.3997 23.321 86.5997 22.821C86.7997 22.421 86.9997 22.021 87.2997 21.621C87.5997 21.321 87.9997 21.021 88.3997 20.921C88.6997 20.721 89.1997 20.621 89.6997 20.621ZM93.5997 27.721V27.421H93.6997V27.321H93.2997V27.421H93.3997L93.5997 27.721ZM94.2997 27.721V27.321H94.1997L94.0997 27.621L93.9997 27.321H93.8997V27.721H93.9997V27.421L94.0997 27.721H94.1997L94.2997 27.421V27.721ZM89.5997 22.021C89.2997 22.021 89.0997 22.021 88.8997 22.121C88.6997 22.221 88.4997 22.321 88.3997 22.521C88.1997 22.721 88.0997 22.821 87.9997 23.021C87.8997 23.221 87.7997 23.421 87.7997 23.721H91.3997C91.2997 23.221 91.0997 22.721 90.7997 22.421C90.4997 22.121 90.0997 22.021 89.5997 22.021Z" fill="#F59E1F"/>
<path d="M24.5998 13.5209H22.8998V4.92095L19.8998 12.4209H18.0998L14.9998 4.92095V13.4209H13.2998V3.02095H15.8998L18.8998 10.5209L21.8998 3.02095H24.4998V13.5209H24.5998ZM33.4998 13.5209H31.8998V12.6209C31.6998 12.9209 31.2998 13.2209 30.9998 13.4209C30.5998 13.6209 30.1998 13.7209 29.6998 13.7209C29.1998 13.7209 28.6998 13.6209 28.2998 13.4209C27.8998 13.2209 27.4998 13.0209 27.1998 12.6209C26.8998 12.3209 26.5998 11.9209 26.3998 11.4209C26.1998 10.9209 26.0998 10.4209 26.0998 9.92095C26.0998 9.42095 26.1998 8.82095 26.3998 8.42095C26.5998 7.92095 26.7998 7.52095 27.1998 7.22095C27.4998 6.92095 27.8998 6.62095 28.2998 6.42095C28.6998 6.22095 29.1998 6.12095 29.6998 6.12095C30.1998 6.12095 30.6998 6.22095 30.9998 6.42095C31.3998 6.62095 31.6998 6.82095 31.8998 7.22095V6.32095H33.4998V13.5209ZM29.8998 7.62095C29.5998 7.62095 29.2998 7.72095 28.9998 7.82095C28.6998 7.92095 28.4998 8.12095 28.2998 8.32095C28.0998 8.52095 27.9998 8.72095 27.8998 9.02095C27.7998 9.32095 27.7998 9.62095 27.7998 9.92095C27.7998 10.2209 27.7998 10.5209 27.8998 10.8209C27.9998 11.1209 28.0998 11.3209 28.2998 11.5209C28.4998 11.7209 28.6998 11.9209 28.9998 12.0209C29.2998 12.1209 29.5998 12.2209 29.8998 12.2209C30.1998 12.2209 30.4998 12.1209 30.7998 12.0209C31.0998 11.9209 31.2998 11.7209 31.4998 11.5209C31.6998 11.3209 31.7998 11.1209 31.8998 10.8209C31.9998 10.5209 32.0998 10.2209 32.0998 9.92095C32.0998 9.62095 31.9998 9.32095 31.8998 9.02095C31.7998 8.72095 31.5998 8.52095 31.4998 8.32095C31.2998 8.12095 31.0998 7.92095 30.7998 7.82095C30.4998 7.62095 30.1998 7.62095 29.8998 7.62095ZM40.6998 8.12095C40.5998 8.02095 40.4998 8.02095 40.2998 7.92095C40.0998 7.82095 39.9998 7.82095 39.7998 7.72095C39.5998 7.62095 39.3998 7.62095 39.1998 7.62095C38.9998 7.62095 38.7998 7.52095 38.4998 7.52095C38.0998 7.52095 37.6998 7.62095 37.4998 7.72095C37.2998 7.92095 37.0998 8.12095 37.0998 8.32095C37.0998 8.42095 37.0998 8.52095 37.1998 8.62095C37.2998 8.72095 37.2998 8.82095 37.4998 8.82095C37.5998 8.92095 37.6998 8.92095 37.8998 8.92095C37.9998 8.92095 38.1998 9.02095 38.3998 9.02095L39.0998 9.12095C39.8998 9.22095 40.4998 9.42095 40.8998 9.82095C41.2998 10.1209 41.5998 10.6209 41.5998 11.2209C41.5998 11.5209 41.4998 11.9209 41.3998 12.1209C41.2998 12.4209 40.9998 12.6209 40.7998 12.8209C40.4998 13.0209 40.1998 13.2209 39.7998 13.3209C39.3998 13.4209 38.8998 13.5209 38.3998 13.5209C38.1998 13.5209 37.9998 13.5209 37.7998 13.5209C37.5998 13.5209 37.2998 13.4209 36.9998 13.4209C36.6998 13.3209 36.3998 13.2209 36.1998 13.1209C35.8998 13.0209 35.5998 12.8209 35.3998 12.6209L36.0998 11.4209C36.1998 11.5209 36.3998 11.6209 36.4998 11.7209C36.6998 11.8209 36.7998 11.9209 36.9998 11.9209C37.1998 12.0209 37.3998 12.0209 37.5998 12.1209C37.7998 12.1209 38.0998 12.2209 38.3998 12.2209C38.8998 12.2209 39.2998 12.1209 39.5998 12.0209C39.8998 11.8209 39.9998 11.6209 39.9998 11.4209C39.9998 11.2209 39.8998 11.0209 39.6998 10.9209C39.4998 10.8209 39.1998 10.7209 38.7998 10.6209L38.0998 10.5209C37.2998 10.4209 36.6998 10.2209 36.2998 9.82095C35.8998 9.42095 35.6998 9.02095 35.6998 8.42095C35.6998 8.02095 35.7998 7.72095 35.8998 7.42095C35.9998 7.12095 36.1998 6.92095 36.4998 6.72095C36.7998 6.52095 37.0998 6.42095 37.3998 6.22095C37.7998 6.12095 38.1998 6.02095 38.5998 6.02095C39.1998 6.02095 39.6998 6.12095 40.1998 6.22095C40.6998 6.32095 41.0998 6.52095 41.4998 6.82095L40.6998 8.12095ZM48.0998 7.72095H45.3998V10.8209C45.3998 11.0209 45.3998 11.2209 45.4998 11.4209C45.5998 11.6209 45.5998 11.7209 45.6998 11.8209C45.7998 11.9209 45.8998 12.0209 46.0998 12.0209C46.1998 12.0209 46.3998 12.1209 46.4998 12.1209C46.6998 12.1209 46.9998 12.1209 47.1998 12.0209C47.4998 11.9209 47.6998 11.8209 47.8998 11.7209L48.4998 12.9209C48.1998 13.1209 47.8998 13.3209 47.4998 13.4209C47.0998 13.5209 46.6998 13.6209 46.2998 13.6209C45.4998 13.6209 44.8998 13.4209 44.3998 12.9209C43.8998 12.4209 43.6998 11.7209 43.6998 10.8209V7.62095H42.2998V6.22095H43.6998V4.02095H45.2998V6.22095H47.9998V7.72095H48.0998ZM52.8998 6.12095C53.3998 6.12095 53.8998 6.22095 54.2998 6.42095C54.6998 6.62095 55.0998 6.82095 55.3998 7.22095C55.6998 7.52095 55.8998 7.92095 56.0998 8.42095C56.2998 8.92095 56.3998 9.42095 56.3998 9.92095C56.3998 10.0209 56.3998 10.1209 56.3998 10.2209C56.3998 10.3209 56.3998 10.4209 56.3998 10.5209H51.0998C51.0998 10.8209 51.1998 11.1209 51.3998 11.3209C51.4998 11.5209 51.6998 11.7209 51.8998 11.9209C52.0998 12.0209 52.2998 12.2209 52.4998 12.2209C52.6998 12.3209 52.9998 12.3209 53.1998 12.3209C53.5998 12.3209 53.8998 12.2209 54.2998 12.1209C54.6998 12.0209 54.9998 11.8209 55.2998 11.5209L56.0998 12.6209C55.6998 13.0209 55.1998 13.2209 54.6998 13.4209C54.1998 13.5209 53.6998 13.6209 53.0998 13.6209C52.5998 13.6209 52.0998 13.5209 51.5998 13.3209C51.1998 13.1209 50.7998 12.9209 50.3998 12.5209C50.0998 12.2209 49.7998 11.8209 49.5998 11.3209C49.3998 10.8209 49.2998 10.3209 49.2998 9.82095C49.2998 9.22095 49.3998 8.72095 49.5998 8.32095C49.7998 7.82095 49.9998 7.42095 50.2998 7.12095C50.5998 6.82095 50.9998 6.52095 51.3998 6.32095C51.8998 6.22095 52.3998 6.12095 52.8998 6.12095ZM52.8998 7.52095C52.5998 7.52095 52.3998 7.52095 52.1998 7.62095C51.9998 7.72095 51.7998 7.82095 51.5998 8.02095C51.3998 8.22095 51.2998 8.32095 51.1998 8.62095C51.0998 8.82095 50.9998 9.12095 50.9998 9.32095H54.6998C54.5998 8.72095 54.3998 8.32095 54.0998 8.02095C53.7998 7.62095 53.3998 7.52095 52.8998 7.52095ZM61.6998 6.12095C61.8998 6.12095 62.1998 6.12095 62.2998 6.12095C62.4998 6.12095 62.6998 6.22095 62.8998 6.32095L62.4998 7.82095C62.2998 7.72095 62.0998 7.72095 61.8998 7.62095C61.6998 7.62095 61.4998 7.52095 61.2998 7.52095C61.0998 7.52095 60.7998 7.52095 60.5998 7.62095C60.3998 7.72095 60.1998 7.82095 60.0998 8.02095C59.9998 8.22095 59.7998 8.42095 59.6998 8.62095C59.5998 8.82095 59.5998 9.12095 59.5998 9.42095V13.3209H57.9998V6.12095H59.4998V6.92095C59.6998 6.62095 59.9998 6.32095 60.3998 6.12095C60.8998 6.22095 61.2998 6.12095 61.6998 6.12095ZM67.0998 6.12095C67.5998 6.12095 68.0998 6.22095 68.5998 6.42095C69.0998 6.62095 69.4998 6.92095 69.7998 7.32095L68.7998 8.42095C68.4998 8.22095 68.2998 8.02095 67.9998 7.82095C67.6998 7.72095 67.3998 7.62095 67.0998 7.62095C66.7998 7.62095 66.4998 7.72095 66.2998 7.82095C65.9998 7.92095 65.7998 8.12095 65.5998 8.32095C65.3998 8.52095 65.2998 8.72095 65.1998 9.02095C65.0998 9.32095 64.9998 9.62095 64.9998 9.92095C64.9998 10.2209 65.0998 10.5209 65.1998 10.8209C65.2998 11.1209 65.4998 11.3209 65.5998 11.5209C65.7998 11.7209 65.9998 11.9209 66.2998 12.0209C66.5998 12.1209 66.7998 12.2209 67.0998 12.2209C67.3998 12.2209 67.7998 12.1209 68.0998 12.0209C68.3998 11.9209 68.6998 11.7209 68.8998 11.5209L69.8998 12.6209C69.5998 13.0209 69.1998 13.3209 68.6998 13.5209C68.1998 13.7209 67.6998 13.8209 67.1998 13.8209C66.5998 13.8209 66.0998 13.7209 65.6998 13.5209C65.1998 13.3209 64.7998 13.0209 64.4998 12.7209C64.1998 12.4209 63.8998 12.0209 63.6998 11.5209C63.4998 11.0209 63.3998 10.5209 63.3998 10.0209C63.3998 9.52095 63.4998 9.02095 63.6998 8.52095C63.8998 8.02095 64.0998 7.62095 64.4998 7.32095C64.7998 7.02095 65.1998 6.72095 65.6998 6.52095C65.9998 6.22095 66.4998 6.12095 67.0998 6.12095ZM78.0998 13.5209H76.4998V12.6209C76.2998 12.9209 75.8998 13.2209 75.5998 13.4209C75.1998 13.6209 74.7998 13.7209 74.2998 13.7209C73.7998 13.7209 73.2998 13.6209 72.8998 13.4209C72.4998 13.2209 72.0998 13.0209 71.7998 12.6209C71.4998 12.3209 71.1998 11.9209 70.9998 11.4209C70.7998 10.9209 70.6998 10.4209 70.6998 9.92095C70.6998 9.42095 70.7998 8.82095 70.9998 8.42095C71.1998 7.92095 71.3998 7.52095 71.7998 7.22095C72.0998 6.92095 72.4998 6.62095 72.8998 6.42095C73.2998 6.22095 73.7998 6.12095 74.2998 6.12095C74.7998 6.12095 75.2998 6.22095 75.5998 6.42095C75.9998 6.62095 76.2998 6.82095 76.4998 7.22095V6.32095H78.0998V13.5209ZM74.4998 7.62095C74.1998 7.62095 73.8998 7.72095 73.5998 7.82095C73.2998 7.92095 73.0998 8.12095 72.8998 8.32095C72.6998 8.52095 72.5998 8.72095 72.4998 9.02095C72.3998 9.32095 72.3998 9.62095 72.3998 9.92095C72.3998 10.2209 72.4998 10.5209 72.4998 10.8209C72.5998 11.1209 72.6998 11.3209 72.8998 11.5209C73.0998 11.7209 73.2998 11.9209 73.5998 12.0209C73.8998 12.1209 74.1998 12.2209 74.4998 12.2209C74.7998 12.2209 75.0998 12.1209 75.3998 12.0209C75.6998 11.9209 75.8998 11.7209 76.0998 11.5209C76.2998 11.3209 76.3998 11.1209 76.4998 10.8209C76.5998 10.5209 76.6998 10.2209 76.6998 9.92095C76.6998 9.62095 76.5998 9.32095 76.4998 9.02095C76.3998 8.72095 76.1998 8.52095 76.0998 8.32095C75.8998 8.12095 75.6998 7.92095 75.3998 7.82095C75.0998 7.62095 74.7998 7.62095 74.4998 7.62095ZM83.9998 6.12095C84.1998 6.12095 84.4998 6.12095 84.5998 6.12095C84.7998 6.12095 84.9998 6.22095 85.1998 6.32095L84.7998 7.82095C84.5998 7.72095 84.3998 7.72095 84.1998 7.62095C83.9998 7.62095 83.7998 7.52095 83.5998 7.52095C83.3998 7.52095 83.0998 7.52095 82.8998 7.62095C82.6998 7.72095 82.4998 7.82095 82.3998 8.02095C82.2998 8.22095 82.0998 8.42095 81.9998 8.62095C81.8998 8.82095 81.8998 9.12095 81.8998 9.42095V13.3209H80.2998V6.12095H81.7998V6.92095C81.9998 6.62095 82.2998 6.32095 82.6998 6.12095C83.1998 6.22095 83.5998 6.12095 83.9998 6.12095ZM89.1998 6.12095C89.6998 6.12095 90.1998 6.22095 90.4998 6.42095C90.8998 6.62095 91.1998 6.82095 91.3998 7.22095V2.72095H92.9998V13.5209H91.3998V12.6209C91.1998 12.9209 90.7998 13.2209 90.4998 13.4209C90.0998 13.6209 89.6998 13.7209 89.1998 13.7209C88.6998 13.7209 88.1998 13.6209 87.7998 13.4209C87.3998 13.2209 86.9998 13.0209 86.6998 12.6209C86.3998 12.3209 86.0998 11.9209 85.8998 11.4209C85.6998 10.9209 85.5998 10.4209 85.5998 9.92095C85.5998 9.42095 85.6998 8.82095 85.8998 8.42095C86.0998 7.92095 86.2998 7.52095 86.6998 7.22095C86.9998 6.92095 87.3998 6.62095 87.7998 6.42095C88.1998 6.22095 88.6998 6.12095 89.1998 6.12095ZM94.7998 12.8209C94.8998 12.8209 94.8998 12.8209 94.9998 12.8209C95.0998 12.8209 95.0998 12.9209 95.0998 12.9209L95.1998 13.0209C95.1998 13.1209 95.1998 13.1209 95.1998 13.2209C95.1998 13.3209 95.1998 13.3209 95.1998 13.4209C95.1998 13.5209 95.0998 13.5209 95.0998 13.5209L94.9998 13.6209C94.8998 13.6209 94.8998 13.6209 94.7998 13.6209C94.6998 13.6209 94.6998 13.6209 94.5998 13.6209C94.4998 13.6209 94.4998 13.5209 94.4998 13.5209L94.3998 13.4209C94.3998 13.3209 94.3998 13.3209 94.3998 13.2209C94.3998 13.1209 94.3998 13.1209 94.3998 13.0209C94.3998 12.9209 94.4998 12.9209 94.4998 12.9209L94.5998 12.8209C94.6998 12.8209 94.6998 12.8209 94.7998 12.8209ZM94.7998 13.6209H94.8998C94.8998 13.6209 94.9998 13.6209 94.9998 13.5209L95.0998 13.4209V13.3209V13.2209C95.0998 13.2209 95.0998 13.1209 94.9998 13.1209L94.8998 13.0209H94.7998H94.6998C94.6998 13.0209 94.5998 13.0209 94.5998 13.1209L94.4998 13.2209V13.3209V13.4209C94.4998 13.4209 94.4998 13.5209 94.5998 13.5209L94.6998 13.6209H94.7998ZM94.7998 13.0209C94.8998 13.0209 94.8998 13.0209 94.8998 13.0209V13.1209V13.2209H94.7998L94.8998 13.4209H94.7998L94.6998 13.2209V13.4209H94.5998V13.0209H94.7998ZM94.6998 13.1209V13.2209H94.7998C94.7998 13.2209 94.7998 13.2209 94.8998 13.2209C94.8998 13.2209 94.8998 13.2209 94.7998 13.2209H94.6998V13.1209ZM89.3998 7.62095C89.0998 7.62095 88.7998 7.72095 88.4998 7.82095C88.1998 7.92095 87.9998 8.12095 87.7998 8.32095C87.5998 8.52095 87.4998 8.72095 87.3998 9.02095C87.1998 9.32095 87.1998 9.62095 87.1998 9.92095C87.1998 10.2209 87.2998 10.5209 87.2998 10.8209C87.3998 11.1209 87.4998 11.3209 87.6998 11.5209C87.8998 11.7209 88.0998 11.9209 88.3998 12.0209C88.6998 12.1209 88.9998 12.2209 89.2998 12.2209C89.5998 12.2209 89.8998 12.1209 90.1998 12.0209C90.4998 11.9209 90.6998 11.7209 90.8998 11.5209C91.0998 11.3209 91.1998 11.1209 91.2998 10.8209C91.3998 10.5209 91.4998 10.2209 91.4998 9.92095C91.4998 9.62095 91.3998 9.32095 91.2998 9.02095C91.1998 8.72095 90.9998 8.52095 90.8998 8.32095C90.6998 8.12095 90.4998 7.92095 90.1998 7.82095C89.9998 7.62095 89.6998 7.62095 89.3998 7.62095Z" fill="#E41522"/>
</svg>
