<svg width="59" height="35" viewBox="0 0 59 35" fill="none" xmlns="http://www.w3.org/2000/svg">
<path d="M58.3999 17.421C58.3999 26.9687 50.6368 34.821 40.9999 34.821C31.4522 34.821 23.5999 26.9687 23.5999 17.421C23.5999 7.8733 31.3629 0.0209961 40.9106 0.0209961C50.6368 0.0209961 58.3999 7.8733 58.3999 17.421Z" fill="#F9B50B"/>
<path d="M35.1107 17.5102C35.1107 16.261 34.9322 15.0118 34.7537 13.8518H24.0461C24.1353 13.2271 24.3137 12.6918 24.4922 11.9779H34.0399C33.8614 11.3533 33.5937 10.7287 33.3261 10.1041H25.2061C25.4737 9.47946 25.8307 8.94407 26.1876 8.23023H32.3445C31.9876 7.60561 31.5414 6.981 31.0061 6.35638H27.6153C28.1507 5.73177 28.6861 5.19638 29.3999 4.57177C26.3661 1.71638 22.2614 0.0209961 17.7107 0.0209961C8.25221 0.288688 0.399902 7.8733 0.399902 17.421C0.399902 26.9687 8.16298 34.821 17.7999 34.821C22.3507 34.821 26.3661 33.0364 29.4891 30.2702C30.1137 29.7348 30.6491 29.1102 31.2737 28.3964H27.7045C27.2584 27.861 26.8122 27.2364 26.4553 26.6118H32.523C32.8799 26.0764 33.2368 25.4518 33.5045 24.7379H25.3845C25.1168 24.2025 24.8491 23.5779 24.6707 22.8641H34.2184C34.7537 21.2579 35.1107 19.4733 35.1107 17.5102Z" fill="#C8191C"/>
<path d="M23.957 21.8825L24.2246 20.2763C24.1354 20.2763 23.957 20.3655 23.7785 20.3655C23.1539 20.3655 23.0646 20.0086 23.1539 19.8301L23.6893 16.6178H24.6708L24.9385 14.8332H24.0462L24.2246 13.7625H22.3508C22.3508 13.7625 21.28 19.8301 21.28 20.544C21.28 21.6148 21.9046 22.1501 22.797 22.1501C23.3323 22.1501 23.7785 21.9717 23.957 21.8825Z" fill="white"/>
<path d="M24.5815 18.938C24.5815 21.5257 26.3662 22.1503 27.7939 22.1503C29.1323 22.1503 29.7569 21.8826 29.7569 21.8826L30.1138 20.098C30.1138 20.098 29.1323 20.5441 28.1508 20.5441C26.0985 20.5441 26.4554 19.0272 26.4554 19.0272H30.2031C30.2031 19.0272 30.4708 17.8672 30.4708 17.3318C30.4708 16.1718 29.8462 14.6549 27.7939 14.6549C26.0092 14.5657 24.5815 16.618 24.5815 18.938ZM27.7939 16.2611C28.7754 16.2611 28.5969 17.4211 28.5969 17.5103H26.5446C26.6338 17.4211 26.8123 16.2611 27.7939 16.2611Z" fill="white"/>
<path d="M39.4829 21.8824L39.8398 19.8301C39.8398 19.8301 38.9475 20.2763 38.2337 20.2763C36.9844 20.2763 36.3598 19.2947 36.3598 18.1347C36.3598 15.904 37.4306 14.744 38.769 14.744C39.6613 14.744 40.4644 15.2793 40.4644 15.2793L40.7321 13.3163C40.7321 13.3163 39.6613 12.8701 38.5906 12.8701C36.449 12.8701 34.3967 14.744 34.3967 18.224C34.3967 20.544 35.4675 22.0609 37.6983 22.0609C38.5013 22.1501 39.4829 21.8824 39.4829 21.8824Z" fill="white"/>
<path d="M13.8736 14.5657C12.6243 14.5657 11.6428 14.9226 11.6428 14.9226L11.3751 16.5288C11.3751 16.5288 12.1782 16.1718 13.4274 16.1718C14.052 16.1718 14.5874 16.2611 14.5874 16.7964C14.5874 17.1534 14.4982 17.2426 14.4982 17.2426H13.6951C12.0889 17.2426 10.3936 17.8672 10.3936 20.0088C10.3936 21.7041 11.4643 22.0611 12.1782 22.0611C13.4274 22.0611 14.052 21.258 14.1412 21.258L14.052 21.9718H15.5689L16.2828 16.8857C16.2828 14.6549 14.4982 14.5657 13.8736 14.5657ZM14.2305 18.6703C14.2305 18.938 14.052 20.4549 12.9812 20.4549C12.4459 20.4549 12.2674 20.0088 12.2674 19.7411C12.2674 19.2949 12.5351 18.6703 13.9628 18.6703C14.1412 18.6703 14.2305 18.6703 14.2305 18.6703Z" fill="white"/>
<path d="M18.0677 22.0609C18.5138 22.0609 20.8338 22.1502 20.8338 19.6517C20.8338 17.3317 18.6031 17.7779 18.6031 16.8855C18.6031 16.4394 18.96 16.2609 19.5846 16.2609C19.8523 16.2609 20.8338 16.3502 20.8338 16.3502L21.1015 14.6548C21.1015 14.6548 20.4769 14.4763 19.3169 14.4763C17.9785 14.4763 16.5508 15.0117 16.5508 16.8855C16.5508 19.0271 18.8708 18.8486 18.8708 19.6517C18.8708 20.1871 18.2461 20.2763 17.8 20.2763C16.9969 20.2763 16.1046 20.0086 16.1046 20.0086L15.8369 21.704C16.0154 21.8825 16.5508 22.0609 18.0677 22.0609Z" fill="white"/>
<path d="M54.8308 13.1379L54.4739 15.6364C54.4739 15.6364 53.76 14.7441 52.6892 14.7441C50.9939 14.7441 49.5662 16.7964 49.5662 19.2056C49.5662 20.7226 50.28 22.2395 51.8862 22.2395C52.9569 22.2395 53.6708 21.5256 53.6708 21.5256L53.5815 22.1502H55.4554L56.7939 13.3164L54.8308 13.1379ZM53.9385 17.9564C53.9385 18.9379 53.4923 20.2764 52.4215 20.2764C51.7969 20.2764 51.44 19.741 51.44 18.7595C51.44 17.2426 52.0646 16.3502 52.9569 16.3502C53.5815 16.4395 53.9385 16.8856 53.9385 17.9564Z" fill="white"/>
<path d="M3.79072 21.9718L4.86149 15.3687L5.03995 21.9718H6.28918L8.69841 15.3687L7.71687 21.9718H9.67995L11.1969 13.1379H8.16303L6.28918 18.581L6.19995 13.1379H3.52303L2.0061 21.9718H3.79072Z" fill="white"/>
<path d="M32.3445 21.9718C32.8799 18.938 32.9692 16.4395 34.3076 16.8857C34.4861 15.7257 34.7538 15.1903 34.9322 14.7441H34.5753C33.7722 14.7441 33.0584 15.8149 33.0584 15.8149L33.2369 14.8334H31.4522L30.2922 21.9718H32.3445Z" fill="white"/>
<path d="M43.7659 14.5657C42.5167 14.5657 41.5351 14.9226 41.5351 14.9226L41.2674 16.5288C41.2674 16.5288 42.0705 16.1718 43.3197 16.1718C43.9443 16.1718 44.4797 16.2611 44.4797 16.7964C44.4797 17.1534 44.3905 17.2426 44.3905 17.2426H43.5874C41.9813 17.2426 40.2859 17.8672 40.2859 20.0088C40.2859 21.7041 41.3567 22.0611 42.0705 22.0611C43.3197 22.0611 43.9444 21.258 44.0336 21.258L43.9443 21.9718H45.6397L46.3536 16.8857C46.3536 14.6549 44.3905 14.5657 43.7659 14.5657ZM44.212 18.6703C44.212 18.938 44.0336 20.4549 42.9628 20.4549C42.4274 20.4549 42.249 20.0088 42.249 19.7411C42.249 19.2949 42.5167 18.6703 43.9443 18.6703C44.1228 18.6703 44.1228 18.6703 44.212 18.6703Z" fill="white"/>
<path d="M47.7816 21.9718C48.3169 18.938 48.4062 16.4395 49.7446 16.8857C49.9231 15.7257 50.1908 15.1903 50.3692 14.7441H50.0123C49.2092 14.7441 48.4954 15.8149 48.4954 15.8149L48.6739 14.8334H46.8892L45.7292 21.9718H47.7816Z" fill="white"/>
</svg>
