<svg width="73" height="21" viewBox="0 0 73 21" fill="none" xmlns="http://www.w3.org/2000/svg">
<path d="M64.9979 -0.0090332H51.1362C51.9437 4.56667 56.3848 8.87322 61.2297 8.87322H72.2652C72.3998 8.46948 72.3998 7.79657 72.3998 7.39284C72.3998 3.35545 69.0353 -0.0090332 64.9979 -0.0090332Z" fill="url(#paint0_linear_8_36243)"/>
<path d="M52.3477 9.68066V20.8507H59.0766V14.9293H64.9981C68.228 14.9293 71.0542 12.6414 71.9963 9.68066H52.3477Z" fill="#4FAD50"/>
<path d="M28.6614 -0.0090332V20.7162H34.5829C34.5829 20.7162 36.0633 20.7162 36.8707 19.2358C40.9081 11.2956 42.1193 8.87322 42.1193 8.87322H42.9268V20.7162H49.6558V-0.0090332H43.7343C43.7343 -0.0090332 42.2539 0.125554 41.4464 1.47135C38.0819 8.3349 36.1978 11.834 36.1978 11.834H35.3903V-0.0090332H28.6614Z" fill="#4FAD50"/>
<path d="M0.399902 20.8507V0.125488H7.12887C7.12887 0.125488 9.013 0.125484 10.0896 3.08623C12.7812 10.8918 13.0504 11.9685 13.0504 11.9685C13.0504 11.9685 13.5887 10.0844 16.0111 3.08623C17.0878 0.125484 18.9719 0.125488 18.9719 0.125488H25.7009V20.8507H18.9719V9.68064H18.1644L14.3962 20.8507H11.4354L7.66722 9.68064H6.85974V20.8507H0.399902Z" fill="#4FAD50"/>
<defs>
<linearGradient id="paint0_linear_8_36243" x1="51.1123" y1="4.49575" x2="72.3521" y2="4.49575" gradientUnits="userSpaceOnUse">
<stop stop-color="#27B1E6"/>
<stop offset="1" stop-color="#148ACA"/>
</linearGradient>
</defs>
</svg>
