<svg width="17" height="17" viewBox="0 0 17 17" fill="none" xmlns="http://www.w3.org/2000/svg">
<g clip-path="url(#clip0_2_33086)">
<path d="M14.8102 11.78V13.78C14.811 13.9657 14.7729 14.1494 14.6986 14.3195C14.6242 14.4897 14.5151 14.6424 14.3783 14.7679C14.2415 14.8934 14.0799 14.989 13.9041 15.0485C13.7282 15.1079 13.5418 15.13 13.3569 15.1133C11.3055 14.8904 9.33489 14.1894 7.60356 13.0667C5.99278 12.0431 4.62712 10.6774 3.60356 9.06665C2.47688 7.32745 1.77572 5.34731 1.55689 3.28665C1.54023 3.10229 1.56214 2.91649 1.62123 2.74107C1.68031 2.56564 1.77527 2.40444 1.90007 2.26773C2.02487 2.13102 2.17676 2.02179 2.34609 1.947C2.51541 1.87221 2.69845 1.83349 2.88356 1.83332H4.88356C5.2071 1.83013 5.52076 1.9447 5.76607 2.15567C6.01138 2.36664 6.17161 2.65961 6.21689 2.97998C6.30131 3.62003 6.45786 4.24847 6.68356 4.85332C6.77326 5.09193 6.79267 5.35126 6.7395 5.60057C6.68633 5.84988 6.5628 6.07872 6.38356 6.25998L5.53689 7.10665C6.48593 8.77568 7.86786 10.1576 9.53689 11.1067L10.3836 10.26C10.5648 10.0807 10.7937 9.95722 11.043 9.90405C11.2923 9.85088 11.5516 9.87029 11.7902 9.95998C12.3951 10.1857 13.0235 10.3422 13.6636 10.4267C13.9874 10.4723 14.2832 10.6355 14.4946 10.885C14.706 11.1345 14.8183 11.453 14.8102 11.78Z" stroke="#EAEAEA" stroke-width="1.3" stroke-linecap="round" stroke-linejoin="round"/>
</g>
<defs>
<clipPath id="clip0_2_33086">
<rect width="16" height="16" fill="white" transform="translate(0.143555 0.5)"/>
</clipPath>
</defs>
</svg>
