<svg width="27" height="27" viewBox="0 0 27 27" fill="none" xmlns="http://www.w3.org/2000/svg">
<g clip-path="url(#clip0_42_13918)">
<path d="M16.75 7.96323H20C20.7113 7.96323 21.4157 8.10333 22.0729 8.37555C22.73 8.64776 23.3272 9.04675 23.8302 9.54973C24.3331 10.0527 24.7321 10.6498 25.0043 11.307C25.2766 11.9642 25.4167 12.6686 25.4167 13.3799C25.4167 14.0912 25.2766 14.7956 25.0043 15.4528C24.7321 16.1099 24.3331 16.7071 23.8302 17.2101C23.3272 17.713 22.73 18.112 22.0729 18.3842C21.4157 18.6565 20.7113 18.7966 20 18.7966H16.75M10.25 18.7966H6.99999C6.28867 18.7966 5.58431 18.6565 4.92713 18.3842C4.26995 18.112 3.67282 17.713 3.16983 17.2101C2.15401 16.1942 1.58333 14.8165 1.58333 13.3799C1.58333 11.9433 2.15401 10.5656 3.16983 9.54973C4.18566 8.53391 5.56341 7.96323 6.99999 7.96323H10.25" stroke="white" stroke-width="2" stroke-linecap="round" stroke-linejoin="round"/>
<path d="M9.16666 13.3799H17.8333" stroke="white" stroke-width="2" stroke-linecap="round" stroke-linejoin="round"/>
</g>
<defs>
<clipPath id="clip0_42_13918">
<rect width="26" height="26" fill="white" transform="translate(0.5 0.379883)"/>
</clipPath>
</defs>
</svg>
