<svg width="39" height="39" viewBox="0 0 39 39" fill="none" xmlns="http://www.w3.org/2000/svg">
<path d="M30.2604 24.4229C30.9055 24.6994 31.182 25.621 31.182 26.0818C31.2742 26.8191 31.0899 27.1877 30.8134 27.1877C30.5369 27.1877 30.1682 26.9112 29.7996 26.2661C29.431 25.621 29.2466 24.9758 29.431 24.6072C29.7074 24.4229 29.9839 24.3307 30.2604 24.4229Z" fill="#F28A1A"/>
<path d="M26.4817 27.2798C26.8503 27.2798 27.3111 27.4641 27.7719 27.8328C28.5092 28.4779 28.7857 29.2152 28.4171 29.7681C28.2328 30.0446 27.7719 30.229 27.4033 30.229C26.9425 30.229 26.4817 30.0446 26.2052 29.7681C25.4679 29.123 25.2836 28.2014 25.7444 27.6484C25.8366 27.4641 26.113 27.2798 26.4817 27.2798Z" fill="#F28A1A"/>
<path d="M17.7263 34.5606C8.14148 34.5606 0.399902 26.819 0.399902 17.3264C0.399902 7.83374 8.14148 0 17.7263 0C27.3111 0 35.0527 7.74158 35.0527 17.3264C35.0527 20.552 34.1311 23.5934 32.6565 26.1739C32.5643 26.2661 32.4721 26.2661 32.4721 26.0817C31.827 21.8423 29.2465 19.5383 25.56 18.801C25.1914 18.7088 25.1914 18.5245 25.6522 18.5245C26.8503 18.4323 28.417 18.4323 29.3387 18.6166C29.4308 18.1558 29.4308 17.695 29.4308 17.3264C29.4308 11.0594 24.2698 5.89834 18.0028 5.89834C11.7358 5.89834 6.57473 11.0594 6.57473 17.3264C6.57473 23.5934 11.7358 28.7544 18.0028 28.7544H18.5557C18.3714 27.7407 18.2793 26.7269 18.3714 25.6209C18.3714 24.8836 18.5557 24.7915 18.8322 25.3444C20.399 28.1093 22.703 30.5055 27.1268 31.5193C30.7211 32.3487 34.3154 33.2704 38.2783 38.1549C38.647 38.6157 38.094 39.0765 37.7254 38.7079C33.7624 35.2057 30.1681 34.0076 26.8503 34.0076C22.703 34.0998 20.2147 34.5606 17.7263 34.5606Z" fill="#F28A1A"/>
</svg>
