<svg width="26" height="20" viewBox="0 0 26 20" fill="none" xmlns="http://www.w3.org/2000/svg">
<path d="M25.64 14.84C25.64 16.3867 25.1067 17.64 24.04 18.6C23.0267 19.5067 21.7467 19.96 20.2 19.96C18.2267 19.96 16.68 19.3467 15.56 18.12C14.44 16.84 13.88 15.16 13.88 13.08C13.88 10.9467 14.2 9.13333 14.84 7.64C15.5333 6.14666 16.3333 4.92 17.24 3.96C18.2 2.94666 19.1867 2.17333 20.2 1.64C21.2133 1.05333 22.0933 0.626666 22.84 0.36L25.4 4.68C24.3333 5.10666 23.4267 5.8 22.68 6.76C21.9333 7.66667 21.5067 8.65333 21.4 9.72C22.4667 9.72 23.4267 10.2 24.28 11.16C25.1867 12.0667 25.64 13.2933 25.64 14.84ZM11.8 14.84C11.8 16.3867 11.2667 17.64 10.2 18.6C9.18667 19.5067 7.90667 19.96 6.36 19.96C4.38667 19.96 2.84 19.3467 1.72 18.12C0.6 16.84 0.0400002 15.16 0.0400002 13.08C0.0400002 10.9467 0.36 9.13333 1 7.64C1.69333 6.14666 2.49333 4.92 3.4 3.96C4.36 2.94666 5.34667 2.17333 6.36 1.64C7.37333 1.05333 8.25333 0.626666 9 0.36L11.56 4.68C10.4933 5.10666 9.58667 5.8 8.84 6.76C8.09333 7.66667 7.66667 8.65333 7.56 9.72C8.62667 9.72 9.58667 10.2 10.44 11.16C11.3467 12.0667 11.8 13.2933 11.8 14.84Z" fill="#303063"/>
</svg>
