<svg width="39" height="39" viewBox="0 0 39 39" fill="none" xmlns="http://www.w3.org/2000/svg">
<path d="M21.7283 12.6218H17.1646V19.0483H21.7283C22.7528 19.0483 23.591 18.7689 24.1498 18.2101C24.8018 17.6512 25.0812 16.813 25.0812 15.8816C25.0812 14.9503 24.8018 14.2052 24.1498 13.5532C23.591 12.9944 22.7528 12.6218 21.7283 12.6218Z" fill="#4FAD50"/>
<path d="M19.3999 0.420898C8.87538 0.420898 0.399902 8.89638 0.399902 19.4209C0.399902 29.9454 8.87538 38.4209 19.3999 38.4209C29.9244 38.4209 38.3999 29.9454 38.3999 19.4209C38.3068 8.89638 29.8313 0.420898 19.3999 0.420898ZM26.6646 20.3523C25.4538 21.4699 23.8705 22.1219 22.0077 22.1219H17.1646V23.7983H24.3362C24.4293 23.7983 24.6156 23.7983 24.7087 23.8915C24.8019 23.9846 24.8019 24.0778 24.8019 24.264V26.1268C24.8019 26.2199 24.8019 26.4062 24.7087 26.4993C24.6156 26.5925 24.5225 26.5925 24.3362 26.5925H17.1646V29.2934C17.1646 29.3866 17.1646 29.5728 17.0715 29.666C16.9783 29.7591 16.8852 29.7591 16.7921 29.7591H14.3705C14.2773 29.7591 14.0911 29.7591 13.9979 29.666C13.9048 29.5728 13.9048 29.4797 13.9048 29.2934V26.5925H10.7381C10.645 26.5925 10.4587 26.5925 10.3656 26.4993C10.2725 26.4062 10.2725 26.313 10.2725 26.1268V24.264C10.2725 24.1709 10.2725 23.9846 10.3656 23.8915C10.4587 23.7983 10.5519 23.7983 10.7381 23.7983H13.9048V22.1219H10.7381C10.645 22.1219 10.4587 22.1219 10.3656 22.0287C10.2725 21.9356 10.2725 21.8425 10.2725 21.6562V19.514C10.2725 19.4209 10.2725 19.3278 10.3656 19.2346C10.4587 19.1415 10.5519 19.1415 10.7381 19.1415H13.9048V10.2003C13.9048 10.1072 13.9048 9.9209 13.9979 9.82776C14.0911 9.73462 14.1842 9.73462 14.3705 9.73462H22.1009C23.9636 9.73462 25.547 10.2935 26.7577 11.5042C27.9685 12.6219 28.5274 14.2052 28.5274 15.9748C28.5274 17.6513 27.8754 19.1415 26.6646 20.3523Z" fill="#4FAD50"/>
</svg>
