<svg width="16" height="17" viewBox="0 0 16 17" fill="none" xmlns="http://www.w3.org/2000/svg">
<path d="M3.16667 8.3887V8.10152L2.9186 7.95681L0.992323 6.83317L8 2.74536L15.0077 6.83319L14.4147 7.17908L13.0814 7.95681L12.8333 8.10151V8.3887V12.6637L12.7963 12.7096C11.6659 14.1063 9.9372 14.9998 8 14.9998C6.06278 14.9998 4.33406 14.1063 3.20377 12.7096L3.20376 12.7096L3.16667 12.6637V8.3887ZM15.5 7.12036V11.9998H15.1667V7.61097V6.92591L15.5 7.12036ZM4.25194 8.73461L3.5 8.29599V9.1665V12.361V12.5501L3.62513 12.6918C4.69422 13.9031 6.25809 14.6665 8 14.6665C9.74192 14.6665 11.3058 13.9031 12.3749 12.6918L12.5 12.5501V12.361V9.1665V8.29599L11.7481 8.73461L8 10.921L4.25194 8.73461ZM2.39424 6.40128L1.65386 6.83317L2.39424 7.26506L7.74806 10.3881L8 10.5351L8.25194 10.3881L13.6057 7.26506L14.3461 6.83317L13.6057 6.40128L8.25194 3.27822L8 3.13126L7.74806 3.27822L2.39424 6.40128Z" fill="#303063" stroke="#303063"/>
</svg>
