<svg width="16" height="17" viewBox="0 0 16 17" fill="none" xmlns="http://www.w3.org/2000/svg">
<path fill-rule="evenodd" clip-rule="evenodd" d="M0.976311 10.8097C1.60143 10.1846 2.44928 9.83337 3.33333 9.83337H8.66667C9.55072 9.83337 10.3986 10.1846 11.0237 10.8097C11.6488 11.4348 12 12.2827 12 13.1667V14.5C12 14.8682 11.7015 15.1667 11.3333 15.1667C10.9651 15.1667 10.6667 14.8682 10.6667 14.5V13.1667C10.6667 12.6363 10.456 12.1276 10.0809 11.7525C9.70581 11.3774 9.1971 11.1667 8.66667 11.1667H3.33333C2.8029 11.1667 2.29419 11.3774 1.91912 11.7525C1.54405 12.1276 1.33333 12.6363 1.33333 13.1667V14.5C1.33333 14.8682 1.03486 15.1667 0.666667 15.1667C0.298477 15.1667 0 14.8682 0 14.5V13.1667C0 12.2827 0.35119 11.4348 0.976311 10.8097Z" fill="#303063"/>
<path fill-rule="evenodd" clip-rule="evenodd" d="M5.99996 3.16671C4.89539 3.16671 3.99996 4.06214 3.99996 5.16671C3.99996 6.27128 4.89539 7.16671 5.99996 7.16671C7.10453 7.16671 7.99996 6.27128 7.99996 5.16671C7.99996 4.06214 7.10453 3.16671 5.99996 3.16671ZM2.66663 5.16671C2.66663 3.32576 4.15901 1.83337 5.99996 1.83337C7.84091 1.83337 9.33329 3.32576 9.33329 5.16671C9.33329 7.00766 7.84091 8.50004 5.99996 8.50004C4.15901 8.50004 2.66663 7.00766 2.66663 5.16671Z" fill="#303063"/>
<path fill-rule="evenodd" clip-rule="evenodd" d="M12.6878 10.42C12.7799 10.0635 13.1435 9.84908 13.5 9.94113C14.2151 10.1258 14.8486 10.5427 15.3011 11.1264C15.7536 11.7101 15.9994 12.4276 16 13.1661L16 14.5C16 14.8682 15.7015 15.1666 15.3333 15.1666C14.9651 15.1666 14.6667 14.8682 14.6667 14.5L14.6667 13.1671C14.6667 13.1671 14.6667 13.1672 14.6667 13.1671C14.6663 12.7241 14.5188 12.2935 14.2473 11.9433C13.9759 11.5931 13.5957 11.3429 13.1667 11.2321C12.8102 11.1401 12.5958 10.7765 12.6878 10.42Z" fill="#303063"/>
<path fill-rule="evenodd" clip-rule="evenodd" d="M10.0209 2.42127C10.1122 2.06458 10.4754 1.84947 10.8321 1.94079C11.5491 2.12438 12.1846 2.54138 12.6384 3.12605C13.0923 3.71073 13.3386 4.42982 13.3386 5.16996C13.3386 5.9101 13.0923 6.62919 12.6384 7.21387C12.1846 7.79854 11.5491 8.21554 10.8321 8.39913C10.4754 8.49045 10.1122 8.27534 10.0209 7.91865C9.92955 7.56197 10.1447 7.19879 10.5013 7.10746C10.9316 6.99731 11.3129 6.74711 11.5852 6.3963C11.8575 6.0455 12.0053 5.61405 12.0053 5.16996C12.0053 4.72588 11.8575 4.29442 11.5852 3.94362C11.3129 3.59281 10.9316 3.34261 10.5013 3.23246C10.1447 3.14113 9.92955 2.77795 10.0209 2.42127Z" fill="#303063"/>
</svg>
