<svg width="69" height="22" viewBox="0 0 69 22" fill="none" xmlns="http://www.w3.org/2000/svg">
<path d="M63.7999 1.22095H59.4999C58.1999 1.22095 57.1999 1.62095 56.5999 2.92095L48.3999 21.6209H54.1999C54.1999 21.6209 55.1999 19.1209 55.3999 18.5209C55.9999 18.5209 61.6999 18.5209 62.4999 18.5209C62.6999 19.2209 63.1999 21.5209 63.1999 21.5209H68.3999L63.7999 1.22095ZM56.9999 14.3209C57.4999 13.1209 59.1999 8.62095 59.1999 8.62095C59.1999 8.72095 59.6999 7.42095 59.8999 6.72095L60.2999 8.52095C60.2999 8.52095 61.3999 13.4209 61.5999 14.4209H56.9999V14.3209Z" fill="#3362AB"/>
<path d="M48.7999 14.9209C48.7999 19.1209 44.9999 21.9209 39.0999 21.9209C36.5999 21.9209 34.1999 21.4209 32.8999 20.8209L33.6999 16.2209L34.3999 16.5209C36.1999 17.3209 37.3999 17.6209 39.5999 17.6209C41.1999 17.6209 42.8999 17.0209 42.8999 15.6209C42.8999 14.7209 42.1999 14.1209 39.9999 13.1209C37.8999 12.1209 35.0999 10.5209 35.0999 7.6209C35.0999 3.6209 38.9999 0.920898 44.4999 0.920898C46.5999 0.920898 48.3999 1.3209 49.4999 1.8209L48.6999 6.2209L48.2999 5.8209C47.2999 5.4209 45.9999 5.0209 44.0999 5.0209C41.9999 5.1209 40.9999 6.0209 40.9999 6.8209C40.9999 7.7209 42.1999 8.4209 44.0999 9.3209C47.2999 10.8209 48.7999 12.5209 48.7999 14.9209Z" fill="#3362AB"/>
<path d="M0 1.421L0.1 1.021H8.7C9.9 1.021 10.8 1.421 11.1 2.721L13 11.721C11.1 6.921 6.7 3.021 0 1.421Z" fill="#F9B50B"/>
<path d="M25.1 1.22085L16.4 21.5209H10.5L5.5 4.52085C9.1 6.82085 12.1 10.4208 13.2 12.9208L13.8 15.0208L19.2 1.12085H25.1V1.22085Z" fill="#3362AB"/>
<path d="M27.3999 1.12085H32.8999L29.3999 21.5209H23.8999L27.3999 1.12085Z" fill="#3362AB"/>
</svg>
